Nepomuk-RegularSC.ufo
<glyph name="quotedbl" format="2">
  <advance width="380"/>
  <unicode hex="0022"/>
  <outline>
    <contour>
      <point x="287" y="387" type="line"/>
      <point x="291" y="417" type="line" smooth="yes"/>
      <point x="301" y="491"/>
      <point x="320" y="597"/>
      <point x="320" y="642" type="curve" smooth="yes"/>
      <point x="320" y="667"/>
      <point x="305" y="692"/>
      <point x="275" y="692" type="curve" smooth="yes"/>
      <point x="245" y="692"/>
      <point x="230" y="667"/>
      <point x="230" y="642" type="curve" smooth="yes"/>
      <point x="230" y="597"/>
      <point x="249" y="491"/>
      <point x="259" y="417" type="curve" smooth="yes"/>
      <point x="263" y="387" type="line"/>
    </contour>
    <contour>
      <point x="117" y="387" type="line"/>
      <point x="121" y="417" type="line" smooth="yes"/>
      <point x="131" y="491"/>
      <point x="150" y="597"/>
      <point x="150" y="642" type="curve" smooth="yes"/>
      <point x="150" y="667"/>
      <point x="135" y="692"/>
      <point x="105" y="692" type="curve" smooth="yes"/>
      <point x="75" y="692"/>
      <point x="60" y="667"/>
      <point x="60" y="642" type="curve" smooth="yes"/>
      <point x="60" y="597"/>
      <point x="79" y="491"/>
      <point x="89" y="417" type="curve" smooth="yes"/>
      <point x="93" y="387" type="line"/>
    </contour>
  </outline>
</glyph>
<glyph name="dollar" format="2">
  <advance width="563"/>
  <unicode hex="0024"/>
  <outline>
    <contour>
      <point x="315" y="799" type="line"/>
      <point x="315" y="690" type="line"/>
      <point x="417" y="680"/>
      <point x="502" y="620"/>
      <point x="502" y="554" type="curve" smooth="yes"/>
      <point x="502" y="522"/>
      <point x="484" y="505"/>
      <point x="454" y="505" type="curve" smooth="yes"/>
      <point x="417" y="505"/>
      <point x="412" y="537"/>
      <point x="403" y="571" type="curve" smooth="yes"/>
      <point x="393" y="606"/>
      <point x="376" y="642"/>
      <point x="315" y="650" type="curve"/>
      <point x="315" y="402" type="line"/>
      <point x="471" y="333"/>
      <point x="526" y="277"/>
      <point x="526" y="189" type="curve" smooth="yes"/>
      <point x="526" y="77"/>
      <point x="439" y="-2"/>
      <point x="315" y="-12" type="curve"/>
      <point x="315" y="-155" type="line"/>
      <point x="266" y="-155" type="line"/>
      <point x="266" y="-13" type="line"/>
      <point x="149" y="-8"/>
      <point x="43" y="58"/>
      <point x="43" y="146" type="curve" smooth="yes"/>
      <point x="43" y="187"/>
      <point x="64" y="201"/>
      <point x="87" y="201" type="curve" smooth="yes"/>
      <point x="133" y="201"/>
      <point x="139" y="138"/>
      <point x="147" y="108" type="curve" smooth="yes"/>
      <point x="157" y="73"/>
      <point x="184" y="36"/>
      <point x="266" y="33" type="curve"/>
      <point x="266" y="300" type="line"/>
      <point x="222" y="320"/>
      <point x="176" y="339"/>
      <point x="139" y="372" type="curve" smooth="yes"/>
      <point x="106" y="401"/>
      <point x="82" y="442"/>
      <point x="82" y="503" type="curve" smooth="yes"/>
      <point x="82" y="610"/>
      <point x="155" y="683"/>
      <point x="266" y="692" type="curve"/>
      <point x="266" y="799" type="line"/>
    </contour>
    <contour>
      <point x="432" y="147" type="curve" smooth="yes"/>
      <point x="432" y="218"/>
      <point x="380" y="249"/>
      <point x="315" y="278" type="curve"/>
      <point x="315" y="35" type="line"/>
      <point x="394" y="44"/>
      <point x="432" y="86"/>
    </contour>
    <contour>
      <point x="166" y="548" type="curve" smooth="yes"/>
      <point x="166" y="498"/>
      <point x="197" y="458"/>
      <point x="266" y="423" type="curve"/>
      <point x="266" y="649" type="line"/>
      <point x="205" y="638"/>
      <point x="166" y="603"/>
    </contour>
  </outline>
</glyph>
<glyph name="quotesingle" format="2">
  <advance width="210"/>
  <unicode hex="0027"/>
  <outline>
    <contour>
      <point x="117" y="387" type="line"/>
      <point x="121" y="417" type="line" smooth="yes"/>
      <point x="130.869" y="491.018"/>
      <point x="150" y="597"/>
      <point x="150" y="642" type="curve" smooth="yes"/>
      <point x="150" y="667"/>
      <point x="135" y="692"/>
      <point x="105" y="692" type="curve" smooth="yes"/>
      <point x="75" y="692"/>
      <point x="60" y="667"/>
      <point x="60" y="642" type="curve" smooth="yes"/>
      <point x="60" y="597"/>
      <point x="79" y="491"/>
      <point x="89" y="417" type="curve" smooth="yes"/>
      <point x="93" y="387" type="line"/>
    </contour>
  </outline>
</glyph>
<glyph name="parenleft" format="2">
  <advance width="337"/>
  <unicode hex="0028"/>
  <outline>
    <contour>
      <point x="60" y="260" type="curve" smooth="yes"/>
      <point x="60" y="20"/>
      <point x="208" y="-152"/>
      <point x="314" y="-235" type="curve"/>
      <point x="337" y="-211" type="line"/>
      <point x="240" y="-118"/>
      <point x="156" y="20"/>
      <point x="156" y="260" type="curve" smooth="yes"/>
      <point x="156" y="500"/>
      <point x="240" y="638"/>
      <point x="337" y="731" type="curve"/>
      <point x="314" y="755" type="line"/>
      <point x="208" y="672"/>
      <point x="60" y="500"/>
    </contour>
  </outline>
</glyph>
<glyph name="parenright" format="2">
  <advance width="347"/>
  <unicode hex="0029"/>
  <outline>
    <contour>
      <point x="33" y="-230" type="line"/>
      <point x="139" y="-147"/>
      <point x="287" y="25"/>
      <point x="287" y="265" type="curve" smooth="yes"/>
      <point x="287" y="505"/>
      <point x="139" y="677"/>
      <point x="33" y="760" type="curve"/>
      <point x="10" y="736" type="line"/>
      <point x="107" y="643"/>
      <point x="191" y="505"/>
      <point x="191" y="265" type="curve" smooth="yes"/>
      <point x="191" y="25"/>
      <point x="107" y="-113"/>
      <point x="10" y="-206" type="curve"/>
    </contour>
  </outline>
</glyph>
<glyph name="plus" format="2">
  <advance width="576"/>
  <unicode hex="002B"/>
  <outline>
    <contour>
      <point x="311" y="296" type="line"/>
      <point x="311" y="498" type="line"/>
      <point x="265" y="498" type="line"/>
      <point x="265" y="296" type="line"/>
      <point x="63" y="296" type="line"/>
      <point x="63" y="250" type="line"/>
      <point x="265" y="250" type="line"/>
      <point x="265" y="48" type="line"/>
      <point x="311" y="48" type="line"/>
      <point x="311" y="250" type="line"/>
      <point x="513" y="250" type="line"/>
      <point x="513" y="296" type="line"/>
    </contour>
  </outline>
</glyph>
<glyph name="comma" format="2">
  <advance width="252"/>
  <unicode hex="002C"/>
  <outline>
    <contour>
      <point x="117" y="117" type="curve" smooth="yes"/>
      <point x="84" y="117"/>
      <point x="54" y="86"/>
      <point x="54" y="53" type="curve" smooth="yes"/>
      <point x="54" y="17"/>
      <point x="84" y="-10"/>
      <point x="128" y="-10" type="curve" smooth="yes"/>
      <point x="135" y="-10"/>
      <point x="139" y="-16"/>
      <point x="139" y="-28" type="curve" smooth="yes"/>
      <point x="139" y="-60"/>
      <point x="107" y="-90"/>
      <point x="61" y="-99" type="curve"/>
      <point x="66" y="-129" type="line"/>
      <point x="145" y="-120"/>
      <point x="200" y="-51"/>
      <point x="200" y="28" type="curve" smooth="yes"/>
      <point x="200" y="80"/>
      <point x="165" y="117"/>
    </contour>
  </outline>
</glyph>
<glyph name="period" format="2">
  <advance width="283"/>
  <unicode hex="002E"/>
  <outline>
    <contour>
      <point x="70" y="59" type="curve" smooth="yes"/>
      <point x="70" y="20"/>
      <point x="102" y="-12"/>
      <point x="141" y="-12" type="curve" smooth="yes"/>
      <point x="180" y="-12"/>
      <point x="212" y="20"/>
      <point x="212" y="59" type="curve" smooth="yes"/>
      <point x="212" y="98"/>
      <point x="180" y="130"/>
      <point x="141" y="130" type="curve" smooth="yes"/>
      <point x="102" y="130"/>
      <point x="70" y="98"/>
    </contour>
  </outline>
</glyph>
<glyph name="slash" format="2">
  <advance width="354"/>
  <unicode hex="002F"/>
  <outline>
    <contour>
      <point x="303" y="692" type="line"/>
      <point x="29" y="0" type="line"/>
      <point x="76" y="0" type="line"/>
      <point x="350" y="692" type="line"/>
    </contour>
  </outline>
</glyph>
<glyph name="zero" format="2">
  <advance width="587"/>
  <unicode hex="0030"/>
  <outline>
    <contour>
      <point x="50" y="342" type="curve" smooth="yes"/>
      <point x="50" y="147"/>
      <point x="150" y="-12"/>
      <point x="294" y="-12" type="curve" smooth="yes"/>
      <point x="438" y="-12"/>
      <point x="537" y="147"/>
      <point x="537" y="342" type="curve" smooth="yes"/>
      <point x="537" y="537"/>
      <point x="438" y="692"/>
      <point x="294" y="692" type="curve" smooth="yes"/>
      <point x="150" y="692"/>
      <point x="50" y="537"/>
    </contour>
    <contour>
      <point x="294" y="663" type="curve" smooth="yes"/>
      <point x="383" y="663"/>
      <point x="421" y="557"/>
      <point x="421" y="367" type="curve" smooth="yes"/>
      <point x="421" y="312" type="line" smooth="yes"/>
      <point x="421" y="122"/>
      <point x="383" y="17"/>
      <point x="294" y="17" type="curve" smooth="yes"/>
      <point x="205" y="17"/>
      <point x="166" y="122"/>
      <point x="166" y="312" type="curve" smooth="yes"/>
      <point x="166" y="367" type="line" smooth="yes"/>
      <point x="166" y="557"/>
      <point x="205" y="663"/>
    </contour>
  </outline>
</glyph>
<glyph name="one" format="2">
  <advance width="450"/>
  <unicode hex="0031"/>
  <outline>
    <contour>
      <point x="272" y="680" type="line"/>
      <point x="230" y="612"/>
      <point x="184" y="587"/>
      <point x="77" y="563" type="curve"/>
      <point x="77" y="540" type="line"/>
      <point x="99" y="542"/>
      <point x="205" y="540"/>
      <point x="205" y="494" type="curve" smooth="yes"/>
      <point x="205" y="85" type="line" smooth="yes"/>
      <point x="205" y="50"/>
      <point x="190" y="35"/>
      <point x="155" y="35" type="curve" smooth="yes"/>
      <point x="105" y="35" type="line"/>
      <point x="105" y="0" type="line"/>
      <point x="400" y="0" type="line"/>
      <point x="400" y="35" type="line"/>
      <point x="350" y="35" type="line" smooth="yes"/>
      <point x="315" y="35"/>
      <point x="300" y="50"/>
      <point x="300" y="85" type="curve" smooth="yes"/>
      <point x="300" y="680" type="line"/>
    </contour>
  </outline>
</glyph>
<glyph name="two" format="2">
  <advance width="573"/>
  <unicode hex="0032"/>
  <outline>
    <contour>
      <point x="155" y="560" type="curve" smooth="yes"/>
      <point x="129" y="560"/>
      <point x="122" y="575"/>
      <point x="144" y="600" type="curve" smooth="yes"/>
      <point x="175" y="635"/>
      <point x="225" y="658"/>
      <point x="276" y="658" type="curve" smooth="yes"/>
      <point x="336" y="658"/>
      <point x="390" y="623"/>
      <point x="390" y="522" type="curve" smooth="yes"/>
      <point x="390" y="423"/>
      <point x="365" y="363"/>
      <point x="234" y="265" type="curve" smooth="yes"/>
      <point x="158" y="208"/>
      <point x="67" y="104"/>
      <point x="60" y="0" type="curve"/>
      <point x="93" y="0" type="line"/>
      <point x="111" y="56"/>
      <point x="145" y="77"/>
      <point x="181" y="77" type="curve" smooth="yes"/>
      <point x="254" y="77"/>
      <point x="275" y="-12"/>
      <point x="372" y="-12" type="curve" smooth="yes"/>
      <point x="491" y="-12"/>
      <point x="513" y="126"/>
      <point x="513" y="197" type="curve"/>
      <point x="480" y="197" type="line"/>
      <point x="475" y="123"/>
      <point x="443" y="86"/>
      <point x="401" y="86" type="curve" smooth="yes"/>
      <point x="340" y="86"/>
      <point x="294" y="148"/>
      <point x="232" y="159" type="curve" smooth="yes"/>
      <point x="196" y="165"/>
      <point x="183" y="177"/>
      <point x="204" y="197" type="curve" smooth="yes"/>
      <point x="244" y="235"/>
      <point x="290" y="261"/>
      <point x="337" y="287" type="curve" smooth="yes"/>
      <point x="421" y="334"/>
      <point x="504" y="408"/>
      <point x="504" y="508" type="curve" smooth="yes"/>
      <point x="504" y="618"/>
      <point x="401" y="692"/>
      <point x="287" y="692" type="curve" smooth="yes"/>
      <point x="162" y="692"/>
      <point x="71" y="596"/>
      <point x="71" y="504" type="curve" smooth="yes"/>
      <point x="71" y="444"/>
      <point x="113" y="409"/>
      <point x="155" y="409" type="curve" smooth="yes"/>
      <point x="199" y="409"/>
      <point x="231" y="440"/>
      <point x="231" y="484" type="curve" smooth="yes"/>
      <point x="231" y="526"/>
      <point x="199" y="560"/>
    </contour>
  </outline>
</glyph>
<glyph name="four" format="2">
  <advance width="546"/>
  <unicode hex="0034"/>
  <outline>
    <contour>
      <point x="380" y="171" type="line"/>
      <point x="516" y="171" type="line"/>
      <point x="516" y="208" type="line"/>
      <point x="380" y="208" type="line"/>
      <point x="380" y="500" type="line" smooth="yes"/>
      <point x="380" y="509"/>
      <point x="375.623" y="511.269"/>
      <point x="370" y="503" type="curve" smooth="yes"/>
      <point x="285" y="378" type="line"/>
      <point x="285" y="208" type="line"/>
      <point x="71" y="208" type="line"/>
      <point x="179" y="382"/>
      <point x="295" y="510"/>
      <point x="372" y="680" type="curve"/>
      <point x="215" y="680" type="line"/>
      <point x="189" y="519"/>
      <point x="129" y="378"/>
      <point x="30" y="208" type="curve"/>
      <point x="30" y="171" type="line"/>
      <point x="49" y="171" type="line"/>
      <point x="285" y="171" type="line"/>
      <point x="285" y="85" type="line" smooth="yes"/>
      <point x="285" y="50"/>
      <point x="270" y="35"/>
      <point x="235" y="35" type="curve" smooth="yes"/>
      <point x="185" y="35" type="line"/>
      <point x="185" y="0" type="line"/>
      <point x="480" y="0" type="line"/>
      <point x="480" y="35" type="line"/>
      <point x="430" y="35" type="line" smooth="yes"/>
      <point x="395" y="35"/>
      <point x="380" y="50"/>
      <point x="380" y="85" type="curve" smooth="yes"/>
    </contour>
  </outline>
</glyph>
<glyph name="five" format="2">
  <advance width="565"/>
  <unicode hex="0035"/>
  <outline>
    <contour>
      <point x="148" y="51" type="curve" smooth="yes"/>
      <point x="130" y="64"/>
      <point x="127" y="85"/>
      <point x="157" y="90" type="curve" smooth="yes"/>
      <point x="193" y="96"/>
      <point x="219" y="125"/>
      <point x="219" y="164" type="curve" smooth="yes"/>
      <point x="219" y="207"/>
      <point x="187" y="239"/>
      <point x="144" y="239" type="curve" smooth="yes"/>
      <point x="101" y="239"/>
      <point x="60" y="204"/>
      <point x="60" y="146" type="curve" smooth="yes"/>
      <point x="60" y="60"/>
      <point x="137" y="-12"/>
      <point x="259" y="-12" type="curve" smooth="yes"/>
      <point x="412" y="-12"/>
      <point x="505" y="93"/>
      <point x="505" y="212" type="curve" smooth="yes"/>
      <point x="505" y="353"/>
      <point x="385" y="426"/>
      <point x="283" y="426" type="curve" smooth="yes"/>
      <point x="226" y="426"/>
      <point x="177" y="408"/>
      <point x="143" y="391" type="curve" name=".hr01"/>
      <point x="143" y="578" type="line"/>
      <point x="279" y="557"/>
      <point x="412" y="557"/>
      <point x="455" y="664" type="curve" smooth="yes"/>
      <point x="462" y="682"/>
      <point x="457" y="683"/>
      <point x="439" y="679" type="curve" smooth="yes"/>
      <point x="360" y="660"/>
      <point x="284" y="651"/>
      <point x="108" y="685" type="curve"/>
      <point x="108" y="354" type="line" smooth="yes"/>
      <point x="108" y="334"/>
      <point x="110" y="335"/>
      <point x="124" y="344" type="curve" smooth="yes"/>
      <point x="166" y="373"/>
      <point x="208" y="392"/>
      <point x="252" y="392" type="curve" smooth="yes"/>
      <point x="366" y="392"/>
      <point x="389" y="327"/>
      <point x="389" y="212" type="curve" smooth="yes"/>
      <point x="389" y="82"/>
      <point x="342" y="22"/>
      <point x="251" y="22" type="curve" smooth="yes"/>
      <point x="208" y="22"/>
      <point x="174" y="33"/>
    </contour>
  </outline>
</glyph>
<glyph name="seven" format="2">
  <advance width="519"/>
  <unicode hex="0037"/>
  <outline>
    <contour>
      <point x="390" y="523" type="curve" smooth="yes"/>
      <point x="416" y="534"/>
      <point x="428" y="528"/>
      <point x="420" y="507" type="curve" smooth="yes"/>
      <point x="349" y="319"/>
      <point x="186" y="205"/>
      <point x="141" y="-1" type="curve"/>
      <point x="295" y="-1" type="line"/>
      <point x="295" y="266"/>
      <point x="489" y="388"/>
      <point x="489" y="692" type="curve"/>
      <point x="453" y="692" type="line"/>
      <point x="443" y="644"/>
      <point x="428" y="618"/>
      <point x="378" y="618" type="curve" smooth="yes"/>
      <point x="304" y="618"/>
      <point x="267" y="680"/>
      <point x="188" y="680" type="curve" smooth="yes"/>
      <point x="157" y="680"/>
      <point x="132" y="668"/>
      <point x="113" y="646" type="curve" smooth="yes"/>
      <point x="95" y="626"/>
      <point x="85" y="629"/>
      <point x="85" y="654" type="curve" smooth="yes"/>
      <point x="85" y="692" type="line"/>
      <point x="50" y="692" type="line"/>
      <point x="50" y="462" type="line"/>
      <point x="85" y="462" type="line"/>
      <point x="91" y="542"/>
      <point x="110" y="584"/>
      <point x="159" y="584" type="curve" smooth="yes"/>
      <point x="227" y="584"/>
      <point x="279" y="514"/>
      <point x="342" y="514" type="curve" smooth="yes"/>
      <point x="359" y="514"/>
      <point x="375" y="516"/>
    </contour>
  </outline>
</glyph>
<glyph name="greater" format="2">
  <advance width="714"/>
  <unicode hex="003E"/>
  <outline>
    <contour>
      <point x="86" y="-53" type="line"/>
      <point x="71" y="-25" type="line"/>
      <point x="620" y="270" type="line"/>
      <point x="71" y="566" type="line"/>
      <point x="86" y="593" type="line"/>
      <point x="668" y="281" type="line"/>
      <point x="668" y="260" type="line"/>
    </contour>
  </outline>
</glyph>
<glyph name="question" format="2">
  <advance width="418"/>
  <unicode hex="003F"/>
  <outline>
    <contour>
      <point x="282" y="556" type="curve" smooth="yes"/>
      <point x="282" y="641"/>
      <point x="235" y="664"/>
      <point x="191" y="664" type="curve" smooth="yes"/>
      <point x="126" y="664"/>
      <point x="93" y="634"/>
      <point x="93" y="611" type="curve" smooth="yes"/>
      <point x="93" y="588"/>
      <point x="148" y="583"/>
      <point x="148" y="537" type="curve" smooth="yes"/>
      <point x="148" y="500"/>
      <point x="119" y="476"/>
      <point x="88" y="476" type="curve" smooth="yes"/>
      <point x="46" y="476"/>
      <point x="20" y="511"/>
      <point x="20" y="557" type="curve" smooth="yes"/>
      <point x="20" y="630"/>
      <point x="101" y="692"/>
      <point x="204" y="692" type="curve" smooth="yes"/>
      <point x="310" y="692"/>
      <point x="388" y="638"/>
      <point x="388" y="546" type="curve" smooth="yes"/>
      <point x="388" y="383"/>
      <point x="193" y="380"/>
      <point x="207" y="216" type="curve"/>
      <point x="171" y="216" type="line"/>
      <point x="157" y="354"/>
      <point x="282" y="398"/>
    </contour>
    <contour>
      <point x="132" y="55" type="curve" smooth="yes"/>
      <point x="132" y="21"/>
      <point x="160" y="-7"/>
      <point x="194" y="-7" type="curve" smooth="yes"/>
      <point x="228" y="-7"/>
      <point x="256" y="21"/>
      <point x="256" y="55" type="curve" smooth="yes"/>
      <point x="256" y="89"/>
      <point x="228" y="117"/>
      <point x="194" y="117" type="curve" smooth="yes"/>
      <point x="160" y="117"/>
      <point x="132" y="89"/>
    </contour>
  </outline>
</glyph>
<glyph name="at" format="2">
  <advance width="892"/>
  <unicode hex="0040"/>
  <outline>
    <contour>
      <point x="451" y="79" type="curve"/>
      <point x="458" y="79" type="line"/>
      <point x="458" y="29"/>
      <point x="472" y="-8"/>
      <point x="528" y="-8" type="curve" smooth="yes"/>
      <point x="685" y="-8"/>
      <point x="842" y="179"/>
      <point x="842" y="327" type="curve" smooth="yes"/>
      <point x="842" y="540"/>
      <point x="704" y="680"/>
      <point x="491" y="680" type="curve" smooth="yes"/>
      <point x="227" y="680"/>
      <point x="26" y="478"/>
      <point x="26" y="209" type="curve" smooth="yes"/>
      <point x="26" y="-43"/>
      <point x="206" y="-209"/>
      <point x="453" y="-209" type="curve" smooth="yes"/>
      <point x="646" y="-209"/>
      <point x="799" y="-89"/>
      <point x="866" y="84" type="curve"/>
      <point x="849" y="84" type="line"/>
      <point x="773" y="-88"/>
      <point x="637" y="-180"/>
      <point x="454" y="-180" type="curve" smooth="yes"/>
      <point x="226" y="-180"/>
      <point x="66" y="-32"/>
      <point x="66" y="196" type="curve" smooth="yes"/>
      <point x="66" y="444"/>
      <point x="243" y="648"/>
      <point x="494" y="648" type="curve" smooth="yes"/>
      <point x="694" y="648"/>
      <point x="813" y="530"/>
      <point x="813" y="327" type="curve" smooth="yes"/>
      <point x="813" y="217"/>
      <point x="688" y="27"/>
      <point x="561" y="27" type="curve" smooth="yes"/>
      <point x="558" y="27"/>
      <point x="554" y="27"/>
      <point x="550" y="27" type="curve"/>
      <point x="534" y="31"/>
      <point x="535" y="43"/>
      <point x="535" y="56" type="curve" smooth="yes"/>
      <point x="535" y="73"/>
      <point x="545.012" y="101.996"/>
      <point x="558" y="142" type="curve" smooth="yes"/>
      <point x="658" y="450" type="line"/>
      <point x="568" y="450" type="line"/>
      <point x="547" y="384" type="line"/>
      <point x="539" y="384" type="line"/>
      <point x="530" y="432"/>
      <point x="506" y="462"/>
      <point x="456" y="462" type="curve" smooth="yes"/>
      <point x="366" y="462"/>
      <point x="263" y="369"/>
      <point x="226" y="252" type="curve" smooth="yes"/>
      <point x="216" y="221"/>
      <point x="211" y="184"/>
      <point x="211" y="148" type="curve" smooth="yes"/>
      <point x="211" y="66"/>
      <point x="239" y="-12"/>
      <point x="313" y="-12" type="curve" smooth="yes"/>
      <point x="361" y="-12"/>
      <point x="413" y="26"/>
    </contour>
    <contour>
      <point x="468" y="424" type="curve" smooth="yes"/>
      <point x="505" y="424"/>
      <point x="517" y="391"/>
      <point x="517" y="348" type="curve" smooth="yes"/>
      <point x="517" y="315"/>
      <point x="510" y="276"/>
      <point x="500" y="242" type="curve"/>
      <point x="489" y="208" type="line"/>
      <point x="460" y="127"/>
      <point x="399" y="33"/>
      <point x="328" y="33" type="curve" smooth="yes"/>
      <point x="303" y="33"/>
      <point x="293" y="55"/>
      <point x="293" y="88" type="curve" smooth="yes"/>
      <point x="293" y="128"/>
      <point x="307" y="184"/>
      <point x="325" y="240" type="curve"/>
      <point x="350" y="313"/>
      <point x="399" y="424"/>
    </contour>
  </outline>
</glyph>
<glyph name="A" format="2">
  <advance width="734"/>
  <unicode hex="0041"/>
  <anchor x="386" y="750" name="t.dieresis"/>
  <anchor x="386" y="720" name="t.asciicircum_1"/>
  <outline>
    <contour>
      <point x="266" y="35" type="line"/>
      <point x="226" y="35" type="line" smooth="yes"/>
      <point x="173" y="35"/>
      <point x="154.704" y="40.1125"/>
      <point x="178" y="101" type="curve" smooth="yes"/>
      <point x="222" y="216" type="line"/>
      <point x="470" y="216" type="line"/>
      <point x="508" y="110" type="line" smooth="yes"/>
      <point x="531" y="44"/>
      <point x="510" y="35"/>
      <point x="462" y="35" type="curve" smooth="yes"/>
      <point x="430" y="35" type="line"/>
      <point x="430" y="0" type="line"/>
      <point x="718" y="0" type="line"/>
      <point x="718" y="35" type="line"/>
      <point x="694" y="35" type="line" smooth="yes"/>
      <point x="646" y="35"/>
      <point x="636.758" y="36.9129"/>
      <point x="612" y="106" type="curve" smooth="yes"/>
      <point x="402" y="692" type="line"/>
      <point x="366" y="692" type="line"/>
      <point x="134" y="96" type="line" smooth="yes"/>
      <point x="111" y="37"/>
      <point x="96" y="35"/>
      <point x="48" y="35" type="curve" smooth="yes"/>
      <point x="16" y="35" type="line"/>
      <point x="16" y="0" type="line"/>
      <point x="266" y="0" type="line"/>
    </contour>
    <contour>
      <point x="236" y="252" type="line"/>
      <point x="352" y="556" type="line"/>
      <point x="458" y="252" type="line"/>
    </contour>
  </outline>
</glyph>
<glyph name="B" format="2">
  <advance width="642"/>
  <unicode hex="0042"/>
  <outline>
    <contour>
      <point x="443" y="363" type="curve"/>
      <point x="443" y="363"/>
      <point x="436" y="365"/>
      <point x="436" y="369" type="curve" smooth="yes"/>
      <point x="436" y="372"/>
      <point x="443" y="374"/>
      <point x="443" y="374" type="curve"/>
      <point x="518" y="396"/>
      <point x="551" y="451"/>
      <point x="551" y="514" type="curve" smooth="yes"/>
      <point x="551" y="619"/>
      <point x="471" y="680"/>
      <point x="319" y="680" type="curve" smooth="yes"/>
      <point x="48" y="680" type="line"/>
      <point x="48" y="645" type="line"/>
      <point x="88" y="645" type="line" smooth="yes"/>
      <point x="133" y="645"/>
      <point x="138" y="640"/>
      <point x="138" y="595" type="curve" smooth="yes"/>
      <point x="138" y="85" type="line" smooth="yes"/>
      <point x="138" y="40"/>
      <point x="133" y="35"/>
      <point x="88" y="35" type="curve" smooth="yes"/>
      <point x="48" y="35" type="line"/>
      <point x="48" y="0" type="line"/>
      <point x="329" y="0" type="line" smooth="yes"/>
      <point x="491" y="0"/>
      <point x="595" y="65"/>
      <point x="595" y="190" type="curve" smooth="yes"/>
      <point x="595" y="276"/>
      <point x="535" y="343"/>
    </contour>
    <contour>
      <point x="309" y="384" type="curve" smooth="yes"/>
      <point x="233" y="384" type="line"/>
      <point x="233" y="604" type="line" smooth="yes"/>
      <point x="233" y="636"/>
      <point x="281" y="644"/>
      <point x="302" y="644" type="curve" smooth="yes"/>
      <point x="309" y="644" type="line" smooth="yes"/>
      <point x="389" y="644"/>
      <point x="445" y="609"/>
      <point x="445" y="514" type="curve" smooth="yes"/>
      <point x="445" y="419"/>
      <point x="389" y="384"/>
    </contour>
    <contour>
      <point x="307" y="36" type="line" smooth="yes"/>
      <point x="286" y="36"/>
      <point x="233" y="44"/>
      <point x="233" y="76" type="curve" smooth="yes"/>
      <point x="233" y="347" type="line"/>
      <point x="319" y="347" type="line" smooth="yes"/>
      <point x="419" y="347"/>
      <point x="485" y="300"/>
      <point x="485" y="190" type="curve" smooth="yes"/>
      <point x="485" y="80"/>
      <point x="419" y="36"/>
      <point x="319" y="36" type="curve" smooth="yes"/>
    </contour>
  </outline>
</glyph>
<glyph name="C" format="2">
  <advance width="611"/>
  <unicode hex="0043"/>
  <anchor x="330" y="730" name="t.asciicircum_1"/>
  <anchor x="330" y="750" name="t.dieresis"/>
  <outline>
    <contour>
      <point x="564" y="208" type="curve"/>
      <point x="527" y="214" type="line"/>
      <point x="510" y="102"/>
      <point x="435" y="30"/>
      <point x="335" y="30" type="curve" smooth="yes"/>
      <point x="248" y="30"/>
      <point x="164" y="90"/>
      <point x="164" y="340" type="curve" smooth="yes"/>
      <point x="164" y="590"/>
      <point x="242" y="656"/>
      <point x="330" y="656" type="curve" smooth="yes"/>
      <point x="408" y="656"/>
      <point x="490" y="609"/>
      <point x="517" y="436" type="curve"/>
      <point x="557" y="436" type="line"/>
      <point x="557" y="692" type="line"/>
      <point x="522" y="692" type="line"/>
      <point x="514" y="678" type="line" smooth="yes"/>
      <point x="494" y="644"/>
      <point x="482" y="641"/>
      <point x="438" y="664" type="curve" smooth="yes"/>
      <point x="411" y="678"/>
      <point x="383" y="692"/>
      <point x="330" y="692" type="curve" smooth="yes"/>
      <point x="153" y="692"/>
      <point x="47" y="535"/>
      <point x="47" y="340" type="curve" smooth="yes"/>
      <point x="47" y="121"/>
      <point x="170" y="-12"/>
      <point x="330" y="-12" type="curve" smooth="yes"/>
      <point x="445" y="-12"/>
      <point x="544" y="63"/>
    </contour>
  </outline>
</glyph>
<glyph name="D" format="2">
  <advance width="673"/>
  <unicode hex="0044"/>
  <outline>
    <contour>
      <point x="47" y="680" type="line"/>
      <point x="47" y="645" type="line"/>
      <point x="87" y="645" type="line" smooth="yes"/>
      <point x="132" y="645"/>
      <point x="137" y="640"/>
      <point x="137" y="595" type="curve" smooth="yes"/>
      <point x="137" y="85" type="line" smooth="yes"/>
      <point x="137" y="40"/>
      <point x="132" y="35"/>
      <point x="87" y="35" type="curve" smooth="yes"/>
      <point x="47" y="35" type="line"/>
      <point x="47" y="0" type="line"/>
      <point x="318" y="0" type="line" smooth="yes"/>
      <point x="533" y="0"/>
      <point x="627" y="160"/>
      <point x="627" y="340" type="curve" smooth="yes"/>
      <point x="627" y="520"/>
      <point x="533" y="680"/>
      <point x="318" y="680" type="curve" smooth="yes"/>
    </contour>
    <contour>
      <point x="308" y="36" type="curve" smooth="yes"/>
      <point x="301" y="36" type="line" smooth="yes"/>
      <point x="280" y="36"/>
      <point x="232" y="44"/>
      <point x="232" y="76" type="curve" smooth="yes"/>
      <point x="232" y="604" type="line" smooth="yes"/>
      <point x="232" y="636"/>
      <point x="281" y="644"/>
      <point x="301" y="644" type="curve" smooth="yes"/>
      <point x="308" y="644" type="line" smooth="yes"/>
      <point x="448" y="644"/>
      <point x="512" y="560"/>
      <point x="512" y="340" type="curve" smooth="yes"/>
      <point x="512" y="120"/>
      <point x="448" y="36"/>
    </contour>
  </outline>
</glyph>
<glyph name="F" format="2">
  <advance width="613"/>
  <unicode hex="0046"/>
  <outline>
    <contour>
      <point x="360" y="644" type="line" smooth="yes"/>
      <point x="480" y="644"/>
      <point x="519" y="576"/>
      <point x="546" y="449" type="curve"/>
      <point x="576" y="449" type="line"/>
      <point x="571" y="680" type="line"/>
      <point x="47" y="680" type="line"/>
      <point x="47" y="645" type="line"/>
      <point x="87" y="645" type="line" smooth="yes"/>
      <point x="132" y="645"/>
      <point x="137" y="640"/>
      <point x="137" y="595" type="curve" smooth="yes"/>
      <point x="137" y="85" type="line" smooth="yes"/>
      <point x="137" y="40"/>
      <point x="132" y="35"/>
      <point x="87" y="35" type="curve" smooth="yes"/>
      <point x="47" y="35" type="line"/>
      <point x="47" y="0" type="line"/>
      <point x="342" y="0" type="line"/>
      <point x="342" y="35" type="line"/>
      <point x="282" y="35" type="line" smooth="yes"/>
      <point x="237" y="35"/>
      <point x="232" y="40"/>
      <point x="232" y="85" type="curve" smooth="yes"/>
      <point x="232" y="326" type="line"/>
      <point x="295" y="326" type="line" smooth="yes"/>
      <point x="351" y="326"/>
      <point x="386" y="270"/>
      <point x="394" y="180" type="curve"/>
      <point x="429" y="180" type="line"/>
      <point x="429" y="507" type="line"/>
      <point x="394" y="507" type="line"/>
      <point x="386" y="417"/>
      <point x="355" y="362"/>
      <point x="295" y="362" type="curve" smooth="yes"/>
      <point x="232" y="362" type="line"/>
      <point x="232" y="604" type="line" smooth="yes"/>
      <point x="232" y="628"/>
      <point x="267" y="644"/>
      <point x="297" y="644" type="curve" smooth="yes"/>
    </contour>
  </outline>
</glyph>
<glyph name="J" format="2">
  <advance width="463"/>
  <unicode hex="004A"/>
  <anchor x="296" y="730" name="t.asciicircum_1"/>
  <outline>
    <contour>
      <point x="346" y="595" type="line" smooth="yes"/>
      <point x="346" y="640"/>
      <point x="351" y="645"/>
      <point x="396" y="645" type="curve" smooth="yes"/>
      <point x="436" y="645" type="line"/>
      <point x="436" y="680" type="line"/>
      <point x="160" y="680" type="line"/>
      <point x="160" y="645" type="line"/>
      <point x="200" y="645" type="line" smooth="yes"/>
      <point x="245" y="645"/>
      <point x="250" y="640"/>
      <point x="250" y="595" type="curve" smooth="yes"/>
      <point x="250" y="50" type="line" smooth="yes"/>
      <point x="250" y="-18"/>
      <point x="220" y="-47"/>
      <point x="176" y="-47" type="curve" smooth="yes"/>
      <point x="126" y="-47"/>
      <point x="105" y="-18"/>
      <point x="105" y="-2" type="curve" smooth="yes"/>
      <point x="105" y="21"/>
      <point x="144" y="28" name=".hr01"/>
      <point x="144" y="70" type="curve" smooth="yes"/>
      <point x="144" y="104"/>
      <point x="118" y="126"/>
      <point x="90" y="126" type="curve" smooth="yes"/>
      <point x="52" y="126"/>
      <point x="28" y="94"/>
      <point x="28" y="52" type="curve" smooth="yes"/>
      <point x="28" y="-15"/>
      <point x="110" y="-78"/>
      <point x="179" y="-78" type="curve" smooth="yes"/>
      <point x="288" y="-78"/>
      <point x="346" y="6"/>
      <point x="346" y="104" type="curve" smooth="yes"/>
    </contour>
  </outline>
</glyph>
<glyph name="M" format="2">
  <advance width="817"/>
  <unicode hex="004D"/>
  <outline>
    <contour>
      <point x="189" y="85" type="curve" smooth="yes"/>
      <point x="189" y="549" type="line" smooth="yes"/>
      <point x="189" y="598"/>
      <point x="207" y="607"/>
      <point x="225" y="550" type="curve" smooth="yes"/>
      <point x="274" y="389" type="line" smooth="yes"/>
      <point x="318" y="246"/>
      <point x="369" y="45"/>
      <point x="376" y="15" type="curve"/>
      <point x="397" y="15" type="line"/>
      <point x="403" y="36"/>
      <point x="458" y="226"/>
      <point x="507" y="368" type="curve" smooth="yes"/>
      <point x="563" y="530" type="line" smooth="yes"/>
      <point x="572" y="556"/>
      <point x="585" y="538"/>
      <point x="585" y="528" type="curve" smooth="yes"/>
      <point x="585" y="85" type="line" smooth="yes"/>
      <point x="585" y="40"/>
      <point x="580" y="35"/>
      <point x="535" y="35" type="curve" smooth="yes"/>
      <point x="495" y="35" type="line"/>
      <point x="495" y="0" type="line"/>
      <point x="770" y="0" type="line"/>
      <point x="770" y="35" type="line"/>
      <point x="730" y="35" type="line" smooth="yes"/>
      <point x="685" y="35"/>
      <point x="680" y="40"/>
      <point x="680" y="85" type="curve" smooth="yes"/>
      <point x="680" y="595" type="line" smooth="yes"/>
      <point x="680" y="640"/>
      <point x="685" y="645"/>
      <point x="730" y="645" type="curve" smooth="yes"/>
      <point x="770" y="645" type="line"/>
      <point x="770" y="680" type="line"/>
      <point x="573" y="680" type="line"/>
      <point x="422" y="246" type="line"/>
      <point x="286" y="680" type="line"/>
      <point x="47" y="680" type="line"/>
      <point x="47" y="645" type="line"/>
      <point x="73" y="645" type="line" smooth="yes"/>
      <point x="129" y="645"/>
      <point x="147" y="639"/>
      <point x="147" y="568" type="curve" smooth="yes"/>
      <point x="147" y="85" type="line" smooth="yes"/>
      <point x="147" y="40"/>
      <point x="142" y="35"/>
      <point x="97" y="35" type="curve" smooth="yes"/>
      <point x="47" y="35" type="line"/>
      <point x="47" y="0" type="line"/>
      <point x="289" y="0" type="line"/>
      <point x="289" y="35" type="line"/>
      <point x="239" y="35" type="line" smooth="yes"/>
      <point x="194" y="35"/>
      <point x="189" y="40"/>
    </contour>
  </outline>
</glyph>
<glyph name="P" format="2">
  <advance width="600"/>
  <unicode hex="0050"/>
  <outline>
    <contour>
      <point x="232" y="85" type="curve" smooth="yes"/>
      <point x="232" y="327" type="line"/>
      <point x="318" y="327" type="line" smooth="yes"/>
      <point x="473" y="327"/>
      <point x="554" y="394"/>
      <point x="554" y="504" type="curve" smooth="yes"/>
      <point x="554" y="614"/>
      <point x="473" y="680"/>
      <point x="318" y="680" type="curve" smooth="yes"/>
      <point x="47" y="680" type="line"/>
      <point x="47" y="645" type="line"/>
      <point x="87" y="645" type="line" smooth="yes"/>
      <point x="132" y="645"/>
      <point x="137" y="640"/>
      <point x="137" y="595" type="curve" smooth="yes"/>
      <point x="137" y="85" type="line" smooth="yes"/>
      <point x="137" y="40"/>
      <point x="132" y="35"/>
      <point x="87" y="35" type="curve" smooth="yes"/>
      <point x="47" y="35" type="line"/>
      <point x="47" y="0" type="line"/>
      <point x="342" y="0" type="line"/>
      <point x="342" y="35" type="line"/>
      <point x="282" y="35" type="line" smooth="yes"/>
      <point x="237" y="35"/>
      <point x="232" y="40"/>
    </contour>
    <contour>
      <point x="232" y="364" type="line"/>
      <point x="232" y="604" type="line" smooth="yes"/>
      <point x="232" y="636"/>
      <point x="280" y="644"/>
      <point x="301" y="644" type="curve" smooth="yes"/>
      <point x="308" y="644" type="line" smooth="yes"/>
      <point x="383" y="644"/>
      <point x="439" y="604"/>
      <point x="439" y="504" type="curve" smooth="yes"/>
      <point x="439" y="404"/>
      <point x="383" y="364"/>
      <point x="308" y="364" type="curve" smooth="yes"/>
    </contour>
  </outline>
</glyph>
<glyph name="R" format="2">
  <advance width="698"/>
  <unicode hex="0052"/>
  <outline>
    <contour>
      <point x="232" y="85" type="curve" smooth="yes"/>
      <point x="232" y="347" type="line"/>
      <point x="312" y="347" type="line" smooth="yes"/>
      <point x="392" y="347"/>
      <point x="430" y="262"/>
      <point x="434" y="176" type="curve" smooth="yes"/>
      <point x="440" y="52"/>
      <point x="475" y="-12"/>
      <point x="564" y="-12" type="curve" smooth="yes"/>
      <point x="640" y="-12"/>
      <point x="680" y="46"/>
      <point x="680" y="132" type="curve" smooth="yes"/>
      <point x="680" y="145"/>
      <point x="679" y="158"/>
      <point x="677" y="172" type="curve"/>
      <point x="647" y="172" type="line"/>
      <point x="647" y="114"/>
      <point x="636" y="54"/>
      <point x="601" y="54" type="curve" smooth="yes"/>
      <point x="559" y="54"/>
      <point x="548" y="127"/>
      <point x="543" y="172" type="curve" smooth="yes"/>
      <point x="534" y="255"/>
      <point x="490" y="335"/>
      <point x="417" y="355" type="curve"/>
      <point x="417" y="355"/>
      <point x="411" y="356"/>
      <point x="411" y="360" type="curve" smooth="yes"/>
      <point x="411" y="365"/>
      <point x="417" y="365"/>
      <point x="417" y="365" type="curve"/>
      <point x="510" y="377"/>
      <point x="554" y="439"/>
      <point x="554" y="514" type="curve" smooth="yes"/>
      <point x="554" y="619"/>
      <point x="473" y="680"/>
      <point x="318" y="680" type="curve" smooth="yes"/>
      <point x="47" y="680" type="line"/>
      <point x="47" y="645" type="line"/>
      <point x="87" y="645" type="line" smooth="yes"/>
      <point x="132" y="645"/>
      <point x="137" y="640"/>
      <point x="137" y="595" type="curve" smooth="yes"/>
      <point x="137" y="85" type="line" smooth="yes"/>
      <point x="137" y="40"/>
      <point x="132" y="35"/>
      <point x="87" y="35" type="curve" smooth="yes"/>
      <point x="47" y="35" type="line"/>
      <point x="47" y="0" type="line"/>
      <point x="332" y="0" type="line"/>
      <point x="332" y="35" type="line"/>
      <point x="282" y="35" type="line" smooth="yes"/>
      <point x="237" y="35"/>
      <point x="232" y="40"/>
    </contour>
    <contour>
      <point x="308" y="384" type="curve" smooth="yes"/>
      <point x="232" y="384" type="line"/>
      <point x="232" y="604" type="line" smooth="yes"/>
      <point x="232" y="636"/>
      <point x="280" y="644"/>
      <point x="301" y="644" type="curve" smooth="yes"/>
      <point x="308" y="644" type="line" smooth="yes"/>
      <point x="388" y="644"/>
      <point x="449" y="609"/>
      <point x="449" y="514" type="curve" smooth="yes"/>
      <point x="449" y="419"/>
      <point x="388" y="384"/>
    </contour>
  </outline>
</glyph>
<glyph name="U" format="2">
  <advance width="692"/>
  <unicode hex="0055"/>
  <anchor x="366" y="750" name="t.dieresis"/>
  <anchor x="366" y="730" name="t.asciicircum_1"/>
  <outline>
    <contour>
      <point x="565" y="595" type="line"/>
      <point x="565" y="640"/>
      <point x="570" y="645"/>
      <point x="615" y="645" type="curve" smooth="yes"/>
      <point x="665" y="645" type="line"/>
      <point x="665" y="680" type="line"/>
      <point x="424" y="680" type="line"/>
      <point x="424" y="645" type="line"/>
      <point x="474" y="645" type="line" smooth="yes"/>
      <point x="519" y="645"/>
      <point x="524" y="640"/>
      <point x="524" y="595" type="curve" smooth="yes"/>
      <point x="524" y="274" type="line" smooth="yes"/>
      <point x="524" y="154"/>
      <point x="496" y="31"/>
      <point x="360" y="31" type="curve" smooth="yes"/>
      <point x="244" y="31"/>
      <point x="223" y="128"/>
      <point x="223" y="288" type="curve" smooth="yes"/>
      <point x="223" y="595" type="line" smooth="yes"/>
      <point x="223" y="640"/>
      <point x="228" y="645"/>
      <point x="273" y="645" type="curve" smooth="yes"/>
      <point x="313" y="645" type="line"/>
      <point x="313" y="680" type="line"/>
      <point x="28" y="680" type="line"/>
      <point x="28" y="645" type="line"/>
      <point x="68" y="645" type="line" smooth="yes"/>
      <point x="113" y="645"/>
      <point x="118" y="640"/>
      <point x="118" y="595" type="curve" smooth="yes"/>
      <point x="118" y="269" type="line" smooth="yes"/>
      <point x="118" y="69"/>
      <point x="198" y="-12"/>
      <point x="338" y="-12" type="curve" smooth="yes"/>
      <point x="525" y="-12"/>
      <point x="564" y="118"/>
      <point x="564" y="257" type="curve"/>
    </contour>
  </outline>
</glyph>
<glyph name="V" format="2">
  <advance width="732"/>
  <unicode hex="0056"/>
  <anchor x="426" y="750" name="t.dieresis"/>
  <anchor x="426" y="720" name="t.asciicircum_1"/>
  <outline>
    <contour>
      <point x="386" y="134" type="line"/>
      <point x="556" y="579" type="line" smooth="yes"/>
      <point x="580" y="641"/>
      <point x="561" y="645"/>
      <point x="508" y="645" type="curve" smooth="yes"/>
      <point x="466" y="645" type="line"/>
      <point x="466" y="680" type="line"/>
      <point x="716" y="680" type="line"/>
      <point x="716" y="645" type="line"/>
      <point x="684" y="645" type="line" smooth="yes"/>
      <point x="636" y="645"/>
      <point x="622.971" y="643.011"/>
      <point x="600" y="584" type="curve" smooth="yes"/>
      <point x="368" y="-12" type="line"/>
      <point x="330" y="-12" type="line"/>
      <point x="122" y="574" type="line" smooth="yes"/>
      <point x="97" y="643"/>
      <point x="88" y="645"/>
      <point x="40" y="645" type="curve" smooth="yes"/>
      <point x="16" y="645" type="line"/>
      <point x="16" y="680" type="line"/>
      <point x="304" y="680" type="line"/>
      <point x="304" y="645" type="line"/>
      <point x="270" y="645" type="line" smooth="yes"/>
      <point x="222" y="645"/>
      <point x="209" y="636"/>
      <point x="232" y="570" type="curve" smooth="yes"/>
    </contour>
  </outline>
</glyph>
<glyph name="bracketleft" format="2">
  <advance width="288"/>
  <unicode hex="005B"/>
  <outline>
    <contour>
      <point x="110" y="656" type="line" smooth="yes"/>
      <point x="110" y="691"/>
      <point x="125" y="705"/>
      <point x="160" y="705" type="curve" smooth="yes"/>
      <point x="253" y="705" type="line"/>
      <point x="253" y="740" type="line"/>
      <point x="40" y="740" type="line"/>
      <point x="40" y="-179" type="line"/>
      <point x="253" y="-179" type="line"/>
      <point x="253" y="-144" type="line"/>
      <point x="160" y="-144" type="line" smooth="yes"/>
      <point x="125" y="-144"/>
      <point x="110" y="-130"/>
      <point x="110" y="-95" type="curve" smooth="yes"/>
    </contour>
  </outline>
</glyph>
<glyph name="backslash" format="2">
  <advance width="354"/>
  <unicode hex="005C"/>
  <outline>
    <contour>
      <point x="51" y="692" type="line"/>
      <point x="4" y="692" type="line"/>
      <point x="278" y="0" type="line"/>
      <point x="325" y="0" type="line"/>
    </contour>
  </outline>
</glyph>
<glyph name="bracketright" format="2">
  <advance width="288"/>
  <unicode hex="005D"/>
  <outline>
    <contour>
      <point x="183" y="-95" type="line" smooth="yes"/>
      <point x="183" y="-130"/>
      <point x="168" y="-144"/>
      <point x="133" y="-144" type="curve" smooth="yes"/>
      <point x="40" y="-144" type="line"/>
      <point x="40" y="-179" type="line"/>
      <point x="253" y="-179" type="line"/>
      <point x="253" y="740" type="line"/>
      <point x="40" y="740" type="line"/>
      <point x="40" y="705" type="line"/>
      <point x="133" y="705" type="line" smooth="yes"/>
      <point x="168" y="705"/>
      <point x="183" y="691"/>
      <point x="183" y="656" type="curve" smooth="yes"/>
    </contour>
  </outline>
</glyph>
<glyph name="a" format="2">
  <advance width="580"/>
  <unicode hex="0061"/>
  <anchor x="310" y="516" name="t.asciicircum_1"/>
  <anchor x="310" y="537" name="t.dieresis"/>
  <outline>
    <contour>
      <point x="215.678" y="25.3692" type="line"/>
      <point x="183.732" y="25.3692" type="line" smooth="yes"/>
      <point x="141.45" y="25.3692"/>
      <point x="126.416" y="28.188"/>
      <point x="145.208" y="72.3492" type="curve" smooth="yes"/>
      <point x="180.913" y="156.913" type="line"/>
      <point x="368.833" y="156.913" type="line"/>
      <point x="399.84" y="79.866" type="line" smooth="yes"/>
      <point x="419.572" y="31.9464"/>
      <point x="405.478" y="25.3692"/>
      <point x="366.954" y="25.3692" type="curve" smooth="yes"/>
      <point x="340.645" y="25.3692" type="line"/>
      <point x="340.645" y="0" type="line"/>
      <point x="576.485" y="0" type="line"/>
      <point x="576.485" y="25.3692" type="line"/>
      <point x="558.632" y="25.3692" type="line" smooth="yes"/>
      <point x="519.169" y="25.3692"/>
      <point x="511.652" y="26.3088"/>
      <point x="491.921" y="76.1076" type="curve" smooth="yes"/>
      <point x="324.672" y="498.928" type="line"/>
      <point x="295.544" y="498.928" type="line"/>
      <point x="109.504" y="69.5304" type="line" smooth="yes"/>
      <point x="90.7116" y="26.3088"/>
      <point x="80.376" y="25.3692"/>
      <point x="41.8524" y="25.3692" type="curve" smooth="yes"/>
      <point x="15.5436" y="25.3692" type="line"/>
      <point x="15.5436" y="0" type="line"/>
      <point x="215.678" y="0" type="line"/>
    </contour>
    <contour>
      <point x="192.188" y="182.282" type="line"/>
      <point x="279.571" y="390.874" type="line"/>
      <point x="358.498" y="182.282" type="line"/>
    </contour>
  </outline>
</glyph>
<glyph name="b" format="2">
  <advance width="524"/>
  <unicode hex="0062"/>
  <outline>
    <contour>
      <point x="25" y="499" type="line"/>
      <point x="25" y="473" type="line"/>
      <point x="57" y="473" type="line" smooth="yes"/>
      <point x="94" y="473"/>
      <point x="99" y="470"/>
      <point x="99" y="437" type="curve" smooth="yes"/>
      <point x="99" y="62" type="line" smooth="yes"/>
      <point x="99" y="30"/>
      <point x="94" y="26"/>
      <point x="57" y="26" type="curve" smooth="yes"/>
      <point x="25" y="26" type="line"/>
      <point x="25" y="0" type="line"/>
      <point x="264" y="0" type="line" smooth="yes"/>
      <point x="403" y="0"/>
      <point x="491" y="49"/>
      <point x="491" y="141" type="curve" smooth="yes"/>
      <point x="491" y="202"/>
      <point x="440" y="255"/>
      <point x="351" y="266" type="curve"/>
      <point x="351" y="276" type="line"/>
      <point x="428" y="291"/>
      <point x="454" y="333" name="hr01"/>
      <point x="454" y="377" type="curve" smooth="yes"/>
      <point x="454" y="454"/>
      <point x="387" y="499"/>
      <point x="255" y="499" type="curve" smooth="yes"/>
    </contour>
    <contour>
      <point x="247" y="27" type="line" smooth="yes"/>
      <point x="230" y="27"/>
      <point x="186" y="32"/>
      <point x="186" y="56" type="curve" smooth="yes"/>
      <point x="186" y="255" type="line"/>
      <point x="255" y="255" type="line" smooth="yes"/>
      <point x="337" y="255"/>
      <point x="390" y="221" name="hr02"/>
      <point x="390" y="141" type="curve" smooth="yes"/>
      <point x="390" y="58"/>
      <point x="337" y="27"/>
      <point x="255" y="27" type="curve" smooth="yes"/>
    </contour>
    <contour>
      <point x="248" y="281" type="curve" smooth="yes"/>
      <point x="186" y="281" type="line"/>
      <point x="186" y="444" type="line" smooth="yes"/>
      <point x="186" y="467"/>
      <point x="225" y="472"/>
      <point x="242" y="472" type="curve" smooth="yes"/>
      <point x="248" y="472" type="line" smooth="yes"/>
      <point x="311" y="472"/>
      <point x="353" y="447" name="hr03"/>
      <point x="353" y="377" type="curve" smooth="yes"/>
      <point x="353" y="307"/>
      <point x="311" y="281"/>
    </contour>
  </outline>
</glyph>
<glyph name="c" format="2">
  <advance width="491"/>
  <unicode hex="0063"/>
  <anchor x="265" y="537" name="t.asciicircum_1"/>
  <anchor x="265" y="551" name="t.dieresis"/>
  <outline>
    <contour>
      <point x="458.063" y="157.489" type="curve"/>
      <point x="427.334" y="157.489" type="line"/>
      <point x="412.929" y="74.9034"/>
      <point x="351.47" y="22.0869"/>
      <point x="269.844" y="22.0869" type="curve" smooth="yes"/>
      <point x="197.822" y="22.0869"/>
      <point x="141.164" y="66.2607"/>
      <point x="141.164" y="249.678" type="curve" smooth="yes"/>
      <point x="141.164" y="434.056"/>
      <point x="193.02" y="482.071"/>
      <point x="265.043" y="482.071" type="curve" smooth="yes"/>
      <point x="329.383" y="482.071"/>
      <point x="396.604" y="447.5"/>
      <point x="419.651" y="320.74" type="curve"/>
      <point x="452.301" y="320.74" type="line"/>
      <point x="452.301" y="507.999" type="line"/>
      <point x="422.532" y="507.999" type="line"/>
      <point x="416.77" y="497.435" type="line" smooth="yes"/>
      <point x="400.445" y="472.468"/>
      <point x="389.882" y="471.507"/>
      <point x="353.39" y="487.832" type="curve" smooth="yes"/>
      <point x="332.264" y="497.435"/>
      <point x="308.256" y="507.999"/>
      <point x="265.043" y="507.999" type="curve" smooth="yes"/>
      <point x="120.038" y="507.999"/>
      <point x="32.6502" y="393.723"/>
      <point x="32.6502" y="249.678" type="curve" smooth="yes"/>
      <point x="32.6502" y="89.3079"/>
      <point x="134.442" y="-8.6427"/>
      <point x="265.043" y="-8.6427" type="curve" smooth="yes"/>
      <point x="359.152" y="-8.6427"/>
      <point x="443.659" y="46.0944"/>
    </contour>
  </outline>
</glyph>
<glyph name="d" format="2">
  <advance width="549"/>
  <unicode hex="0064"/>
  <outline>
    <contour>
      <point x="24.7925" y="498.542" type="line"/>
      <point x="24.7925" y="467.275" type="line"/>
      <point x="59.85" y="467.275" type="line" smooth="yes"/>
      <point x="93.0125" y="467.275"/>
      <point x="97.75" y="464.432"/>
      <point x="97.75" y="434.112" type="curve" smooth="yes"/>
      <point x="97.75" y="64.5875" type="line" smooth="yes"/>
      <point x="97.75" y="35.215"/>
      <point x="93.0125" y="31.425"/>
      <point x="59.85" y="31.425" type="curve" smooth="yes"/>
      <point x="24.7925" y="31.425" type="line"/>
      <point x="24.7925" y="0.1575" type="line"/>
      <point x="255.035" y="0.1575" type="line" smooth="yes"/>
      <point x="435.06" y="0.1575"/>
      <point x="516.545" y="116.7"/>
      <point x="516.545" y="249.35" type="curve" smooth="yes"/>
      <point x="516.545" y="382"/>
      <point x="435.06" y="498.542"/>
      <point x="255.035" y="498.542" type="curve" smooth="yes"/>
    </contour>
    <contour>
      <point x="246.507" y="32.3725" type="curve" smooth="yes"/>
      <point x="240.822" y="32.3725" type="line" smooth="yes"/>
      <point x="224.715" y="32.3725"/>
      <point x="188.71" y="37.11"/>
      <point x="188.71" y="58.9025" type="curve" smooth="yes"/>
      <point x="188.71" y="440.745" type="line" smooth="yes"/>
      <point x="188.71" y="461.59"/>
      <point x="225.662" y="466.327"/>
      <point x="240.822" y="466.327" type="curve" smooth="yes"/>
      <point x="246.507" y="466.327" type="line" smooth="yes"/>
      <point x="358.312" y="466.327"/>
      <point x="405.687" y="406.635"/>
      <point x="405.687" y="249.35" type="curve" smooth="yes"/>
      <point x="405.687" y="92.065"/>
      <point x="358.312" y="32.3725"/>
    </contour>
  </outline>
</glyph>
<glyph name="e" format="2">
  <advance width="522"/>
  <unicode hex="0065"/>
  <anchor x="278" y="551" name="t.dieresis"/>
  <anchor x="278" y="537" name="t.asciicircum_1"/>
  <outline>
    <contour>
      <point x="24.7925" y="498.542" type="line"/>
      <point x="24.7925" y="467.275" type="line"/>
      <point x="59.85" y="467.275" type="line" smooth="yes"/>
      <point x="93.0125" y="467.275"/>
      <point x="97.75" y="464.432"/>
      <point x="97.75" y="434.112" type="curve" smooth="yes"/>
      <point x="97.75" y="64.5875" type="line" smooth="yes"/>
      <point x="97.75" y="35.215"/>
      <point x="93.0125" y="31.425"/>
      <point x="59.85" y="31.425" type="curve" smooth="yes"/>
      <point x="24.7925" y="31.425" type="line"/>
      <point x="24.7925" y="0.1575" type="line"/>
      <point x="476.75" y="0.1575" type="line"/>
      <point x="480.54" y="208.607" type="line"/>
      <point x="451.167" y="208.607" type="line"/>
      <point x="433.165" y="121.437"/>
      <point x="418.005" y="32.3725"/>
      <point x="287.25" y="32.3725" type="curve" smooth="yes"/>
      <point x="226.61" y="32.3725" type="line" smooth="yes"/>
      <point x="207.66" y="32.3725"/>
      <point x="188.71" y="44.69"/>
      <point x="188.71" y="59.85" type="curve" smooth="yes"/>
      <point x="188.71" y="237.032" type="line"/>
      <point x="237.032" y="237.032" type="line" smooth="yes"/>
      <point x="279.67" y="237.032"/>
      <point x="307.147" y="192.5"/>
      <point x="313.78" y="127.122" type="curve"/>
      <point x="347.89" y="127.122" type="line"/>
      <point x="347.89" y="377.262" type="line"/>
      <point x="313.78" y="377.262" type="line"/>
      <point x="307.147" y="311.885"/>
      <point x="283.46" y="268.3"/>
      <point x="237.032" y="268.3" type="curve" smooth="yes"/>
      <point x="188.71" y="268.3" type="line"/>
      <point x="188.71" y="440.745" type="line"/>
      <point x="189.657" y="456.852"/>
      <point x="215.24" y="466.327"/>
      <point x="237.98" y="466.327" type="curve" smooth="yes"/>
      <point x="289.145" y="466.327" type="line" smooth="yes"/>
      <point x="372.525" y="466.327"/>
      <point x="415.162" y="414.215"/>
      <point x="437.902" y="322.307" type="curve"/>
      <point x="467.275" y="322.307" type="line"/>
      <point x="462.537" y="498.542" type="line"/>
    </contour>
  </outline>
</glyph>
<glyph name="g" format="2">
  <advance width="552"/>
  <unicode hex="0067"/>
  <anchor x="265" y="541" name="t.asciicircum_1"/>
  <anchor x="265" y="555" name="t.dieresis"/>
  <outline>
    <contour>
      <point x="462.865" y="200.703" type="line" smooth="yes"/>
      <point x="462.865" y="233.353"/>
      <point x="466.706" y="238.154"/>
      <point x="503.197" y="238.154" type="curve" smooth="yes"/>
      <point x="535.847" y="238.154" type="line"/>
      <point x="535.847" y="263.122" type="line"/>
      <point x="303.455" y="263.122" type="line"/>
      <point x="303.455" y="238.154" type="line"/>
      <point x="336.105" y="238.154" type="line" smooth="yes"/>
      <point x="372.596" y="238.154"/>
      <point x="376.438" y="233.353"/>
      <point x="376.438" y="200.703" type="curve" smooth="yes"/>
      <point x="376.438" y="138.283" type="line" smooth="yes"/>
      <point x="376.438" y="54.7371"/>
      <point x="322.661" y="20.1663"/>
      <point x="272.725" y="20.1663" type="curve" smooth="yes"/>
      <point x="194.941" y="20.1663"/>
      <point x="141.164" y="66.2607"/>
      <point x="141.164" y="249.678" type="curve" smooth="yes"/>
      <point x="141.164" y="434.056"/>
      <point x="192.06" y="482.071"/>
      <point x="265.043" y="482.071" type="curve" smooth="yes"/>
      <point x="329.383" y="482.071"/>
      <point x="396.604" y="447.5"/>
      <point x="419.651" y="320.74" type="curve"/>
      <point x="452.301" y="320.74" type="line"/>
      <point x="452.301" y="507.999" type="line"/>
      <point x="422.532" y="507.999" type="line"/>
      <point x="416.77" y="497.435" type="line"/>
      <point x="393.723" y="469.587"/>
      <point x="389.882" y="471.507"/>
      <point x="353.39" y="487.832" type="curve" smooth="yes"/>
      <point x="332.264" y="498.396"/>
      <point x="308.256" y="507.999"/>
      <point x="265.043" y="507.999" type="curve" smooth="yes"/>
      <point x="118.117" y="507.999"/>
      <point x="32.6502" y="393.723"/>
      <point x="32.6502" y="249.678" type="curve" smooth="yes"/>
      <point x="32.6502" y="107.554"/>
      <point x="120.038" y="-8.6427"/>
      <point x="257.36" y="-8.6427" type="curve" smooth="yes"/>
      <point x="298.653" y="-8.6427"/>
      <point x="336.105" y="2.8809"/>
      <point x="367.795" y="26.8884" type="curve"/>
      <point x="394.683" y="47.0547"/>
      <point x="408.128" y="54.7371"/>
      <point x="431.175" y="4.8015" type="curve" smooth="yes"/>
      <point x="436.937" y="-8.6427" type="line"/>
      <point x="462.865" y="-8.6427" type="line"/>
    </contour>
  </outline>
</glyph>
<glyph name="i" format="2">
  <advance width="339"/>
  <unicode hex="0069"/>
  <outline>
    <contour>
      <point x="217.135" y="434.112" type="line" smooth="yes"/>
      <point x="217.135" y="464.432"/>
      <point x="221.872" y="467.275"/>
      <point x="255.035" y="467.275" type="curve" smooth="yes"/>
      <point x="290.092" y="467.275" type="line"/>
      <point x="290.092" y="498.542" type="line"/>
      <point x="48.48" y="498.542" type="line"/>
      <point x="48.48" y="467.275" type="line"/>
      <point x="84.485" y="467.275" type="line" smooth="yes"/>
      <point x="117.647" y="467.275"/>
      <point x="122.385" y="464.432"/>
      <point x="122.385" y="434.112" type="curve" smooth="yes"/>
      <point x="122.385" y="64.5875" type="line" smooth="yes"/>
      <point x="122.385" y="35.215"/>
      <point x="117.647" y="31.425"/>
      <point x="84.485" y="31.425" type="curve" smooth="yes"/>
      <point x="48.48" y="31.425" type="line"/>
      <point x="48.48" y="0.1575" type="line"/>
      <point x="290.092" y="0.1575" type="line"/>
      <point x="290.092" y="31.425" type="line"/>
      <point x="255.035" y="31.425" type="line" smooth="yes"/>
      <point x="221.872" y="31.425"/>
      <point x="217.135" y="40.9"/>
      <point x="217.135" y="64.5875" type="curve" smooth="yes"/>
    </contour>
  </outline>
</glyph>
<glyph name="j" format="2">
  <advance width="381"/>
  <unicode hex="006A"/>
  <outline>
    <contour>
      <point x="291.987" y="434.112" type="line" smooth="yes"/>
      <point x="291.987" y="464.432"/>
      <point x="295.777" y="467.275"/>
      <point x="329.887" y="467.275" type="curve" smooth="yes"/>
      <point x="364.945" y="467.275" type="line"/>
      <point x="364.945" y="498.542" type="line"/>
      <point x="123.332" y="498.542" type="line"/>
      <point x="123.332" y="467.275" type="line"/>
      <point x="158.39" y="467.275" type="line" smooth="yes"/>
      <point x="192.5" y="467.275"/>
      <point x="196.29" y="464.432"/>
      <point x="196.29" y="434.112" type="curve" smooth="yes"/>
      <point x="196.29" y="39.9525" type="line" smooth="yes"/>
      <point x="196.29" y="-8.37"/>
      <point x="172.602" y="-28.2675"/>
      <point x="139.44" y="-28.2675" type="curve" smooth="yes"/>
      <point x="100.592" y="-28.2675"/>
      <point x="84.485" y="-9.3175"/>
      <point x="84.485" y="1.105" type="curve" smooth="yes"/>
      <point x="84.485" y="6.79"/>
      <point x="90.17" y="11.5275"/>
      <point x="95.855" y="17.2125" type="curve" smooth="yes"/>
      <point x="105.33" y="25.74"/>
      <point x="115.752" y="35.215"/>
      <point x="115.752" y="54.165" type="curve" smooth="yes"/>
      <point x="115.752" y="79.7475"/>
      <point x="94.9075" y="96.8025"/>
      <point x="69.325" y="96.8025" type="curve" smooth="yes"/>
      <point x="37.11" y="96.8025"/>
      <point x="16.265" y="73.115"/>
      <point x="16.265" y="40.9" type="curve" smooth="yes"/>
      <point x="16.265" y="-10.265"/>
      <point x="84.485" y="-55.745"/>
      <point x="141.335" y="-55.745" type="curve" smooth="yes"/>
      <point x="231.347" y="-55.745"/>
      <point x="291.987" y="5.8425"/>
      <point x="291.987" y="77.8525" type="curve" smooth="yes"/>
    </contour>
  </outline>
</glyph>
<glyph name="m" format="2">
  <advance width="650"/>
  <unicode hex="006D"/>
  <outline>
    <contour>
      <point x="141" y="62" type="curve" smooth="yes"/>
      <point x="141" y="403" type="line" smooth="yes"/>
      <point x="141" y="439"/>
      <point x="155" y="446"/>
      <point x="170" y="404" type="curve" smooth="yes"/>
      <point x="212" y="286" type="line" smooth="yes"/>
      <point x="248" y="180"/>
      <point x="290" y="33"/>
      <point x="296" y="12" type="curve"/>
      <point x="312" y="12" type="line"/>
      <point x="317" y="27"/>
      <point x="361" y="166"/>
      <point x="402" y="271" type="curve" smooth="yes"/>
      <point x="447" y="390" type="line" smooth="yes"/>
      <point x="454" y="409"/>
      <point x="465" y="395"/>
      <point x="465" y="388" type="curve" smooth="yes"/>
      <point x="465" y="62" type="line" smooth="yes"/>
      <point x="465" y="30"/>
      <point x="462" y="26"/>
      <point x="425" y="26" type="curve" smooth="yes"/>
      <point x="392" y="26" type="line"/>
      <point x="392" y="0" type="line"/>
      <point x="626" y="0" type="line"/>
      <point x="626" y="26" type="line"/>
      <point x="592" y="26" type="line" smooth="yes"/>
      <point x="556" y="26"/>
      <point x="551" y="30"/>
      <point x="551" y="62" type="curve" smooth="yes"/>
      <point x="551" y="437" type="line" smooth="yes"/>
      <point x="551" y="470"/>
      <point x="556" y="473"/>
      <point x="592" y="473" type="curve" smooth="yes"/>
      <point x="626" y="473" type="line"/>
      <point x="626" y="499" type="line"/>
      <point x="455" y="499" type="line"/>
      <point x="337" y="194" type="line"/>
      <point x="231" y="499" type="line"/>
      <point x="25" y="499" type="line"/>
      <point x="25" y="473" type="line"/>
      <point x="46" y="473" type="line" smooth="yes"/>
      <point x="91" y="473"/>
      <point x="108" y="469"/>
      <point x="108" y="418" type="curve"/>
      <point x="108" y="62" type="line" smooth="yes"/>
      <point x="108" y="30"/>
      <point x="103" y="26"/>
      <point x="65" y="26" type="curve" smooth="yes"/>
      <point x="25" y="26" type="line"/>
      <point x="25" y="0" type="line"/>
      <point x="222" y="0" type="line"/>
      <point x="222" y="26" type="line"/>
      <point x="181" y="26" type="line" smooth="yes"/>
      <point x="145" y="26"/>
      <point x="141" y="30"/>
    </contour>
  </outline>
</glyph>
<glyph name="n" format="2">
  <advance width="589"/>
  <unicode hex="006E"/>
  <anchor x="299" y="537" name="t.asciicircum_1"/>
  <outline>
    <contour>
      <point x="490.962" y="434.112" type="line" smooth="yes"/>
      <point x="490.962" y="464.432"/>
      <point x="495.7" y="467.275"/>
      <point x="528.862" y="467.275" type="curve" smooth="yes"/>
      <point x="572.447" y="467.275" type="line"/>
      <point x="572.447" y="498.542" type="line"/>
      <point x="371.577" y="498.542" type="line"/>
      <point x="371.577" y="467.275" type="line"/>
      <point x="415.162" y="467.275" type="line" smooth="yes"/>
      <point x="448.325" y="467.275"/>
      <point x="452.115" y="464.432"/>
      <point x="452.115" y="434.112" type="curve" smooth="yes"/>
      <point x="452.115" y="160.285" type="line"/>
      <point x="191.552" y="498.542" type="line"/>
      <point x="30.4775" y="498.542" type="line"/>
      <point x="30.4775" y="467.275" type="line"/>
      <point x="54.165" y="467.275" type="line" smooth="yes"/>
      <point x="91.1175" y="467.275"/>
      <point x="111.962" y="455.905"/>
      <point x="112.91" y="415.162" type="curve"/>
      <point x="111.962" y="64.5875" type="line" smooth="yes"/>
      <point x="111.962" y="35.215"/>
      <point x="107.225" y="31.425"/>
      <point x="75.01" y="31.425" type="curve" smooth="yes"/>
      <point x="30.4775" y="31.425" type="line"/>
      <point x="30.4775" y="0.1575" type="line"/>
      <point x="232.295" y="0.1575" type="line"/>
      <point x="232.295" y="31.425" type="line"/>
      <point x="188.71" y="31.425" type="line" smooth="yes"/>
      <point x="155.547" y="31.425"/>
      <point x="150.81" y="35.215"/>
      <point x="150.81" y="64.5875" type="curve" smooth="yes"/>
      <point x="150.81" y="363.997" type="line" smooth="yes"/>
      <point x="150.81" y="378.21"/>
      <point x="153.652" y="388.632"/>
      <point x="159.337" y="388.632" type="curve" smooth="yes"/>
      <point x="163.127" y="388.632"/>
      <point x="169.76" y="383.895"/>
      <point x="179.235" y="371.577" type="curve" smooth="yes"/>
      <point x="465.38" y="-8.37" type="line"/>
      <point x="490.015" y="-8.37" type="line"/>
    </contour>
  </outline>
</glyph>
<glyph name="o" format="2">
  <advance width="530"/>
  <unicode hex="006F"/>
  <anchor x="265" y="537" name="t.asciicircum_1"/>
  <anchor x="265" y="551" name="t.dieresis"/>
  <outline>
    <contour>
      <point x="141.164" y="249.678" type="curve" smooth="yes"/>
      <point x="141.164" y="434.056"/>
      <point x="191.1" y="484.952"/>
      <point x="265.043" y="484.952" type="curve" smooth="yes"/>
      <point x="338.986" y="484.952"/>
      <point x="387.961" y="434.056"/>
      <point x="387.961" y="249.678" type="curve" smooth="yes"/>
      <point x="387.961" y="66.2607"/>
      <point x="338.986" y="14.4045"/>
      <point x="265.043" y="14.4045" type="curve" smooth="yes"/>
      <point x="191.1" y="14.4045"/>
      <point x="141.164" y="66.2607"/>
    </contour>
    <contour>
      <point x="32.6502" y="249.678" type="curve" smooth="yes"/>
      <point x="32.6502" y="107.554"/>
      <point x="117.157" y="-8.6427"/>
      <point x="265.043" y="-8.6427" type="curve" smooth="yes"/>
      <point x="412.929" y="-8.6427"/>
      <point x="497.435" y="107.554"/>
      <point x="497.435" y="249.678" type="curve" smooth="yes"/>
      <point x="497.435" y="393.723"/>
      <point x="412.929" y="507.999"/>
      <point x="265.043" y="507.999" type="curve" smooth="yes"/>
      <point x="117.157" y="507.999"/>
      <point x="32.6502" y="393.723"/>
    </contour>
  </outline>
</glyph>
<glyph name="p" format="2">
  <advance width="482"/>
  <unicode hex="0070"/>
  <outline>
    <contour>
      <point x="185" y="62" type="curve" smooth="yes"/>
      <point x="185" y="241" type="line"/>
      <point x="255" y="241" type="line" smooth="yes"/>
      <point x="386" y="241"/>
      <point x="457" y="290"/>
      <point x="457" y="369" type="curve" smooth="yes"/>
      <point x="457" y="451"/>
      <point x="386" y="499"/>
      <point x="255" y="499" type="curve" smooth="yes"/>
      <point x="25" y="499" type="line"/>
      <point x="25" y="473" type="line"/>
      <point x="57" y="473" type="line" smooth="yes"/>
      <point x="94" y="473"/>
      <point x="99" y="470"/>
      <point x="99" y="437" type="curve" smooth="yes"/>
      <point x="99" y="62" type="line" smooth="yes"/>
      <point x="99" y="30"/>
      <point x="94" y="26"/>
      <point x="57" y="26" type="curve" smooth="yes"/>
      <point x="25" y="26" type="line"/>
      <point x="25" y="0" type="line"/>
      <point x="274" y="0" type="line"/>
      <point x="274" y="26" type="line"/>
      <point x="226" y="26" type="line" smooth="yes"/>
      <point x="189" y="26"/>
      <point x="185" y="30"/>
    </contour>
    <contour>
      <point x="185" y="267" type="line"/>
      <point x="185" y="444" type="line" smooth="yes"/>
      <point x="185" y="467"/>
      <point x="224" y="472"/>
      <point x="241" y="472" type="curve" smooth="yes"/>
      <point x="247" y="472" type="line" smooth="yes"/>
      <point x="304" y="472"/>
      <point x="350" y="444"/>
      <point x="350" y="369" type="curve" smooth="yes"/>
      <point x="350" y="297"/>
      <point x="304" y="267"/>
      <point x="247" y="267" type="curve" smooth="yes"/>
    </contour>
  </outline>
</glyph>
<glyph name="q" format="2">
  <advance width="530"/>
  <unicode hex="0071"/>
  <outline>
    <contour>
      <point x="61" y="-91" type="line"/>
      <point x="109" y="-15"/>
      <point x="167" y="-14"/>
      <point x="223" y="-64" type="curve" smooth="yes"/>
      <point x="321" y="-150"/>
      <point x="423" y="-183"/>
      <point x="493" y="-26" type="curve"/>
      <point x="477" y="-16" type="line"/>
      <point x="419" y="-95"/>
      <point x="376" y="-74"/>
      <point x="313" y="-31" type="curve" smooth="yes"/>
      <point x="292" y="-16"/>
      <point x="307" y="-7"/>
      <point x="325" y="-2" type="curve"/>
      <point x="436" y="25"/>
      <point x="497" y="128"/>
      <point x="497" y="249" type="curve" smooth="yes"/>
      <point x="497" y="394"/>
      <point x="413" y="508"/>
      <point x="265" y="508" type="curve" smooth="yes"/>
      <point x="117" y="508"/>
      <point x="33" y="394"/>
      <point x="33" y="249" type="curve" smooth="yes"/>
      <point x="33" y="151"/>
      <point x="74" y="65"/>
      <point x="147" y="22" type="curve"/>
      <point x="102" y="5"/>
      <point x="69" y="-42"/>
      <point x="45" y="-84" type="curve"/>
    </contour>
    <contour>
      <point x="142" y="249" type="curve" smooth="yes"/>
      <point x="142" y="434"/>
      <point x="191" y="485"/>
      <point x="265" y="485" type="curve" smooth="yes"/>
      <point x="339" y="485"/>
      <point x="388" y="434"/>
      <point x="388" y="249" type="curve" smooth="yes"/>
      <point x="388" y="66"/>
      <point x="339" y="15"/>
      <point x="265" y="15" type="curve" smooth="yes"/>
      <point x="191" y="15"/>
      <point x="142" y="66"/>
    </contour>
  </outline>
</glyph>
<glyph name="r" format="2">
  <advance width="558"/>
  <unicode hex="0072"/>
  <outline>
    <contour>
      <point x="188.71" y="64.5875" type="curve" smooth="yes"/>
      <point x="188.71" y="252.192" type="line"/>
      <point x="250.297" y="252.192" type="line" smooth="yes"/>
      <point x="307.147" y="252.192"/>
      <point x="338.415" y="192.5"/>
      <point x="342.205" y="130.912" type="curve" smooth="yes"/>
      <point x="346.942" y="39.9525"/>
      <point x="381.052" y="-8.37"/>
      <point x="454.01" y="-8.37" type="curve" smooth="yes"/>
      <point x="517.492" y="-8.37"/>
      <point x="550.655" y="34.2675"/>
      <point x="550.655" y="98.6975" type="curve" smooth="yes"/>
      <point x="550.655" y="108.172"/>
      <point x="549.707" y="119.542"/>
      <point x="548.76" y="129.965" type="curve"/>
      <point x="518.44" y="129.965" type="line"/>
      <point x="518.44" y="88.275"/>
      <point x="510.86" y="44.69"/>
      <point x="484.33" y="44.69" type="curve" smooth="yes"/>
      <point x="453.062" y="44.69"/>
      <point x="448.325" y="95.855"/>
      <point x="444.535" y="127.122" type="curve" smooth="yes"/>
      <point x="436.955" y="188.71"/>
      <point x="400.95" y="247.455"/>
      <point x="338.415" y="262.615" type="curve"/>
      <point x="338.415" y="265.457" type="line"/>
      <point x="418.952" y="275.88"/>
      <point x="456.852" y="320.412"/>
      <point x="456.852" y="375.367" type="curve" smooth="yes"/>
      <point x="456.852" y="453.062"/>
      <point x="385.79" y="498.542"/>
      <point x="255.035" y="498.542" type="curve" smooth="yes"/>
      <point x="24.7925" y="498.542" type="line"/>
      <point x="24.7925" y="467.275" type="line"/>
      <point x="59.85" y="467.275" type="line" smooth="yes"/>
      <point x="93.0125" y="467.275"/>
      <point x="97.75" y="464.432"/>
      <point x="97.75" y="434.112" type="curve" smooth="yes"/>
      <point x="97.75" y="64.5875" type="line" smooth="yes"/>
      <point x="97.75" y="35.215"/>
      <point x="93.0125" y="31.425"/>
      <point x="59.85" y="31.425" type="curve" smooth="yes"/>
      <point x="24.7925" y="31.425" type="line"/>
      <point x="24.7925" y="0.1575" type="line"/>
      <point x="269.247" y="0.1575" type="line"/>
      <point x="269.247" y="31.425" type="line"/>
      <point x="225.662" y="31.425" type="line" smooth="yes"/>
      <point x="192.5" y="31.425"/>
      <point x="188.71" y="35.215"/>
    </contour>
    <contour>
      <point x="246.507" y="283.46" type="curve" smooth="yes"/>
      <point x="188.71" y="283.46" type="line"/>
      <point x="188.71" y="440.745" type="line" smooth="yes"/>
      <point x="188.71" y="461.59"/>
      <point x="224.715" y="466.327"/>
      <point x="240.822" y="466.327" type="curve" smooth="yes"/>
      <point x="246.507" y="466.327" type="line" smooth="yes"/>
      <point x="309.99" y="466.327"/>
      <point x="354.522" y="442.64"/>
      <point x="354.522" y="375.367" type="curve" smooth="yes"/>
      <point x="354.522" y="308.095"/>
      <point x="309.99" y="283.46"/>
    </contour>
  </outline>
</glyph>
<glyph name="s" format="2">
  <advance width="514"/>
  <unicode hex="0073"/>
  <anchor x="231" y="556" name="t.asciicircum_1"/>
  <anchor x="231" y="570" name="t.dieresis"/>
  <outline>
    <contour>
      <point x="260.72" y="25.74" type="curve" smooth="yes"/>
      <point x="184.92" y="25.74"/>
      <point x="103.435" y="74.0625"/>
      <point x="87.3275" y="214.292" type="curve"/>
      <point x="48.48" y="214.292" type="line"/>
      <point x="48.48" y="-8.37" type="line"/>
      <point x="81.6425" y="-8.37" type="line"/>
      <point x="89.2225" y="3.9475" type="line" smooth="yes"/>
      <point x="99.645" y="21.0025"/>
      <point x="107.225" y="30.4775"/>
      <point x="118.595" y="30.4775" type="curve" smooth="yes"/>
      <point x="125.227" y="30.4775"/>
      <point x="133.755" y="27.635"/>
      <point x="145.125" y="21.95" type="curve" smooth="yes"/>
      <point x="184.92" y="1.105"/>
      <point x="220.925" y="-8.37"/>
      <point x="264.51" y="-8.37" type="curve" smooth="yes"/>
      <point x="382.947" y="-8.37"/>
      <point x="463.485" y="60.7975"/>
      <point x="463.485" y="144.177" type="curve" smooth="yes"/>
      <point x="463.485" y="234.19"/>
      <point x="388.632" y="280.617"/>
      <point x="290.092" y="310.937" type="curve" smooth="yes"/>
      <point x="231.347" y="328.94" type="line"/>
      <point x="180.182" y="345.995"/>
      <point x="139.44" y="375.367"/>
      <point x="139.44" y="417.057" type="curve" smooth="yes"/>
      <point x="139.44" y="451.167"/>
      <point x="177.34" y="475.802"/>
      <point x="233.242" y="475.802" type="curve" smooth="yes"/>
      <point x="289.145" y="475.802"/>
      <point x="371.577" y="448.325"/>
      <point x="394.317" y="323.255" type="curve"/>
      <point x="432.217" y="323.255" type="line"/>
      <point x="432.217" y="507.07" type="line"/>
      <point x="398.107" y="507.07" type="line"/>
      <point x="391.475" y="495.7" type="line" smooth="yes"/>
      <point x="382.947" y="481.487"/>
      <point x="375.367" y="473.907"/>
      <point x="364.945" y="473.907" type="curve" smooth="yes"/>
      <point x="357.365" y="473.907"/>
      <point x="346.942" y="477.697"/>
      <point x="333.677" y="484.33" type="curve" smooth="yes"/>
      <point x="311.885" y="495.7"/>
      <point x="275.88" y="507.07"/>
      <point x="233.242" y="507.07" type="curve" smooth="yes"/>
      <point x="121.437" y="507.07"/>
      <point x="51.3225" y="446.43"/>
      <point x="51.3225" y="371.577" type="curve" smooth="yes"/>
      <point x="51.3225" y="296.725"/>
      <point x="119.542" y="260.72"/>
      <point x="196.29" y="237.032" type="curve" smooth="yes"/>
      <point x="270.195" y="215.24" type="line" smooth="yes"/>
      <point x="345.047" y="192.5"/>
      <point x="383.895" y="157.442"/>
      <point x="383.895" y="107.225" type="curve" smooth="yes"/>
      <point x="383.895" y="69.325"/>
      <point x="350.732" y="25.74"/>
    </contour>
  </outline>
</glyph>
<glyph name="t" format="2">
  <advance width="523"/>
  <unicode hex="0074"/>
  <outline>
    <contour>
      <point x="174" y="466" type="curve" smooth="yes"/>
      <point x="201" y="466"/>
      <point x="213" y="462"/>
      <point x="213" y="441" type="curve" smooth="yes"/>
      <point x="214" y="64" type="line" smooth="yes"/>
      <point x="214" y="43"/>
      <point x="202" y="32"/>
      <point x="177" y="32" type="curve" smooth="yes"/>
      <point x="142" y="32" type="line"/>
      <point x="142" y="0" type="line"/>
      <point x="383" y="0" type="line"/>
      <point x="383" y="32" type="line"/>
      <point x="347" y="32" type="line" smooth="yes"/>
      <point x="322" y="32"/>
      <point x="309" y="42"/>
      <point x="309" y="64" type="curve" smooth="yes"/>
      <point x="309" y="441" type="line" smooth="yes"/>
      <point x="309" y="462"/>
      <point x="326" y="466"/>
      <point x="349" y="466" type="curve" smooth="yes"/>
      <point x="410" y="466"/>
      <point x="439" y="405"/>
      <point x="462" y="312" type="curve"/>
      <point x="491" y="312" type="line"/>
      <point x="486" y="498" type="line"/>
      <point x="38" y="498" type="line"/>
      <point x="32" y="312" type="line"/>
      <point x="60" y="312" type="line"/>
      <point x="84" y="405"/>
      <point x="114" y="466"/>
    </contour>
  </outline>
</glyph>
<glyph name="u" format="2">
  <advance width="555"/>
  <unicode hex="0075"/>
  <outline>
    <contour>
      <point x="456.852" y="434.112" type="line" smooth="yes"/>
      <point x="456.852" y="464.432"/>
      <point x="461.59" y="467.275"/>
      <point x="494.752" y="467.275" type="curve" smooth="yes"/>
      <point x="538.337" y="467.275" type="line"/>
      <point x="538.337" y="498.542" type="line"/>
      <point x="337.467" y="498.542" type="line"/>
      <point x="337.467" y="467.275" type="line"/>
      <point x="381.052" y="467.275" type="line" smooth="yes"/>
      <point x="414.215" y="467.275"/>
      <point x="418.005" y="464.432"/>
      <point x="418.005" y="434.112" type="curve" smooth="yes"/>
      <point x="418.005" y="201.975" type="line" smooth="yes"/>
      <point x="418.005" y="115.752"/>
      <point x="397.16" y="27.635"/>
      <point x="289.145" y="27.635" type="curve" smooth="yes"/>
      <point x="202.922" y="27.635"/>
      <point x="187.762" y="97.75"/>
      <point x="187.762" y="212.397" type="curve" smooth="yes"/>
      <point x="187.762" y="434.112" type="line" smooth="yes"/>
      <point x="187.762" y="464.432"/>
      <point x="191.552" y="467.275"/>
      <point x="224.715" y="467.275" type="curve" smooth="yes"/>
      <point x="259.772" y="467.275" type="line"/>
      <point x="259.772" y="498.542" type="line"/>
      <point x="16.265" y="498.542" type="line"/>
      <point x="16.265" y="467.275" type="line"/>
      <point x="51.3225" y="467.275" type="line" smooth="yes"/>
      <point x="85.4325" y="467.275"/>
      <point x="90.17" y="464.432"/>
      <point x="90.17" y="434.112" type="curve" smooth="yes"/>
      <point x="90.17" y="198.185" type="line" smooth="yes"/>
      <point x="90.17" y="51.3225"/>
      <point x="155.547" y="-8.37"/>
      <point x="271.142" y="-8.37" type="curve" smooth="yes"/>
      <point x="424.637" y="-8.37"/>
      <point x="455.905" y="86.38"/>
      <point x="455.905" y="188.71" type="curve" smooth="yes"/>
    </contour>
  </outline>
</glyph>
<glyph name="v" format="2">
  <advance width="590"/>
  <unicode hex="0076"/>
  <anchor x="305" y="551" name="t.dieresis"/>
  <anchor x="305" y="529" name="t.asciicircum_1"/>
  <outline>
    <contour>
      <point x="312" y="112" type="line"/>
      <point x="193" y="418" type="line" smooth="yes"/>
      <point x="188" y="434"/>
      <point x="184" y="446"/>
      <point x="184" y="454" type="curve" smooth="yes"/>
      <point x="184" y="465"/>
      <point x="193" y="467"/>
      <point x="218" y="467" type="curve" smooth="yes"/>
      <point x="253" y="467" type="line"/>
      <point x="253" y="498" type="line"/>
      <point x="16" y="498" type="line"/>
      <point x="16" y="467" type="line"/>
      <point x="30" y="467" type="line" smooth="yes"/>
      <point x="64" y="467"/>
      <point x="74" y="463"/>
      <point x="93" y="418" type="curve" smooth="yes"/>
      <point x="263" y="-9" type="line"/>
      <point x="297" y="-9" type="line"/>
      <point x="480" y="410" type="line" smooth="yes"/>
      <point x="501" y="462"/>
      <point x="518" y="467"/>
      <point x="558" y="467" type="curve" smooth="yes"/>
      <point x="570" y="467" type="line"/>
      <point x="570" y="498" type="line"/>
      <point x="372" y="498" type="line"/>
      <point x="372" y="467" type="line"/>
      <point x="398" y="467" type="line" smooth="yes"/>
      <point x="436" y="467"/>
      <point x="451" y="464"/>
      <point x="451" y="449" type="curve" smooth="yes"/>
      <point x="451" y="441"/>
      <point x="447" y="428"/>
      <point x="440" y="412" type="curve" smooth="yes"/>
    </contour>
  </outline>
</glyph>
<glyph name="w" format="2">
  <advance width="724"/>
  <unicode hex="0077"/>
  <anchor x="365" y="546" name="t.asciicircum_1"/>
  <anchor x="365" y="560" name="t.dieresis"/>
  <outline>
    <contour>
      <point x="-15.3648" y="473.428" type="line"/>
      <point x="9.603" y="473.428" type="line" smooth="yes"/>
      <point x="49.9356" y="473.428"/>
      <point x="48.9753" y="472.468"/>
      <point x="66.2607" y="423.492" type="curve" smooth="yes"/>
      <point x="219.909" y="-8.6427" type="line"/>
      <point x="238.154" y="-8.6427" type="line"/>
      <point x="362.033" y="308.256" type="line"/>
      <point x="474.388" y="-8.6427" type="line"/>
      <point x="492.634" y="-8.6427" type="line"/>
      <point x="493.594" y="-9.603" type="line"/>
      <point x="642.441" y="419.651" type="line" smooth="yes"/>
      <point x="659.726" y="467.666"/>
      <point x="675.091" y="473.428"/>
      <point x="706.781" y="473.428" type="curve" smooth="yes"/>
      <point x="730.788" y="473.428" type="line"/>
      <point x="730.788" y="499.356" type="line"/>
      <point x="524.324" y="499.356" type="line"/>
      <point x="524.324" y="473.428" type="line"/>
      <point x="567.537" y="473.428" type="line" smooth="yes"/>
      <point x="616.513" y="473.428"/>
      <point x="623.235" y="467.666"/>
      <point x="606.91" y="419.651" type="curve" smooth="yes"/>
      <point x="510.88" y="143.085" type="line"/>
      <point x="412.929" y="432.135" type="line" smooth="yes"/>
      <point x="402.366" y="462.865"/>
      <point x="405.247" y="473.428"/>
      <point x="446.54" y="473.428" type="curve" smooth="yes"/>
      <point x="473.428" y="473.428" type="line"/>
      <point x="473.428" y="499.356" type="line"/>
      <point x="266.003" y="499.356" type="line"/>
      <point x="266.003" y="473.428" type="line"/>
      <point x="278.487" y="473.428" type="line" smooth="yes"/>
      <point x="297.693" y="473.428"/>
      <point x="304.415" y="471.507"/>
      <point x="311.137" y="453.262" type="curve" smooth="yes"/>
      <point x="345.708" y="355.311" type="line"/>
      <point x="258.321" y="134.442" type="line"/>
      <point x="156.529" y="433.095" type="line" smooth="yes"/>
      <point x="144.045" y="468.626"/>
      <point x="151.727" y="473.428"/>
      <point x="188.219" y="473.428" type="curve" smooth="yes"/>
      <point x="218.948" y="473.428" type="line"/>
      <point x="218.948" y="499.356" type="line"/>
      <point x="-15.3648" y="499.356" type="line"/>
    </contour>
  </outline>
</glyph>
<glyph name="x" format="2">
  <advance width="573"/>
  <unicode hex="0078"/>
  <outline>
    <contour>
      <point x="216" y="26" type="line"/>
      <point x="177" y="26" type="line" smooth="yes"/>
      <point x="135" y="26"/>
      <point x="118" y="33"/>
      <point x="156" y="81" type="curve" smooth="yes"/>
      <point x="262" y="218" type="line"/>
      <point x="359" y="80" type="line" smooth="yes"/>
      <point x="386" y="40"/>
      <point x="386" y="26"/>
      <point x="342" y="26" type="curve" smooth="yes"/>
      <point x="317" y="26" type="line"/>
      <point x="317" y="0" type="line"/>
      <point x="565" y="0" type="line"/>
      <point x="565" y="26" type="line"/>
      <point x="541" y="26" type="line" smooth="yes"/>
      <point x="506" y="26"/>
      <point x="499" y="31"/>
      <point x="476" y="63" type="curve" smooth="yes"/>
      <point x="321" y="282" type="line"/>
      <point x="437" y="433" type="line" smooth="yes"/>
      <point x="466" y="470"/>
      <point x="478" y="473"/>
      <point x="511" y="473" type="curve" smooth="yes"/>
      <point x="541" y="473" type="line"/>
      <point x="541" y="499" type="line"/>
      <point x="337" y="499" type="line"/>
      <point x="337" y="473" type="line"/>
      <point x="375" y="473" type="line" smooth="yes"/>
      <point x="420" y="473"/>
      <point x="422" y="464"/>
      <point x="386" y="420" type="curve" smooth="yes"/>
      <point x="302" y="309" type="line"/>
      <point x="215" y="431" type="line" smooth="yes"/>
      <point x="189" y="467"/>
      <point x="197" y="473"/>
      <point x="239" y="473" type="curve" smooth="yes"/>
      <point x="260" y="473" type="line"/>
      <point x="260" y="499" type="line"/>
      <point x="22" y="499" type="line"/>
      <point x="22" y="473" type="line"/>
      <point x="50" y="473" type="line" smooth="yes"/>
      <point x="76" y="473"/>
      <point x="86" y="468"/>
      <point x="109" y="437" type="curve" smooth="yes"/>
      <point x="243" y="245" type="line"/>
      <point x="106" y="68" type="line" smooth="yes"/>
      <point x="75" y="31"/>
      <point x="69" y="26"/>
      <point x="30" y="26" type="curve" smooth="yes"/>
      <point x="9" y="26" type="line"/>
      <point x="9" y="0" type="line"/>
      <point x="216" y="0" type="line"/>
    </contour>
  </outline>
</glyph>
<glyph name="y" format="2">
  <advance width="523"/>
  <unicode hex="0079"/>
  <anchor x="283" y="551" name="t.dieresis"/>
  <anchor x="283" y="537" name="t.asciicircum_1"/>
  <outline>
    <contour>
      <point x="218.03" y="64.5875" type="line" smooth="yes"/>
      <point x="218.03" y="41.8475"/>
      <point x="207.607" y="31.425"/>
      <point x="181.077" y="31.425" type="curve" smooth="yes"/>
      <point x="146.02" y="31.425" type="line"/>
      <point x="146.02" y="0.1575" type="line"/>
      <point x="383.842" y="0.1575" type="line"/>
      <point x="383.842" y="31.425" type="line"/>
      <point x="347.837" y="31.425" type="line" smooth="yes"/>
      <point x="321.307" y="31.425"/>
      <point x="309.937" y="41.8475"/>
      <point x="309.937" y="64.5875" type="curve" smooth="yes"/>
      <point x="309.937" y="237.032" type="line"/>
      <point x="430.27" y="429.375" type="line" smooth="yes"/>
      <point x="449.22" y="459.695"/>
      <point x="454.905" y="467.275"/>
      <point x="487.12" y="467.275" type="curve" smooth="yes"/>
      <point x="521.23" y="467.275" type="line"/>
      <point x="521.23" y="498.542" type="line"/>
      <point x="343.1" y="498.542" type="line"/>
      <point x="343.1" y="467.275" type="line"/>
      <point x="372.472" y="467.275" type="line" smooth="yes"/>
      <point x="393.317" y="467.275"/>
      <point x="404.687" y="466.327"/>
      <point x="404.687" y="459.695" type="curve" smooth="yes"/>
      <point x="404.687" y="454.957"/>
      <point x="399.95" y="445.482"/>
      <point x="391.422" y="433.165" type="curve"/>
      <point x="291.935" y="272.09" type="line"/>
      <point x="187.71" y="439.797" type="line"/>
      <point x="182.025" y="447.377"/>
      <point x="180.13" y="453.062"/>
      <point x="180.13" y="456.852" type="curve" smooth="yes"/>
      <point x="180.13" y="463.485"/>
      <point x="187.71" y="467.275"/>
      <point x="204.765" y="467.275" type="curve" smooth="yes"/>
      <point x="232.242" y="467.275" type="line"/>
      <point x="232.242" y="498.542" type="line"/>
      <point x="0.105" y="498.542" type="line"/>
      <point x="0.105" y="467.275" type="line"/>
      <point x="31.3725" y="467.275" type="line" smooth="yes"/>
      <point x="62.64" y="467.275"/>
      <point x="68.325" y="464.432"/>
      <point x="85.38" y="436.007" type="curve" smooth="yes"/>
      <point x="218.03" y="220.925" type="line"/>
    </contour>
  </outline>
</glyph>
<glyph name="z" format="2">
  <advance width="522"/>
  <unicode hex="007A"/>
  <anchor x="269" y="556" name="t.asciicircum_1"/>
  <anchor x="269" y="570" name="t.dieresis"/>
  <outline>
    <contour>
      <point x="465.746" y="0" type="line"/>
      <point x="471.507" y="193.981" type="line"/>
      <point x="447.5" y="193.981" type="line"/>
      <point x="423.492" y="104.673"/>
      <point x="369.716" y="26.8884"/>
      <point x="272.725" y="26.8884" type="curve" smooth="yes"/>
      <point x="185.338" y="26.8884" type="line" smooth="yes"/>
      <point x="166.132" y="26.8884"/>
      <point x="162.291" y="34.5708"/>
      <point x="172.854" y="51.8562" type="curve" smooth="yes"/>
      <point x="448.46" y="484.952" type="line"/>
      <point x="448.46" y="499.356" type="line"/>
      <point x="76.824" y="499.356" type="line"/>
      <point x="70.1019" y="316.899" type="line"/>
      <point x="94.1094" y="316.899" type="line"/>
      <point x="123.879" y="418.691"/>
      <point x="158.45" y="472.468"/>
      <point x="256.4" y="472.468" type="curve" smooth="yes"/>
      <point x="304.415" y="472.468" type="line" smooth="yes"/>
      <point x="319.78" y="472.468"/>
      <point x="338.026" y="468.626"/>
      <point x="325.542" y="448.46" type="curve"/>
      <point x="48.9753" y="14.4045" type="line"/>
      <point x="48.9753" y="0" type="line"/>
    </contour>
  </outline>
</glyph>
<glyph name="braceleft" format="2">
  <advance width="430"/>
  <unicode hex="007B"/>
  <outline>
    <contour>
      <point x="332" y="-201" type="line"/>
      <point x="229" y="-168"/>
      <point x="178" y="-110"/>
      <point x="178" y="-29" type="curve" smooth="yes"/>
      <point x="178" y="4"/>
      <point x="183" y="32"/>
      <point x="198" y="81" type="curve"/>
      <point x="209" y="122"/>
      <point x="215" y="154" name=".hr01"/>
      <point x="215" y="178" type="curve" smooth="yes"/>
      <point x="215" y="246"/>
      <point x="181" y="264"/>
      <point x="106" y="264" type="curve"/>
      <point x="106" y="283" type="line"/>
      <point x="178" y="283" name=".hr02"/>
      <point x="215" y="292" name=".hr03"/>
      <point x="215" y="362" type="curve" smooth="yes"/>
      <point x="215" y="385"/>
      <point x="209" y="419"/>
      <point x="198" y="463" type="curve" smooth="yes"/>
      <point x="183" y="518"/>
      <point x="178" y="543" name=".hr04"/>
      <point x="178" y="575" type="curve" smooth="yes"/>
      <point x="178" y="656"/>
      <point x="229" y="714"/>
      <point x="332" y="748" type="curve"/>
      <point x="344" y="723" type="line"/>
      <point x="275" y="699"/>
      <point x="240" y="679"/>
      <point x="240" y="627" type="curve" smooth="yes"/>
      <point x="240" y="594"/>
      <point x="246" y="569"/>
      <point x="258" y="521" type="curve" smooth="yes"/>
      <point x="270" y="477"/>
      <point x="276" y="448" name=".hr05"/>
      <point x="276" y="416" type="curve" smooth="yes"/>
      <point x="276" y="342"/>
      <point x="244" y="295"/>
      <point x="180" y="274" type="curve"/>
      <point x="180" y="272" type="line"/>
      <point x="235" y="255"/>
      <point x="276" y="210"/>
      <point x="276" y="125" type="curve" smooth="yes"/>
      <point x="276" y="92"/>
      <point x="270" y="66"/>
      <point x="258" y="23" type="curve" smooth="yes"/>
      <point x="246" y="-21"/>
      <point x="240" y="-47" name=".hr06"/>
      <point x="240" y="-80" type="curve" smooth="yes"/>
      <point x="240" y="-132"/>
      <point x="275" y="-152"/>
      <point x="344" y="-176" type="curve"/>
    </contour>
  </outline>
</glyph>
<glyph name="bar" format="2">
  <advance width="363"/>
  <unicode hex="007C"/>
  <outline>
    <contour>
      <point x="160" y="754" type="line"/>
      <point x="160" y="-143" type="line"/>
      <point x="203" y="-143" type="line"/>
      <point x="203" y="754" type="line"/>
    </contour>
  </outline>
</glyph>
<glyph name="braceright" format="2">
  <advance width="430"/>
  <unicode hex="007D"/>
  <outline>
    <contour>
      <point x="86" y="-176" type="line"/>
      <point x="155" y="-152"/>
      <point x="190" y="-132"/>
      <point x="190" y="-80" type="curve" smooth="yes"/>
      <point x="190" y="-47"/>
      <point x="184" y="-22"/>
      <point x="172" y="26" type="curve" smooth="yes"/>
      <point x="160" y="73"/>
      <point x="154" y="98"/>
      <point x="154" y="131" type="curve" smooth="yes"/>
      <point x="154" y="205"/>
      <point x="186" y="252"/>
      <point x="250" y="272" type="curve"/>
      <point x="250" y="274" type="line"/>
      <point x="186" y="295"/>
      <point x="154" y="342"/>
      <point x="154" y="416" type="curve" smooth="yes"/>
      <point x="154" y="448"/>
      <point x="160" y="477"/>
      <point x="172" y="521" type="curve" smooth="yes"/>
      <point x="184" y="569"/>
      <point x="190" y="594"/>
      <point x="190" y="627" type="curve" smooth="yes"/>
      <point x="190" y="679"/>
      <point x="155" y="699"/>
      <point x="86" y="723" type="curve"/>
      <point x="98" y="748" type="line"/>
      <point x="201" y="714"/>
      <point x="252" y="656"/>
      <point x="252" y="575" type="curve" smooth="yes"/>
      <point x="252" y="543"/>
      <point x="247" y="518"/>
      <point x="232" y="463" type="curve" smooth="yes"/>
      <point x="221" y="419"/>
      <point x="215" y="385"/>
      <point x="215" y="362" type="curve" smooth="yes"/>
      <point x="215" y="292"/>
      <point x="252" y="283"/>
      <point x="324" y="283" type="curve"/>
      <point x="324" y="264" type="line"/>
      <point x="252" y="264"/>
      <point x="215" y="255"/>
      <point x="215" y="184" type="curve" smooth="yes"/>
      <point x="215" y="161"/>
      <point x="221" y="128"/>
      <point x="232" y="84" type="curve" smooth="yes"/>
      <point x="247" y="29"/>
      <point x="252" y="4"/>
      <point x="252" y="-29" type="curve" smooth="yes"/>
      <point x="252" y="-110"/>
      <point x="201" y="-168"/>
      <point x="98" y="-201" type="curve"/>
    </contour>
  </outline>
</glyph>
<glyph name="asciitilde" format="2">
  <advance width="321"/>
  <unicode hex="007E"/>
  <outline>
    <contour>
      <point x="78" y="608" type="curve" smooth="yes"/>
      <point x="115" y="608"/>
      <point x="170" y="546"/>
      <point x="220" y="546" type="curve" smooth="yes"/>
      <point x="270" y="546"/>
      <point x="305" y="602"/>
      <point x="321" y="644" type="curve"/>
      <point x="299" y="652" type="line"/>
      <point x="287" y="627"/>
      <point x="269" y="604"/>
      <point x="243" y="604" type="curve" smooth="yes"/>
      <point x="206" y="604"/>
      <point x="151" y="666"/>
      <point x="101" y="666" type="curve" smooth="yes"/>
      <point x="51" y="666"/>
      <point x="16" y="610"/>
      <point x="0" y="568" type="curve"/>
      <point x="22" y="560" type="line"/>
      <point x="34" y="585"/>
      <point x="52" y="608"/>
    </contour>
  </outline>
</glyph>
<glyph name="cent" format="2">
  <advance width="594"/>
  <unicode hex="00A2"/>
  <outline>
    <contour>
      <point x="297" y="-11" type="line"/>
      <point x="240" y="-5"/>
      <point x="195" y="21"/>
      <point x="163" y="67" type="curve" smooth="yes"/>
      <point x="131" y="112"/>
      <point x="115" y="168"/>
      <point x="115" y="233" type="curve" smooth="yes"/>
      <point x="115" y="360"/>
      <point x="192" y="468"/>
      <point x="297" y="478" type="curve"/>
      <point x="297" y="590" type="line"/>
      <point x="330" y="590" type="line"/>
      <point x="330" y="478" type="line"/>
      <point x="417" y="472"/>
      <point x="469" y="406"/>
      <point x="469" y="345" type="curve" smooth="yes"/>
      <point x="469" y="302"/>
      <point x="444" y="278"/>
      <point x="413" y="278" type="curve" smooth="yes"/>
      <point x="385" y="278"/>
      <point x="365" y="298"/>
      <point x="365" y="323" type="curve" smooth="yes"/>
      <point x="365" y="347"/>
      <point x="380" y="365"/>
      <point x="399" y="370" type="curve" smooth="yes"/>
      <point x="410" y="373"/>
      <point x="416" y="379" name="hr01"/>
      <point x="416" y="388" type="curve" smooth="yes"/>
      <point x="416" y="409"/>
      <point x="387" y="450"/>
      <point x="330" y="454" type="curve"/>
      <point x="330" y="12" type="line"/>
      <point x="368" y="14"/>
      <point x="397" y="29"/>
      <point x="416" y="58" type="curve" smooth="yes"/>
      <point x="435" y="87"/>
      <point x="448" y="121"/>
      <point x="453" y="160" type="curve"/>
      <point x="477" y="160" type="line"/>
      <point x="474" y="116"/>
      <point x="461" y="77"/>
      <point x="436" y="43" type="curve" smooth="yes"/>
      <point x="411" y="8"/>
      <point x="376" y="-10"/>
      <point x="330" y="-12" type="curve"/>
      <point x="330" y="-123" type="line"/>
      <point x="297" y="-123" type="line"/>
    </contour>
    <contour>
      <point x="297" y="453" type="line"/>
      <point x="265" y="444"/>
      <point x="242" y="419"/>
      <point x="227" y="376" type="curve" smooth="yes"/>
      <point x="212" y="333"/>
      <point x="205" y="285"/>
      <point x="205" y="233" type="curve" smooth="yes"/>
      <point x="205" y="182"/>
      <point x="212" y="135"/>
      <point x="226" y="93" type="curve" smooth="yes"/>
      <point x="240" y="51"/>
      <point x="264" y="25"/>
      <point x="297" y="15" type="curve"/>
    </contour>
  </outline>
</glyph>
<glyph name="currency" format="2">
  <advance width="594"/>
  <unicode hex="00A4"/>
  <outline>
    <contour>
      <point x="53" y="139" type="line"/>
      <point x="122" y="208" type="line"/>
      <point x="89" y="249"/>
      <point x="72" y="296"/>
      <point x="72" y="350" type="curve" smooth="yes"/>
      <point x="72" y="403"/>
      <point x="90" y="454"/>
      <point x="123" y="494" type="curve"/>
      <point x="53" y="563" type="line"/>
      <point x="85" y="595" type="line"/>
      <point x="154" y="526" type="line"/>
      <point x="193" y="559"/>
      <point x="244" y="578"/>
      <point x="297" y="578" type="curve" smooth="yes"/>
      <point x="350" y="578"/>
      <point x="401" y="559"/>
      <point x="440" y="526" type="curve"/>
      <point x="509" y="595" type="line"/>
      <point x="541" y="563" type="line"/>
      <point x="471" y="494" type="line"/>
      <point x="504" y="454"/>
      <point x="522" y="403"/>
      <point x="522" y="350" type="curve" smooth="yes"/>
      <point x="522" y="296"/>
      <point x="505" y="249"/>
      <point x="472" y="208" type="curve"/>
      <point x="541" y="139" type="line"/>
      <point x="509" y="108" type="line"/>
      <point x="440" y="176" type="line"/>
      <point x="401" y="144"/>
      <point x="350" y="125"/>
      <point x="297" y="125" type="curve" smooth="yes"/>
      <point x="244" y="125"/>
      <point x="193" y="144"/>
      <point x="154" y="176" type="curve"/>
      <point x="85" y="108" type="line"/>
    </contour>
    <contour>
      <point x="297" y="166" type="curve" smooth="yes"/>
      <point x="402" y="166"/>
      <point x="481" y="245"/>
      <point x="481" y="350" type="curve" smooth="yes"/>
      <point x="481" y="455"/>
      <point x="402" y="537"/>
      <point x="297" y="537" type="curve" smooth="yes"/>
      <point x="192" y="537"/>
      <point x="113" y="455"/>
      <point x="113" y="350" type="curve" smooth="yes"/>
      <point x="113" y="245"/>
      <point x="192" y="166"/>
    </contour>
  </outline>
</glyph>
<glyph name="brokenbar" format="2">
  <advance width="291"/>
  <unicode hex="00A6"/>
  <outline>
    <contour>
      <point x="123" y="379" type="line"/>
      <point x="123" y="748" type="line"/>
      <point x="168" y="748" type="line"/>
      <point x="168" y="379" type="line"/>
    </contour>
    <contour>
      <point x="123" y="-172" type="line"/>
      <point x="123" y="197" type="line"/>
      <point x="168" y="197" type="line"/>
      <point x="168" y="-172" type="line"/>
    </contour>
  </outline>
</glyph>
<glyph name="dieresis" format="2">
  <advance width="298"/>
  <unicode hex="00A8"/>
  <anchor x="149" y="530" name="_t.dieresis"/>
  <outline>
    <contour>
      <point x="194" y="588" type="curve" smooth="yes"/>
      <point x="194" y="559"/>
      <point x="217" y="536"/>
      <point x="246" y="536" type="curve" smooth="yes"/>
      <point x="275" y="536"/>
      <point x="298" y="559"/>
      <point x="298" y="588" type="curve" smooth="yes"/>
      <point x="298" y="617"/>
      <point x="275" y="640"/>
      <point x="246" y="640" type="curve" smooth="yes"/>
      <point x="217" y="640"/>
      <point x="194" y="617"/>
    </contour>
    <contour>
      <point x="0" y="588" type="curve" smooth="yes"/>
      <point x="0" y="559"/>
      <point x="23" y="536"/>
      <point x="52" y="536" type="curve" smooth="yes"/>
      <point x="81" y="536"/>
      <point x="104" y="559"/>
      <point x="104" y="588" type="curve" smooth="yes"/>
      <point x="104" y="617"/>
      <point x="81" y="640"/>
      <point x="52" y="640" type="curve" smooth="yes"/>
      <point x="23" y="640"/>
      <point x="0" y="617"/>
    </contour>
  </outline>
</glyph>
<glyph name="ordfeminine" format="2">
  <advance width="389"/>
  <unicode hex="00AA"/>
  <outline>
    <contour>
      <point x="45" y="324" type="line"/>
      <point x="45" y="348" type="line"/>
      <point x="344" y="348" type="line"/>
      <point x="344" y="324" type="line"/>
    </contour>
    <contour>
      <point x="277" y="589" type="line" smooth="yes"/>
      <point x="277" y="641"/>
      <point x="237" y="680"/>
      <point x="169" y="680" type="curve" smooth="yes"/>
      <point x="93" y="680"/>
      <point x="61" y="643" name=".hr01"/>
      <point x="61" y="615" type="curve" smooth="yes"/>
      <point x="61" y="595"/>
      <point x="71" y="577"/>
      <point x="95" y="577" type="curve" smooth="yes"/>
      <point x="112" y="577"/>
      <point x="124" y="590" name=".hr02"/>
      <point x="124" y="606" type="curve" smooth="yes"/>
      <point x="124" y="620"/>
      <point x="112" y="628" name=".hr03"/>
      <point x="112" y="638" type="curve" smooth="yes"/>
      <point x="112" y="652"/>
      <point x="129" y="661"/>
      <point x="164" y="661" type="curve" smooth="yes"/>
      <point x="208" y="661"/>
      <point x="221" y="627"/>
      <point x="221" y="580" type="curve" smooth="yes"/>
      <point x="221" y="573" type="line"/>
      <point x="168" y="561" type="line" smooth="yes"/>
      <point x="102" y="546"/>
      <point x="45" y="521" name=".hr04"/>
      <point x="45" y="459" type="curve" smooth="yes"/>
      <point x="45" y="417"/>
      <point x="79" y="385"/>
      <point x="127" y="385" type="curve" smooth="yes"/>
      <point x="176" y="385"/>
      <point x="207" y="410"/>
      <point x="224" y="434" type="curve"/>
      <point x="231" y="404"/>
      <point x="248" y="385"/>
      <point x="281" y="385" type="curve" smooth="yes"/>
      <point x="311" y="385"/>
      <point x="338" y="410"/>
      <point x="344" y="450" type="curve"/>
      <point x="329" y="453" type="line"/>
      <point x="324" y="429"/>
      <point x="314" y="414" name=".hr05"/>
      <point x="299" y="414" type="curve" smooth="yes"/>
      <point x="284" y="414"/>
      <point x="277" y="427"/>
      <point x="277" y="470" type="curve" smooth="yes"/>
    </contour>
    <contour>
      <point x="108" y="466" type="curve" smooth="yes"/>
      <point x="108" y="508"/>
      <point x="122" y="531"/>
      <point x="179" y="545" type="curve" smooth="yes"/>
      <point x="221" y="555" type="line"/>
      <point x="221" y="475" type="line" smooth="yes"/>
      <point x="221" y="443"/>
      <point x="178" y="407" name=".hr06"/>
      <point x="149" y="407" type="curve" smooth="yes"/>
      <point x="119" y="407"/>
      <point x="108" y="427"/>
    </contour>
  </outline>
</glyph>
<glyph name="guillemotleft" format="2">
  <advance width="547"/>
  <unicode hex="00AB"/>
  <outline>
    <contour>
      <point x="361" y="240" type="curve"/>
      <point x="396" y="300"/>
      <point x="445" y="390"/>
      <point x="467" y="438" type="curve"/>
      <point x="446" y="445" type="line"/>
      <point x="404" y="385"/>
      <point x="334" y="311"/>
      <point x="261" y="247" type="curve" smooth="yes"/>
      <point x="258" y="244"/>
      <point x="256" y="242"/>
      <point x="256" y="240" type="curve"/>
      <point x="256" y="238"/>
      <point x="258" y="236"/>
      <point x="261" y="233" type="curve" smooth="yes"/>
      <point x="334" y="169"/>
      <point x="404" y="95"/>
      <point x="446" y="35" type="curve"/>
      <point x="467" y="42" type="line"/>
      <point x="445" y="90"/>
      <point x="396" y="180"/>
    </contour>
    <contour>
      <point x="171" y="240" type="curve"/>
      <point x="206" y="300"/>
      <point x="255" y="390"/>
      <point x="277" y="438" type="curve"/>
      <point x="256" y="445" type="line"/>
      <point x="214" y="385"/>
      <point x="144" y="311"/>
      <point x="71" y="247" type="curve" smooth="yes"/>
      <point x="68" y="244"/>
      <point x="66" y="242"/>
      <point x="66" y="240" type="curve"/>
      <point x="66" y="238"/>
      <point x="68" y="236"/>
      <point x="71" y="233" type="curve" smooth="yes"/>
      <point x="144" y="169"/>
      <point x="214" y="95"/>
      <point x="256" y="35" type="curve"/>
      <point x="277" y="42" type="line"/>
      <point x="255" y="90"/>
      <point x="206" y="180"/>
    </contour>
  </outline>
</glyph>
<glyph name="logicalnot" format="2">
  <advance width="683"/>
  <unicode hex="00AC"/>
  <outline>
    <contour>
      <point x="609" y="472" type="line"/>
      <point x="73" y="472" type="line"/>
      <point x="73" y="429" type="line"/>
      <point x="566" y="429" type="line"/>
      <point x="566" y="184" type="line"/>
      <point x="609" y="184" type="line"/>
    </contour>
  </outline>
</glyph>
<glyph name="registered" format="2">
  <advance width="804"/>
  <unicode hex="00AE"/>
  <outline>
    <contour>
      <point x="98" y="340" type="curve" smooth="yes"/>
      <point x="98" y="507"/>
      <point x="235" y="644"/>
      <point x="402" y="644" type="curve" smooth="yes"/>
      <point x="569" y="644"/>
      <point x="706" y="507"/>
      <point x="706" y="340" type="curve" smooth="yes"/>
      <point x="706" y="173"/>
      <point x="569" y="36"/>
      <point x="402" y="36" type="curve" smooth="yes"/>
      <point x="235" y="36"/>
      <point x="98" y="173"/>
    </contour>
    <contour>
      <point x="50" y="340" type="curve" smooth="yes"/>
      <point x="50" y="147"/>
      <point x="209" y="-12"/>
      <point x="402" y="-12" type="curve" smooth="yes"/>
      <point x="595" y="-12"/>
      <point x="754" y="147"/>
      <point x="754" y="340" type="curve" smooth="yes"/>
      <point x="754" y="533"/>
      <point x="595" y="692"/>
      <point x="402" y="692" type="curve" smooth="yes"/>
      <point x="209" y="692"/>
      <point x="50" y="533"/>
    </contour>
    <contour>
      <point x="346" y="208" type="curve" smooth="yes"/>
      <point x="346" y="355" type="line"/>
      <point x="392" y="355" type="line" smooth="yes"/>
      <point x="437" y="355"/>
      <point x="458" y="307"/>
      <point x="460" y="259" type="curve" smooth="yes"/>
      <point x="463" y="188"/>
      <point x="483" y="151"/>
      <point x="534" y="151" type="curve" smooth="yes"/>
      <point x="577" y="151"/>
      <point x="599" y="184"/>
      <point x="599" y="233" type="curve" smooth="yes"/>
      <point x="599" y="241"/>
      <point x="598" y="248"/>
      <point x="597" y="257" type="curve"/>
      <point x="580" y="257" type="line"/>
      <point x="580" y="224"/>
      <point x="575" y="189"/>
      <point x="554" y="189" type="curve" smooth="yes"/>
      <point x="530" y="189"/>
      <point x="524" y="231"/>
      <point x="521" y="257" type="curve" smooth="yes"/>
      <point x="515" y="304"/>
      <point x="491" y="348"/>
      <point x="448" y="361" type="curve"/>
      <point x="448" y="367" type="line"/>
      <point x="503" y="373"/>
      <point x="528" y="409"/>
      <point x="528" y="451" type="curve" smooth="yes"/>
      <point x="528" y="511"/>
      <point x="482" y="545"/>
      <point x="395" y="545" type="curve" smooth="yes"/>
      <point x="240" y="545" type="line"/>
      <point x="240" y="525" type="line"/>
      <point x="262" y="525" type="line" smooth="yes"/>
      <point x="289" y="525"/>
      <point x="291" y="521"/>
      <point x="291" y="497" type="curve" smooth="yes"/>
      <point x="291" y="208" type="line" smooth="yes"/>
      <point x="291" y="181"/>
      <point x="289" y="179"/>
      <point x="262" y="179" type="curve" smooth="yes"/>
      <point x="240" y="179" type="line"/>
      <point x="240" y="159" type="line"/>
      <point x="401" y="159" type="line"/>
      <point x="401" y="179" type="line"/>
      <point x="374" y="179" type="line" smooth="yes"/>
      <point x="348" y="179"/>
      <point x="346" y="181"/>
    </contour>
    <contour>
      <point x="390" y="375" type="curve" smooth="yes"/>
      <point x="346" y="375" type="line"/>
      <point x="346" y="501" type="line" smooth="yes"/>
      <point x="346" y="520"/>
      <point x="373" y="524"/>
      <point x="383" y="524" type="curve" smooth="yes"/>
      <point x="390" y="524" type="line" smooth="yes"/>
      <point x="435" y="524"/>
      <point x="467" y="505"/>
      <point x="467" y="451" type="curve" smooth="yes"/>
      <point x="467" y="396"/>
      <point x="435" y="375"/>
    </contour>
  </outline>
</glyph>
<glyph name="macron" format="2">
  <advance width="341"/>
  <unicode hex="00AF"/>
  <outline>
    <contour>
      <point x="324" y="590" type="line"/>
      <point x="17" y="590" type="line"/>
      <point x="17" y="552" type="line"/>
      <point x="324" y="552" type="line"/>
    </contour>
  </outline>
</glyph>
<glyph name="micro" format="2">
  <advance width="551"/>
  <unicode hex="00B5"/>
  <outline>
    <contour>
      <point x="516" y="115" type="line"/>
      <point x="501" y="36"/>
      <point x="486" y="19"/>
      <point x="448" y="19" type="curve" smooth="yes"/>
      <point x="423" y="19"/>
      <point x="411" y="46"/>
      <point x="411" y="99" type="curve" smooth="yes"/>
      <point x="411" y="449" type="line"/>
      <point x="333" y="449" type="line"/>
      <point x="333" y="222" type="line" smooth="yes"/>
      <point x="333" y="97"/>
      <point x="277" y="21"/>
      <point x="200" y="21" type="curve" smooth="yes"/>
      <point x="151" y="21"/>
      <point x="138" y="51"/>
      <point x="138" y="155" type="curve" smooth="yes"/>
      <point x="138" y="449" type="line"/>
      <point x="62" y="449" type="line"/>
      <point x="62" y="69" type="line" smooth="yes"/>
      <point x="62" y="-75"/>
      <point x="32" y="-133"/>
      <point x="32" y="-179" type="curve" smooth="yes"/>
      <point x="32" y="-212"/>
      <point x="46" y="-234"/>
      <point x="74" y="-234" type="curve" smooth="yes"/>
      <point x="101" y="-234"/>
      <point x="103" y="-214"/>
      <point x="98" y="-179" type="curve" smooth="yes"/>
      <point x="91" y="-134"/>
      <point x="87" y="-75"/>
      <point x="87" y="0" type="curve" smooth="yes"/>
      <point x="87" y="64" type="line"/>
      <point x="111" y="11"/>
      <point x="151" y="-5"/>
      <point x="203" y="-5" type="curve" smooth="yes"/>
      <point x="266" y="-5"/>
      <point x="301" y="19"/>
      <point x="329" y="106" type="curve"/>
      <point x="334" y="124" type="line"/>
      <point x="334" y="121" type="line" smooth="yes"/>
      <point x="334" y="41"/>
      <point x="373" y="-6"/>
      <point x="424" y="-6" type="curve" smooth="yes"/>
      <point x="491" y="-6"/>
      <point x="521" y="-4"/>
      <point x="531" y="110" type="curve"/>
    </contour>
  </outline>
</glyph>
<glyph name="paragraph" format="2">
  <advance width="508"/>
  <unicode hex="00B6"/>
  <outline>
    <contour>
      <point x="258" y="328" type="line"/>
      <point x="257" y="0" type="line"/>
      <point x="298" y="0" type="line"/>
      <point x="299" y="610" type="line" smooth="yes"/>
      <point x="299" y="640"/>
      <point x="313" y="645"/>
      <point x="328" y="645" type="curve" smooth="yes"/>
      <point x="343" y="645"/>
      <point x="367" y="640"/>
      <point x="367" y="610" type="curve" smooth="yes"/>
      <point x="366" y="0" type="line"/>
      <point x="407" y="0" type="line"/>
      <point x="408" y="595" type="line"/>
      <point x="408" y="640"/>
      <point x="413" y="645"/>
      <point x="458" y="645" type="curve" smooth="yes"/>
      <point x="468" y="645" type="line"/>
      <point x="468" y="680" type="line"/>
      <point x="246" y="680" type="line" smooth="yes"/>
      <point x="126" y="680"/>
      <point x="40" y="614"/>
      <point x="40" y="504" type="curve" smooth="yes"/>
      <point x="40" y="394"/>
      <point x="126" y="328"/>
      <point x="246" y="328" type="curve" smooth="yes"/>
    </contour>
  </outline>
</glyph>
<glyph name="cedilla" format="2">
  <advance width="233"/>
  <unicode hex="00B8"/>
  <outline>
    <contour>
      <point x="87" y="-94" type="line"/>
      <point x="95" y="-102" type="line"/>
      <point x="137" y="-86"/>
      <point x="161" y="-104"/>
      <point x="161" y="-152" type="curve" smooth="yes"/>
      <point x="161" y="-190"/>
      <point x="137" y="-212"/>
      <point x="102" y="-212" type="curve" smooth="yes"/>
      <point x="79" y="-212"/>
      <point x="47" y="-198"/>
      <point x="19" y="-166" type="curve"/>
      <point x="0" y="-187" type="line"/>
      <point x="24" y="-218"/>
      <point x="70" y="-239"/>
      <point x="110" y="-239" type="curve" smooth="yes"/>
      <point x="168" y="-239"/>
      <point x="233" y="-212"/>
      <point x="233" y="-148" type="curve" smooth="yes"/>
      <point x="233" y="-106"/>
      <point x="196" y="-58"/>
      <point x="119" y="-72" type="curve"/>
      <point x="119" y="12" type="line"/>
      <point x="87" y="12" type="line"/>
    </contour>
  </outline>
</glyph>
<glyph name="onesuperior" format="2">
  <advance width="349"/>
  <unicode hex="00B9"/>
  <outline>
    <contour>
      <point x="161" y="693" type="line"/>
      <point x="50" y="541" type="line"/>
      <point x="68" y="526" type="line"/>
      <point x="133" y="600" type="line"/>
      <point x="143" y="613"/>
      <point x="153" y="605"/>
      <point x="153" y="596" type="curve" smooth="yes"/>
      <point x="153" y="299" type="line" smooth="yes"/>
      <point x="153" y="276"/>
      <point x="143" y="266"/>
      <point x="119" y="266" type="curve" smooth="yes"/>
      <point x="86" y="266" type="line"/>
      <point x="86" y="243" type="line"/>
      <point x="282" y="243" type="line"/>
      <point x="282" y="266" type="line"/>
      <point x="249" y="266" type="line" smooth="yes"/>
      <point x="225" y="266"/>
      <point x="215" y="276"/>
      <point x="215" y="299" type="curve" smooth="yes"/>
      <point x="215" y="693" type="line"/>
    </contour>
  </outline>
</glyph>
<glyph name="ordmasculine" format="2">
  <advance width="343"/>
  <unicode hex="00BA"/>
  <outline>
    <contour>
      <point x="171" y="385" type="qcurve" smooth="yes"/>
      <point x="137" y="385"/>
      <point x="81" y="425"/>
      <point x="49" y="492"/>
      <point x="49" y="532" type="qcurve" smooth="yes"/>
      <point x="49" y="572"/>
      <point x="81" y="640"/>
      <point x="137" y="680"/>
      <point x="171" y="680" type="qcurve" smooth="yes"/>
      <point x="204" y="680"/>
      <point x="262" y="640"/>
      <point x="294" y="572"/>
      <point x="294" y="532" type="qcurve" smooth="yes"/>
      <point x="294" y="492"/>
      <point x="262" y="425"/>
      <point x="204" y="385"/>
    </contour>
    <contour>
      <point x="171" y="403" type="qcurve" smooth="yes"/>
      <point x="206" y="403"/>
      <point x="237" y="481"/>
      <point x="237" y="532" type="qcurve" smooth="yes"/>
      <point x="237" y="584"/>
      <point x="206" y="661"/>
      <point x="171" y="661" type="qcurve" smooth="yes"/>
      <point x="136" y="661"/>
      <point x="106" y="585"/>
      <point x="106" y="532" type="qcurve" smooth="yes"/>
      <point x="106" y="480"/>
      <point x="136" y="403"/>
    </contour>
    <contour>
      <point x="49" y="324" type="line"/>
      <point x="49" y="348" type="line"/>
      <point x="294" y="348" type="line"/>
      <point x="294" y="324" type="line"/>
    </contour>
  </outline>
</glyph>
<glyph name="onequarter" format="2">
  <advance width="783"/>
  <unicode hex="00BC"/>
  <outline>
    <contour>
      <point x="132" y="711" type="line"/>
      <point x="30" y="571" type="line"/>
      <point x="46" y="558" type="line"/>
      <point x="107" y="626" type="line"/>
      <point x="116" y="638"/>
      <point x="124" y="630"/>
      <point x="124" y="622" type="curve" smooth="yes"/>
      <point x="124" y="350" type="line" smooth="yes"/>
      <point x="124" y="328"/>
      <point x="115" y="319"/>
      <point x="94" y="319" type="curve" smooth="yes"/>
      <point x="63" y="319" type="line"/>
      <point x="63" y="298" type="line"/>
      <point x="243" y="298" type="line"/>
      <point x="243" y="319" type="line"/>
      <point x="212" y="319" type="line" smooth="yes"/>
      <point x="191" y="319"/>
      <point x="182" y="328"/>
      <point x="182" y="350" type="curve" smooth="yes"/>
      <point x="182" y="711" type="line"/>
    </contour>
    <contour>
      <point x="169" y="0" type="line"/>
      <point x="597" y="718" type="line"/>
      <point x="561" y="718" type="line"/>
      <point x="133" y="0" type="line"/>
    </contour>
    <contour>
      <point x="658" y="130" type="line"/>
      <point x="753" y="130" type="line"/>
      <point x="753" y="154" type="line"/>
      <point x="658" y="154" type="line"/>
      <point x="658" y="344" type="line" smooth="yes"/>
      <point x="658" y="350"/>
      <point x="655" y="352"/>
      <point x="651" y="346" type="curve" smooth="yes"/>
      <point x="592" y="265" type="line"/>
      <point x="592" y="154" type="line"/>
      <point x="443" y="154" type="line"/>
      <point x="518" y="267"/>
      <point x="599" y="351"/>
      <point x="652" y="462" type="curve"/>
      <point x="543" y="462" type="line"/>
      <point x="525" y="357"/>
      <point x="483" y="265"/>
      <point x="415" y="154" type="curve"/>
      <point x="415" y="130" type="line"/>
      <point x="592" y="130" type="line"/>
      <point x="592" y="74" type="line" smooth="yes"/>
      <point x="592" y="51"/>
      <point x="582" y="41"/>
      <point x="557" y="41" type="curve" smooth="yes"/>
      <point x="522" y="41" type="line"/>
      <point x="522" y="19" type="line"/>
      <point x="728" y="19" type="line"/>
      <point x="728" y="41" type="line"/>
      <point x="693" y="41" type="line" smooth="yes"/>
      <point x="668" y="41"/>
      <point x="658" y="51"/>
      <point x="658" y="74" type="curve" smooth="yes"/>
    </contour>
  </outline>
</glyph>
<glyph name="onehalf" format="2">
  <advance width="749"/>
  <unicode hex="00BD"/>
  <outline>
    <contour>
      <point x="132" y="711" type="line"/>
      <point x="30" y="571" type="line"/>
      <point x="46" y="558" type="line"/>
      <point x="107" y="626" type="line"/>
      <point x="116" y="638"/>
      <point x="124" y="630"/>
      <point x="124" y="622" type="curve" smooth="yes"/>
      <point x="124" y="350" type="line" smooth="yes"/>
      <point x="124" y="328"/>
      <point x="115" y="319"/>
      <point x="94" y="319" type="curve" smooth="yes"/>
      <point x="63" y="319" type="line"/>
      <point x="63" y="298" type="line"/>
      <point x="243" y="298" type="line"/>
      <point x="243" y="319" type="line"/>
      <point x="212" y="319" type="line" smooth="yes"/>
      <point x="191" y="319"/>
      <point x="182" y="328"/>
      <point x="182" y="350" type="curve" smooth="yes"/>
      <point x="182" y="711" type="line"/>
    </contour>
    <contour>
      <point x="169" y="0" type="line"/>
      <point x="597" y="718" type="line"/>
      <point x="561" y="718" type="line"/>
      <point x="133" y="0" type="line"/>
    </contour>
    <contour>
      <point x="506" y="356" type="curve" smooth="yes"/>
      <point x="490" y="356"/>
      <point x="486" y="365"/>
      <point x="499" y="380" type="curve" smooth="yes"/>
      <point x="518" y="401"/>
      <point x="548" y="415"/>
      <point x="578" y="415" type="curve" smooth="yes"/>
      <point x="614" y="415"/>
      <point x="646" y="394"/>
      <point x="646" y="334" type="curve" smooth="yes"/>
      <point x="646" y="275"/>
      <point x="631" y="239"/>
      <point x="553" y="181" type="curve" smooth="yes"/>
      <point x="508" y="147"/>
      <point x="454" y="85"/>
      <point x="449" y="23" type="curve"/>
      <point x="469" y="23" type="line"/>
      <point x="480" y="56"/>
      <point x="500" y="69"/>
      <point x="521" y="69" type="curve" smooth="yes"/>
      <point x="565" y="69"/>
      <point x="577" y="15"/>
      <point x="635" y="15" type="curve" smooth="yes"/>
      <point x="706" y="15"/>
      <point x="719" y="98"/>
      <point x="719" y="140" type="curve"/>
      <point x="700" y="140" type="line"/>
      <point x="697" y="96"/>
      <point x="678" y="74"/>
      <point x="653" y="74" type="curve" smooth="yes"/>
      <point x="616" y="74"/>
      <point x="589" y="111"/>
      <point x="552" y="117" type="curve" smooth="yes"/>
      <point x="530" y="121"/>
      <point x="523" y="128"/>
      <point x="535" y="140" type="curve" smooth="yes"/>
      <point x="559" y="163"/>
      <point x="586" y="178"/>
      <point x="614" y="194" type="curve" smooth="yes"/>
      <point x="664" y="222"/>
      <point x="714" y="266"/>
      <point x="714" y="325" type="curve" smooth="yes"/>
      <point x="714" y="391"/>
      <point x="653" y="435"/>
      <point x="585" y="435" type="curve" smooth="yes"/>
      <point x="510" y="435"/>
      <point x="456" y="378"/>
      <point x="456" y="323" type="curve" smooth="yes"/>
      <point x="456" y="287"/>
      <point x="481" y="266"/>
      <point x="506" y="266" type="curve" smooth="yes"/>
      <point x="532" y="266"/>
      <point x="551" y="285"/>
      <point x="551" y="311" type="curve" smooth="yes"/>
      <point x="551" y="336"/>
      <point x="532" y="356"/>
    </contour>
  </outline>
</glyph>
<glyph name="questiondown" format="2">
  <advance width="408"/>
  <unicode hex="00BF"/>
  <outline>
    <contour>
      <point x="121" y="124" type="curve" smooth="yes"/>
      <point x="121" y="39"/>
      <point x="168" y="16"/>
      <point x="212" y="16" type="curve" smooth="yes"/>
      <point x="277" y="16"/>
      <point x="310" y="46"/>
      <point x="310" y="69" type="curve" smooth="yes"/>
      <point x="310" y="92"/>
      <point x="255" y="97"/>
      <point x="255" y="143" type="curve" smooth="yes"/>
      <point x="255" y="180"/>
      <point x="284" y="204"/>
      <point x="315" y="204" type="curve" smooth="yes"/>
      <point x="357" y="204"/>
      <point x="383" y="169"/>
      <point x="383" y="123" type="curve" smooth="yes"/>
      <point x="383" y="50"/>
      <point x="302" y="-12"/>
      <point x="199" y="-12" type="curve" smooth="yes"/>
      <point x="93" y="-12"/>
      <point x="15" y="42"/>
      <point x="15" y="134" type="curve" smooth="yes"/>
      <point x="15" y="297"/>
      <point x="210" y="300"/>
      <point x="196" y="464" type="curve"/>
      <point x="232" y="464" type="line"/>
      <point x="246" y="326"/>
      <point x="121" y="282"/>
    </contour>
    <contour>
      <point x="271" y="625" type="curve" smooth="yes"/>
      <point x="271" y="659"/>
      <point x="243" y="687"/>
      <point x="209" y="687" type="curve" smooth="yes"/>
      <point x="175" y="687"/>
      <point x="147" y="659"/>
      <point x="147" y="625" type="curve" smooth="yes"/>
      <point x="147" y="591"/>
      <point x="175" y="563"/>
      <point x="209" y="563" type="curve" smooth="yes"/>
      <point x="243" y="563"/>
      <point x="271" y="591"/>
    </contour>
  </outline>
</glyph>
<glyph name="Ccedilla" format="2">
  <advance width="593"/>
  <unicode hex="00C7"/>
  <outline>
    <contour>
      <point x="284" y="-94" type="line"/>
      <point x="292" y="-102" type="line"/>
      <point x="334" y="-86"/>
      <point x="358" y="-104"/>
      <point x="358" y="-152" type="curve" smooth="yes"/>
      <point x="358" y="-190"/>
      <point x="334" y="-212"/>
      <point x="299" y="-212" type="curve" smooth="yes"/>
      <point x="276" y="-212"/>
      <point x="244" y="-198"/>
      <point x="216" y="-166" type="curve"/>
      <point x="197" y="-187" type="line"/>
      <point x="221" y="-218"/>
      <point x="267" y="-239"/>
      <point x="307" y="-239" type="curve" smooth="yes"/>
      <point x="365" y="-239"/>
      <point x="430" y="-212"/>
      <point x="430" y="-148" type="curve" smooth="yes"/>
      <point x="430" y="-106"/>
      <point x="393" y="-58"/>
      <point x="316" y="-72" type="curve"/>
      <point x="316" y="12" type="line"/>
      <point x="284" y="12" type="line"/>
    </contour>
    <contour>
      <point x="555" y="208" type="curve"/>
      <point x="518" y="214" type="line"/>
      <point x="501" y="102"/>
      <point x="426" y="30"/>
      <point x="326" y="30" type="curve" smooth="yes"/>
      <point x="239" y="30"/>
      <point x="155" y="90"/>
      <point x="155" y="340" type="curve" smooth="yes"/>
      <point x="155" y="590"/>
      <point x="233" y="656"/>
      <point x="321" y="656" type="curve" smooth="yes"/>
      <point x="399" y="656"/>
      <point x="481" y="609"/>
      <point x="508" y="436" type="curve"/>
      <point x="548" y="436" type="line"/>
      <point x="548" y="692" type="line"/>
      <point x="513" y="692" type="line"/>
      <point x="505" y="678" type="line" smooth="yes"/>
      <point x="485" y="644"/>
      <point x="473" y="641"/>
      <point x="429" y="664" type="curve" smooth="yes"/>
      <point x="402" y="678"/>
      <point x="374" y="692"/>
      <point x="321" y="692" type="curve" smooth="yes"/>
      <point x="144" y="692"/>
      <point x="38" y="535"/>
      <point x="38" y="340" type="curve" smooth="yes"/>
      <point x="38" y="121"/>
      <point x="161" y="-12"/>
      <point x="321" y="-12" type="curve" smooth="yes"/>
      <point x="436" y="-12"/>
      <point x="535" y="63"/>
    </contour>
  </outline>
</glyph>
<glyph name="Oslash" format="2">
  <advance width="645"/>
  <unicode hex="00D8"/>
  <outline>
    <contour>
      <point x="40" y="340" type="curve" smooth="yes"/>
      <point x="40" y="227"/>
      <point x="75" y="126"/>
      <point x="140" y="62" type="curve"/>
      <point x="80" y="-41" type="line"/>
      <point x="114" y="-61" type="line"/>
      <point x="170" y="36" type="line"/>
      <point x="212" y="5"/>
      <point x="263" y="-12"/>
      <point x="323" y="-12" type="curve" smooth="yes"/>
      <point x="503" y="-12"/>
      <point x="605" y="146"/>
      <point x="605" y="340" type="curve" smooth="yes"/>
      <point x="605" y="453"/>
      <point x="571" y="554"/>
      <point x="506" y="618" type="curve"/>
      <point x="566" y="721" type="line"/>
      <point x="532" y="741" type="line"/>
      <point x="476" y="644" type="line"/>
      <point x="434" y="675"/>
      <point x="383" y="692"/>
      <point x="323" y="692" type="curve" smooth="yes"/>
      <point x="143" y="692"/>
      <point x="40" y="535"/>
    </contour>
    <contour>
      <point x="207" y="100" type="curve"/>
      <point x="455" y="529" type="line"/>
      <point x="467" y="483"/>
      <point x="473" y="421"/>
      <point x="473" y="340" type="curve" smooth="yes"/>
      <point x="473" y="90"/>
      <point x="413" y="20"/>
      <point x="323" y="20" type="curve" smooth="yes"/>
      <point x="274" y="20"/>
      <point x="234" y="41"/>
    </contour>
    <contour>
      <point x="190" y="150" type="line"/>
      <point x="178" y="197"/>
      <point x="172" y="259"/>
      <point x="172" y="340" type="curve" smooth="yes"/>
      <point x="172" y="590"/>
      <point x="233" y="660"/>
      <point x="323" y="660" type="curve" smooth="yes"/>
      <point x="372" y="660"/>
      <point x="412" y="639"/>
      <point x="439" y="580" type="curve"/>
    </contour>
  </outline>
</glyph>
<glyph name="Thorn" format="2">
  <advance width="582"/>
  <unicode hex="00DE"/>
  <outline>
    <contour>
      <point x="223" y="85" type="curve" smooth="yes"/>
      <point x="223" y="167" type="line"/>
      <point x="309" y="167" type="line" smooth="yes"/>
      <point x="464" y="167"/>
      <point x="545" y="234"/>
      <point x="545" y="344" type="curve" smooth="yes"/>
      <point x="545" y="454"/>
      <point x="464" y="520"/>
      <point x="309" y="520" type="curve" smooth="yes"/>
      <point x="223" y="520" type="line"/>
      <point x="223" y="595" type="line" smooth="yes"/>
      <point x="223" y="640"/>
      <point x="228" y="645"/>
      <point x="273" y="645" type="curve" smooth="yes"/>
      <point x="333" y="645" type="line"/>
      <point x="333" y="680" type="line"/>
      <point x="38" y="680" type="line"/>
      <point x="38" y="645" type="line"/>
      <point x="78" y="645" type="line" smooth="yes"/>
      <point x="116" y="645"/>
      <point x="125" y="641"/>
      <point x="127" y="614" type="curve"/>
      <point x="128" y="489"/>
      <point x="128" y="460"/>
      <point x="128" y="415" type="curve" smooth="yes"/>
      <point x="128" y="85" type="line" smooth="yes"/>
      <point x="128" y="40"/>
      <point x="123" y="35"/>
      <point x="78" y="35" type="curve" smooth="yes"/>
      <point x="38" y="35" type="line"/>
      <point x="38" y="0" type="line"/>
      <point x="333" y="0" type="line"/>
      <point x="333" y="35" type="line"/>
      <point x="273" y="35" type="line" smooth="yes"/>
      <point x="228" y="35"/>
      <point x="223" y="40"/>
    </contour>
    <contour>
      <point x="223" y="204" type="line"/>
      <point x="223" y="444" type="line" smooth="yes"/>
      <point x="223" y="476"/>
      <point x="271" y="484"/>
      <point x="292" y="484" type="curve" smooth="yes"/>
      <point x="299" y="484" type="line" smooth="yes"/>
      <point x="374" y="484"/>
      <point x="430" y="444"/>
      <point x="430" y="344" type="curve" smooth="yes"/>
      <point x="430" y="244"/>
      <point x="374" y="204"/>
      <point x="299" y="204" type="curve" smooth="yes"/>
    </contour>
  </outline>
</glyph>
<glyph name="germandbls" format="2">
  <advance width="537"/>
  <unicode hex="00DF"/>
  <outline>
    <contour>
      <point x="362" y="358" type="curve"/>
      <point x="362" y="367" type="line"/>
      <point x="422" y="387"/>
      <point x="468" y="439"/>
      <point x="468" y="512" type="curve" smooth="yes"/>
      <point x="468" y="613"/>
      <point x="398" y="693"/>
      <point x="292" y="693" type="curve" smooth="yes"/>
      <point x="199" y="693"/>
      <point x="101" y="643"/>
      <point x="101" y="498" type="curve" smooth="yes"/>
      <point x="101" y="85" type="line" smooth="yes"/>
      <point x="101" y="40"/>
      <point x="96" y="35"/>
      <point x="51" y="35" type="curve" smooth="yes"/>
      <point x="21" y="35" type="line"/>
      <point x="21" y="0" type="line"/>
      <point x="196" y="0" type="line"/>
      <point x="196" y="552" type="line" smooth="yes"/>
      <point x="196" y="620"/>
      <point x="228" y="667"/>
      <point x="285" y="667" type="curve" smooth="yes"/>
      <point x="364" y="667"/>
      <point x="372" y="594"/>
      <point x="372" y="508" type="curve" smooth="yes"/>
      <point x="372" y="415"/>
      <point x="323" y="373"/>
      <point x="270" y="373" type="curve" smooth="yes"/>
      <point x="260" y="373" type="line"/>
      <point x="260" y="344" type="line"/>
      <point x="274" y="344" type="line" smooth="yes"/>
      <point x="364" y="344"/>
      <point x="418" y="308"/>
      <point x="418" y="175" type="curve" smooth="yes"/>
      <point x="418" y="65"/>
      <point x="401" y="19"/>
      <point x="364" y="19" type="curve" smooth="yes"/>
      <point x="345" y="19"/>
      <point x="342.834" y="41.9898"/>
      <point x="342" y="57" type="curve" smooth="yes"/>
      <point x="340.834" y="77.9914"/>
      <point x="326" y="107"/>
      <point x="295" y="107" type="curve" smooth="yes"/>
      <point x="263" y="107"/>
      <point x="242" y="87"/>
      <point x="242" y="54" type="curve" smooth="yes"/>
      <point x="242" y="10"/>
      <point x="294" y="-12"/>
      <point x="355" y="-12" type="curve" smooth="yes"/>
      <point x="437" y="-12"/>
      <point x="522" y="60"/>
      <point x="522" y="174" type="curve" smooth="yes"/>
      <point x="522" y="272"/>
      <point x="454" y="339"/>
    </contour>
  </outline>
</glyph>
<glyph name="ae" format="2">
  <advance width="822"/>
  <unicode hex="00E6"/>
  <outline>
    <contour>
      <point x="351" y="0" type="line"/>
      <point x="785" y="0" type="line"/>
      <point x="789" y="202" type="line"/>
      <point x="764" y="202" type="line"/>
      <point x="747" y="114"/>
      <point x="732" y="26"/>
      <point x="596" y="26" type="curve" smooth="yes"/>
      <point x="552" y="26" type="line" smooth="yes"/>
      <point x="531" y="26"/>
      <point x="511" y="40"/>
      <point x="511" y="56" type="curve" smooth="yes"/>
      <point x="511" y="236" type="line"/>
      <point x="546" y="236" type="line" smooth="yes"/>
      <point x="592" y="236"/>
      <point x="621" y="191"/>
      <point x="627" y="126" type="curve"/>
      <point x="656" y="126" type="line"/>
      <point x="656" y="368" type="line"/>
      <point x="627" y="368" type="line"/>
      <point x="621" y="304"/>
      <point x="595" y="261"/>
      <point x="546" y="261" type="curve" smooth="yes"/>
      <point x="511" y="261" type="line"/>
      <point x="511" y="435" type="line" smooth="yes"/>
      <point x="511" y="452"/>
      <point x="540" y="464"/>
      <point x="563" y="464" type="curve" smooth="yes"/>
      <point x="599" y="464" type="line" smooth="yes"/>
      <point x="685" y="464"/>
      <point x="729" y="411"/>
      <point x="751" y="321" type="curve"/>
      <point x="776" y="321" type="line"/>
      <point x="771" y="490" type="line"/>
      <point x="323" y="490" type="line"/>
      <point x="322" y="464" type="line"/>
      <point x="346" y="464" type="line" smooth="yes"/>
      <point x="392" y="464"/>
      <point x="400" y="460"/>
      <point x="368" y="412" type="curve" smooth="yes"/>
      <point x="147" y="76" type="line" smooth="yes"/>
      <point x="122" y="38"/>
      <point x="107" y="25"/>
      <point x="42" y="25" type="curve" smooth="yes"/>
      <point x="33" y="25" type="line"/>
      <point x="33" y="0" type="line"/>
      <point x="238" y="0" type="line"/>
      <point x="238" y="25" type="line"/>
      <point x="219" y="25" type="line" smooth="yes"/>
      <point x="172" y="25"/>
      <point x="156" y="34"/>
      <point x="188" y="82" type="curve" smooth="yes"/>
      <point x="237" y="156" type="line"/>
      <point x="425" y="156" type="line"/>
      <point x="425" y="61" type="line" smooth="yes"/>
      <point x="425" y="29"/>
      <point x="421" y="25"/>
      <point x="384" y="25" type="curve" smooth="yes"/>
      <point x="351" y="25" type="line"/>
    </contour>
    <contour>
      <point x="397" y="403" type="line" smooth="yes"/>
      <point x="418" y="436"/>
      <point x="425" y="436"/>
      <point x="425" y="398" type="curve" smooth="yes"/>
      <point x="425" y="181" type="line"/>
      <point x="252" y="181" type="line"/>
    </contour>
  </outline>
</glyph>
<glyph name="eth" format="2">
  <advance width="535"/>
  <unicode hex="00F0"/>
  <outline>
    <contour>
      <point x="31" y="490" type="line"/>
      <point x="31" y="464" type="line"/>
      <point x="63" y="464" type="line" smooth="yes"/>
      <point x="101" y="464"/>
      <point x="105" y="461"/>
      <point x="105" y="429" type="curve" smooth="yes"/>
      <point x="105" y="270" type="line"/>
      <point x="23" y="270" type="line"/>
      <point x="23" y="223" type="line"/>
      <point x="105" y="223" type="line"/>
      <point x="105" y="61" type="line" smooth="yes"/>
      <point x="105" y="29"/>
      <point x="101" y="25"/>
      <point x="63" y="25" type="curve" smooth="yes"/>
      <point x="31" y="25" type="line"/>
      <point x="31" y="0" type="line"/>
      <point x="252" y="0" type="line" smooth="yes"/>
      <point x="428" y="0"/>
      <point x="504" y="115"/>
      <point x="504" y="245" type="curve" smooth="yes"/>
      <point x="504" y="374"/>
      <point x="428" y="490"/>
      <point x="252" y="490" type="curve" smooth="yes"/>
    </contour>
    <contour>
      <point x="244" y="26" type="curve" smooth="yes"/>
      <point x="239" y="26" type="line" smooth="yes"/>
      <point x="221" y="26"/>
      <point x="182" y="32"/>
      <point x="182" y="54" type="curve" smooth="yes"/>
      <point x="182" y="223" type="line"/>
      <point x="264" y="223" type="line"/>
      <point x="264" y="270" type="line"/>
      <point x="182" y="270" type="line"/>
      <point x="182" y="435" type="line" smooth="yes"/>
      <point x="182" y="458"/>
      <point x="222" y="464"/>
      <point x="239" y="464" type="curve" smooth="yes"/>
      <point x="244" y="464" type="line" smooth="yes"/>
      <point x="358" y="464"/>
      <point x="411" y="403"/>
      <point x="411" y="245" type="curve" smooth="yes"/>
      <point x="411" y="86"/>
      <point x="358" y="26"/>
    </contour>
  </outline>
</glyph>
<glyph name="divide" format="2">
  <advance width="586"/>
  <unicode hex="00F7"/>
  <outline>
    <contour>
      <point x="235" y="413" type="curve" smooth="yes"/>
      <point x="235" y="381"/>
      <point x="261" y="355"/>
      <point x="293" y="355" type="curve" smooth="yes"/>
      <point x="325" y="355"/>
      <point x="351" y="381"/>
      <point x="351" y="413" type="curve" smooth="yes"/>
      <point x="351" y="445"/>
      <point x="325" y="471"/>
      <point x="293" y="471" type="curve" smooth="yes"/>
      <point x="261" y="471"/>
      <point x="235" y="445"/>
    </contour>
    <contour>
      <point x="235" y="87" type="curve" smooth="yes"/>
      <point x="235" y="55"/>
      <point x="261" y="29"/>
      <point x="293" y="29" type="curve" smooth="yes"/>
      <point x="325" y="29"/>
      <point x="351" y="55"/>
      <point x="351" y="87" type="curve" smooth="yes"/>
      <point x="351" y="119"/>
      <point x="325" y="145"/>
      <point x="293" y="145" type="curve" smooth="yes"/>
      <point x="261" y="145"/>
      <point x="235" y="119"/>
    </contour>
    <contour>
      <point x="40" y="275" type="line"/>
      <point x="40" y="225" type="line"/>
      <point x="546" y="225" type="line"/>
      <point x="546" y="275" type="line"/>
    </contour>
  </outline>
</glyph>
<glyph name="oslash" format="2">
  <advance width="527"/>
  <unicode hex="00F8"/>
  <anchor x="264" y="541" name="t.dieresis"/>
  <anchor x="264" y="527" name="t.asciicircum_1"/>
  <outline>
    <contour>
      <point x="33" y="245" type="curve" smooth="yes"/>
      <point x="33" y="163"/>
      <point x="61" y="91"/>
      <point x="114" y="46" type="curve"/>
      <point x="65" y="-30" type="line"/>
      <point x="93" y="-45" type="line"/>
      <point x="140" y="26" type="line"/>
      <point x="173" y="4"/>
      <point x="215" y="-9"/>
      <point x="264" y="-9" type="curve" smooth="yes"/>
      <point x="411" y="-9"/>
      <point x="494" y="106"/>
      <point x="494" y="245" type="curve" smooth="yes"/>
      <point x="494" y="327"/>
      <point x="465" y="400"/>
      <point x="413" y="446" type="curve"/>
      <point x="462" y="520" type="line"/>
      <point x="434" y="534" type="line"/>
      <point x="389" y="464" type="line"/>
      <point x="354" y="486"/>
      <point x="313" y="498"/>
      <point x="264" y="498" type="curve" smooth="yes"/>
      <point x="117" y="498"/>
      <point x="33" y="385"/>
    </contour>
    <contour>
      <point x="169" y="72" type="curve"/>
      <point x="371" y="381" type="line"/>
      <point x="381" y="347"/>
      <point x="386" y="304"/>
      <point x="386" y="245" type="curve" smooth="yes"/>
      <point x="386" y="65"/>
      <point x="337" y="15"/>
      <point x="264" y="15" type="curve" smooth="yes"/>
      <point x="224" y="15"/>
      <point x="191" y="30"/>
    </contour>
    <contour>
      <point x="155" y="109" type="line"/>
      <point x="145" y="143"/>
      <point x="141" y="186"/>
      <point x="141" y="245" type="curve" smooth="yes"/>
      <point x="141" y="426"/>
      <point x="190" y="475"/>
      <point x="264" y="475" type="curve" smooth="yes"/>
      <point x="304" y="475"/>
      <point x="337" y="460"/>
      <point x="358" y="418" type="curve"/>
    </contour>
  </outline>
</glyph>
<glyph name="thorn" format="2">
  <advance width="475"/>
  <unicode hex="00FE"/>
  <outline>
    <contour>
      <point x="182" y="61" type="curve" smooth="yes"/>
      <point x="182" y="120" type="line"/>
      <point x="252" y="120" type="line" smooth="yes"/>
      <point x="378" y="120"/>
      <point x="445" y="169"/>
      <point x="445" y="248" type="curve" smooth="yes"/>
      <point x="445" y="328"/>
      <point x="378" y="374"/>
      <point x="252" y="374" type="curve" smooth="yes"/>
      <point x="182" y="374" type="line"/>
      <point x="182" y="429" type="line" smooth="yes"/>
      <point x="182" y="461"/>
      <point x="186" y="464"/>
      <point x="223" y="464" type="curve" smooth="yes"/>
      <point x="272" y="464" type="line"/>
      <point x="272" y="490" type="line"/>
      <point x="31" y="490" type="line"/>
      <point x="31" y="464" type="line"/>
      <point x="63" y="464" type="line" smooth="yes"/>
      <point x="95" y="464"/>
      <point x="102" y="462"/>
      <point x="104" y="443" type="curve"/>
      <point x="105" y="352"/>
      <point x="105" y="332"/>
      <point x="105" y="299" type="curve" smooth="yes"/>
      <point x="105" y="61" type="line" smooth="yes"/>
      <point x="105" y="29"/>
      <point x="101" y="25"/>
      <point x="63" y="25" type="curve" smooth="yes"/>
      <point x="31" y="25" type="line"/>
      <point x="31" y="0" type="line"/>
      <point x="272" y="0" type="line"/>
      <point x="272" y="25" type="line"/>
      <point x="223" y="25" type="line" smooth="yes"/>
      <point x="186" y="25"/>
      <point x="182" y="29"/>
    </contour>
    <contour>
      <point x="182" y="147" type="line"/>
      <point x="182" y="320" type="line" smooth="yes"/>
      <point x="182" y="343"/>
      <point x="221" y="348"/>
      <point x="239" y="348" type="curve" smooth="yes"/>
      <point x="244" y="348" type="line" smooth="yes"/>
      <point x="305" y="348"/>
      <point x="351" y="320"/>
      <point x="351" y="248" type="curve" smooth="yes"/>
      <point x="351" y="176"/>
      <point x="305" y="147"/>
      <point x="244" y="147" type="curve" smooth="yes"/>
    </contour>
  </outline>
</glyph>
<glyph name="uni0122" format="2">
  <advance width="687"/>
  <unicode hex="0122"/>
  <outline>
    <contour>
      <point x="470" y="187" type="line" smooth="yes"/>
      <point x="470" y="73"/>
      <point x="400" y="27"/>
      <point x="340" y="27" type="curve" smooth="yes"/>
      <point x="245" y="27"/>
      <point x="164" y="90"/>
      <point x="164" y="340" type="curve" smooth="yes"/>
      <point x="164" y="590"/>
      <point x="241" y="656"/>
      <point x="330" y="656" type="curve" smooth="yes"/>
      <point x="408" y="656"/>
      <point x="490" y="609"/>
      <point x="517" y="436" type="curve"/>
      <point x="557" y="436" type="line"/>
      <point x="557" y="692" type="line"/>
      <point x="522" y="692" type="line"/>
      <point x="514" y="677" type="line"/>
      <point x="487" y="639"/>
      <point x="482" y="641"/>
      <point x="438" y="664" type="curve" smooth="yes"/>
      <point x="411" y="679"/>
      <point x="383" y="692"/>
      <point x="330" y="692" type="curve" smooth="yes"/>
      <point x="151" y="692"/>
      <point x="47" y="535"/>
      <point x="47" y="340" type="curve" smooth="yes"/>
      <point x="47" y="146"/>
      <point x="153" y="-12"/>
      <point x="321" y="-12" type="curve" smooth="yes"/>
      <point x="370" y="-12"/>
      <point x="416" y="4"/>
      <point x="455" y="37" type="curve"/>
      <point x="488" y="63"/>
      <point x="499" y="74"/>
      <point x="527" y="7" type="curve" smooth="yes"/>
      <point x="535" y="-12" type="line"/>
      <point x="565" y="-12" type="line"/>
      <point x="565" y="272" type="line" smooth="yes"/>
      <point x="565" y="317"/>
      <point x="570" y="322"/>
      <point x="615" y="322" type="curve" smooth="yes"/>
      <point x="655" y="322" type="line"/>
      <point x="655" y="358" type="line"/>
      <point x="380" y="358" type="line"/>
      <point x="380" y="322" type="line"/>
      <point x="420" y="322" type="line" smooth="yes"/>
      <point x="465" y="322"/>
      <point x="470" y="317"/>
      <point x="470" y="272" type="curve" smooth="yes"/>
    </contour>
    <contour>
      <point x="335" y="-35" type="curve" smooth="yes"/>
      <point x="307" y="-35"/>
      <point x="282" y="-61"/>
      <point x="282" y="-89" type="curve" smooth="yes"/>
      <point x="282" y="-120"/>
      <point x="307" y="-143"/>
      <point x="345" y="-143" type="curve" smooth="yes"/>
      <point x="351" y="-143"/>
      <point x="354" y="-148"/>
      <point x="354" y="-158" type="curve" smooth="yes"/>
      <point x="354" y="-185"/>
      <point x="327" y="-211"/>
      <point x="288" y="-218" type="curve"/>
      <point x="292" y="-244" type="line"/>
      <point x="359" y="-236"/>
      <point x="406" y="-177"/>
      <point x="406" y="-110" type="curve" smooth="yes"/>
      <point x="406" y="-66"/>
      <point x="376" y="-35"/>
    </contour>
  </outline>
</glyph>
<glyph name="uni0123" format="2">
  <advance width="551"/>
  <unicode hex="0123"/>
  <anchor x="265" y="541" name="t.asciicircum_1"/>
  <anchor x="265" y="555" name="t.dieresis"/>
  <outline>
    <contour>
      <point x="299" y="236" type="line"/>
      <point x="334" y="236" type="line" smooth="yes"/>
      <point x="367" y="236"/>
      <point x="371" y="231"/>
      <point x="371" y="201" type="curve" smooth="yes"/>
      <point x="371" y="140" type="line" smooth="yes"/>
      <point x="371" y="59"/>
      <point x="320" y="26"/>
      <point x="272" y="26" type="curve" smooth="yes"/>
      <point x="197" y="26"/>
      <point x="145" y="71"/>
      <point x="145" y="250" type="curve" smooth="yes"/>
      <point x="145" y="430"/>
      <point x="194" y="476"/>
      <point x="264" y="476" type="curve" smooth="yes"/>
      <point x="327" y="476"/>
      <point x="391" y="442"/>
      <point x="414" y="317" type="curve"/>
      <point x="452" y="317" type="line"/>
      <point x="452" y="507" type="line"/>
      <point x="418" y="507" type="line"/>
      <point x="411" y="496" type="line"/>
      <point x="401" y="483"/>
      <point x="393" y="476"/>
      <point x="385" y="476" type="curve" smooth="yes"/>
      <point x="378" y="476"/>
      <point x="367" y="481"/>
      <point x="352" y="488" type="curve" smooth="yes"/>
      <point x="331" y="498"/>
      <point x="307" y="507"/>
      <point x="264" y="507" type="curve" smooth="yes"/>
      <point x="117" y="507"/>
      <point x="32" y="394"/>
      <point x="32" y="250" type="curve" smooth="yes"/>
      <point x="32" y="108"/>
      <point x="119" y="-8"/>
      <point x="257" y="-8" type="curve" smooth="yes"/>
      <point x="298" y="-8"/>
      <point x="335" y="3"/>
      <point x="367" y="28" type="curve" smooth="yes"/>
      <point x="379" y="37"/>
      <point x="387" y="42"/>
      <point x="395" y="42" type="curve" smooth="yes"/>
      <point x="404" y="42"/>
      <point x="414" y="32"/>
      <point x="425" y="7" type="curve" smooth="yes"/>
      <point x="432" y="-8" type="line"/>
      <point x="462" y="-8" type="line"/>
      <point x="462" y="201" type="line" smooth="yes"/>
      <point x="462" y="231"/>
      <point x="466" y="236"/>
      <point x="499" y="236" type="curve" smooth="yes"/>
      <point x="534" y="236" type="line"/>
      <point x="534" y="266" type="line"/>
      <point x="299" y="266" type="line"/>
    </contour>
    <contour>
      <point x="267" y="-35" type="curve" smooth="yes"/>
      <point x="239" y="-35"/>
      <point x="214" y="-61"/>
      <point x="214" y="-89" type="curve" smooth="yes"/>
      <point x="214" y="-120"/>
      <point x="239" y="-143"/>
      <point x="277" y="-143" type="curve" smooth="yes"/>
      <point x="283" y="-143"/>
      <point x="286" y="-148"/>
      <point x="286" y="-158" type="curve" smooth="yes"/>
      <point x="286" y="-185"/>
      <point x="259" y="-211"/>
      <point x="220" y="-218" type="curve"/>
      <point x="224" y="-244" type="line"/>
      <point x="291" y="-236"/>
      <point x="338" y="-177"/>
      <point x="338" y="-110" type="curve" smooth="yes"/>
      <point x="338" y="-66"/>
      <point x="308" y="-35"/>
    </contour>
  </outline>
</glyph>
<glyph name="Hbar" format="2">
  <advance width="732"/>
  <unicode hex="0126"/>
  <outline>
    <contour>
      <point x="46" y="482" type="line"/>
      <point x="690" y="482" type="line"/>
      <point x="690" y="520" type="line"/>
      <point x="46" y="520" type="line"/>
    </contour>
    <contour>
      <point x="42" y="0" type="line"/>
      <point x="317" y="0" type="line"/>
      <point x="317" y="35" type="line"/>
      <point x="277" y="35" type="line" smooth="yes"/>
      <point x="232" y="35"/>
      <point x="227" y="40"/>
      <point x="227" y="85" type="curve" smooth="yes"/>
      <point x="227" y="325" type="line"/>
      <point x="505" y="325" type="line"/>
      <point x="505" y="85" type="line" smooth="yes"/>
      <point x="505" y="40"/>
      <point x="500" y="35"/>
      <point x="455" y="35" type="curve" smooth="yes"/>
      <point x="415" y="35" type="line"/>
      <point x="415" y="0" type="line"/>
      <point x="690" y="0" type="line"/>
      <point x="690" y="35" type="line"/>
      <point x="650" y="35" type="line" smooth="yes"/>
      <point x="605" y="35"/>
      <point x="600" y="40"/>
      <point x="600" y="85" type="curve" smooth="yes"/>
      <point x="600" y="595" type="line" smooth="yes"/>
      <point x="600" y="640"/>
      <point x="605" y="645"/>
      <point x="650" y="645" type="curve" smooth="yes"/>
      <point x="690" y="645" type="line"/>
      <point x="690" y="680" type="line"/>
      <point x="415" y="680" type="line"/>
      <point x="415" y="645" type="line"/>
      <point x="455" y="645" type="line" smooth="yes"/>
      <point x="500" y="645"/>
      <point x="505" y="640"/>
      <point x="505" y="595" type="curve" smooth="yes"/>
      <point x="505" y="361" type="line"/>
      <point x="227" y="361" type="line"/>
      <point x="227" y="595" type="line" smooth="yes"/>
      <point x="227" y="640"/>
      <point x="232" y="645"/>
      <point x="277" y="645" type="curve" smooth="yes"/>
      <point x="317" y="645" type="line"/>
      <point x="317" y="680" type="line"/>
      <point x="42" y="680" type="line"/>
      <point x="42" y="645" type="line"/>
      <point x="82" y="645" type="line" smooth="yes"/>
      <point x="127" y="645"/>
      <point x="132" y="640"/>
      <point x="132" y="595" type="curve" smooth="yes"/>
      <point x="132" y="85" type="line" smooth="yes"/>
      <point x="132" y="40"/>
      <point x="127" y="35"/>
      <point x="82" y="35" type="curve" smooth="yes"/>
      <point x="42" y="35" type="line"/>
    </contour>
  </outline>
</glyph>
<glyph name="hbar" format="2">
  <advance width="588"/>
  <unicode hex="0127"/>
  <outline>
    <contour>
      <point x="25" y="0" type="line"/>
      <point x="262" y="0" type="line"/>
      <point x="262" y="32" type="line"/>
      <point x="227" y="32" type="line" smooth="yes"/>
      <point x="192" y="32"/>
      <point x="189" y="36"/>
      <point x="189" y="64" type="curve" smooth="yes"/>
      <point x="189" y="237" type="line"/>
      <point x="398" y="237" type="line"/>
      <point x="398" y="64" type="line" smooth="yes"/>
      <point x="398" y="36"/>
      <point x="395" y="32"/>
      <point x="361" y="32" type="curve" smooth="yes"/>
      <point x="327" y="32" type="line"/>
      <point x="327" y="0" type="line"/>
      <point x="563" y="0" type="line"/>
      <point x="563" y="32" type="line"/>
      <point x="528" y="32" type="line" smooth="yes"/>
      <point x="495" y="32"/>
      <point x="490" y="36"/>
      <point x="490" y="64" type="curve" smooth="yes"/>
      <point x="490" y="434" type="line" smooth="yes"/>
      <point x="490" y="464"/>
      <point x="495" y="467"/>
      <point x="528" y="467" type="curve" smooth="yes"/>
      <point x="563" y="467" type="line"/>
      <point x="563" y="498" type="line"/>
      <point x="327" y="498" type="line"/>
      <point x="327" y="467" type="line"/>
      <point x="361" y="467" type="line" smooth="yes"/>
      <point x="395" y="467"/>
      <point x="398" y="464"/>
      <point x="398" y="434" type="curve" smooth="yes"/>
      <point x="398" y="267" type="line"/>
      <point x="189" y="267" type="line"/>
      <point x="189" y="434" type="line" smooth="yes"/>
      <point x="189" y="464"/>
      <point x="192" y="467"/>
      <point x="227" y="467" type="curve" smooth="yes"/>
      <point x="262" y="467" type="line"/>
      <point x="262" y="498" type="line"/>
      <point x="25" y="498" type="line"/>
      <point x="25" y="467" type="line"/>
      <point x="59" y="467" type="line" smooth="yes"/>
      <point x="93" y="467"/>
      <point x="98" y="464"/>
      <point x="98" y="434" type="curve" smooth="yes"/>
      <point x="98" y="64" type="line" smooth="yes"/>
      <point x="98" y="36"/>
      <point x="93" y="32"/>
      <point x="59" y="32" type="curve" smooth="yes"/>
      <point x="25" y="32" type="line"/>
    </contour>
    <contour>
      <point x="41" y="353" type="line"/>
      <point x="548" y="353" type="line"/>
      <point x="548" y="383" type="line"/>
      <point x="41" y="383" type="line"/>
    </contour>
  </outline>
</glyph>
<glyph name="uni0136" format="2">
  <advance width="725"/>
  <unicode hex="0136"/>
  <outline>
    <contour>
      <point x="47" y="0" type="line"/>
      <point x="322" y="0" type="line"/>
      <point x="322" y="35" type="line"/>
      <point x="282" y="35" type="line" smooth="yes"/>
      <point x="237" y="35"/>
      <point x="233" y="40"/>
      <point x="233" y="85" type="curve" smooth="yes"/>
      <point x="232" y="236" type="line"/>
      <point x="308" y="322" type="line"/>
      <point x="474" y="88" type="line" smooth="yes"/>
      <point x="501" y="49"/>
      <point x="493" y="37"/>
      <point x="448" y="37" type="curve" smooth="yes"/>
      <point x="425" y="37" type="line"/>
      <point x="425" y="0" type="line"/>
      <point x="716" y="0" type="line"/>
      <point x="716" y="37" type="line"/>
      <point x="691" y="37" type="line" smooth="yes"/>
      <point x="635" y="37"/>
      <point x="630" y="42"/>
      <point x="586" y="104" type="curve" smooth="yes"/>
      <point x="375" y="397" type="line"/>
      <point x="537" y="581" type="line" smooth="yes"/>
      <point x="576" y="626"/>
      <point x="635" y="645"/>
      <point x="667" y="645" type="curve" smooth="yes"/>
      <point x="689" y="645" type="line"/>
      <point x="689" y="680" type="line"/>
      <point x="414" y="680" type="line"/>
      <point x="414" y="645" type="line"/>
      <point x="446" y="645" type="line" smooth="yes"/>
      <point x="526" y="645"/>
      <point x="517" y="620"/>
      <point x="469" y="566" type="curve" smooth="yes"/>
      <point x="232" y="297" type="line"/>
      <point x="232" y="595" type="line" smooth="yes"/>
      <point x="232" y="640"/>
      <point x="237" y="645"/>
      <point x="282" y="645" type="curve" smooth="yes"/>
      <point x="322" y="645" type="line"/>
      <point x="322" y="680" type="line"/>
      <point x="47" y="680" type="line"/>
      <point x="47" y="645" type="line"/>
      <point x="87" y="645" type="line" smooth="yes"/>
      <point x="132" y="645"/>
      <point x="137" y="640"/>
      <point x="137" y="595" type="curve" smooth="yes"/>
      <point x="137" y="85" type="line" smooth="yes"/>
      <point x="137" y="40"/>
      <point x="132" y="35"/>
      <point x="87" y="35" type="curve" smooth="yes"/>
      <point x="47" y="35" type="line"/>
    </contour>
    <contour>
      <point x="354" y="-35" type="curve" smooth="yes"/>
      <point x="326" y="-35"/>
      <point x="301" y="-61"/>
      <point x="301" y="-89" type="curve" smooth="yes"/>
      <point x="301" y="-120"/>
      <point x="326" y="-143"/>
      <point x="364" y="-143" type="curve" smooth="yes"/>
      <point x="370" y="-143"/>
      <point x="373" y="-148"/>
      <point x="373" y="-158" type="curve" smooth="yes"/>
      <point x="373" y="-185"/>
      <point x="346" y="-211"/>
      <point x="307" y="-218" type="curve"/>
      <point x="311" y="-244" type="line"/>
      <point x="378" y="-236"/>
      <point x="425" y="-177"/>
      <point x="425" y="-110" type="curve" smooth="yes"/>
      <point x="425" y="-66"/>
      <point x="395" y="-35"/>
    </contour>
  </outline>
</glyph>
<glyph name="uni0137" format="2">
  <advance width="598"/>
  <unicode hex="0137"/>
  <outline>
    <contour>
      <point x="25" y="0" type="line"/>
      <point x="262" y="0" type="line"/>
      <point x="262" y="32" type="line"/>
      <point x="227" y="32" type="line" smooth="yes"/>
      <point x="192" y="32"/>
      <point x="189" y="36"/>
      <point x="189" y="64" type="curve" smooth="yes"/>
      <point x="189" y="174" type="line"/>
      <point x="244" y="228" type="line"/>
      <point x="372" y="65" type="line" smooth="yes"/>
      <point x="379" y="56"/>
      <point x="383" y="48"/>
      <point x="383" y="43" type="curve" smooth="yes"/>
      <point x="383" y="37"/>
      <point x="374" y="33"/>
      <point x="356" y="33" type="curve" smooth="yes"/>
      <point x="335" y="33" type="line"/>
      <point x="335" y="0" type="line"/>
      <point x="581" y="0" type="line"/>
      <point x="581" y="33" type="line"/>
      <point x="557" y="33" type="line" smooth="yes"/>
      <point x="514" y="33"/>
      <point x="508" y="38"/>
      <point x="474" y="80" type="curve" smooth="yes"/>
      <point x="306" y="290" type="line"/>
      <point x="435" y="423" type="line" smooth="yes"/>
      <point x="471" y="459"/>
      <point x="481" y="466"/>
      <point x="520" y="466" type="curve" smooth="yes"/>
      <point x="543" y="466" type="line"/>
      <point x="543" y="498" type="line"/>
      <point x="322" y="498" type="line"/>
      <point x="322" y="466" type="line"/>
      <point x="358" y="466" type="line" smooth="yes"/>
      <point x="391" y="466"/>
      <point x="405" y="462"/>
      <point x="405" y="454" type="curve" smooth="yes"/>
      <point x="405" y="446"/>
      <point x="394" y="433"/>
      <point x="375" y="415" type="curve"/>
      <point x="314" y="353"/>
      <point x="251" y="289"/>
      <point x="189" y="226" type="curve"/>
      <point x="189" y="434" type="line" smooth="yes"/>
      <point x="189" y="464"/>
      <point x="192" y="467"/>
      <point x="227" y="467" type="curve" smooth="yes"/>
      <point x="262" y="467" type="line"/>
      <point x="262" y="498" type="line"/>
      <point x="25" y="498" type="line"/>
      <point x="25" y="467" type="line"/>
      <point x="59" y="467" type="line" smooth="yes"/>
      <point x="93" y="467"/>
      <point x="98" y="464"/>
      <point x="98" y="434" type="curve" smooth="yes"/>
      <point x="98" y="64" type="line" smooth="yes"/>
      <point x="98" y="36"/>
      <point x="93" y="32"/>
      <point x="59" y="32" type="curve" smooth="yes"/>
      <point x="25" y="32" type="line"/>
    </contour>
    <contour>
      <point x="290" y="-35" type="curve" smooth="yes"/>
      <point x="262" y="-35"/>
      <point x="237" y="-61"/>
      <point x="237" y="-89" type="curve" smooth="yes"/>
      <point x="237" y="-120"/>
      <point x="262" y="-143"/>
      <point x="300" y="-143" type="curve" smooth="yes"/>
      <point x="306" y="-143"/>
      <point x="309" y="-148"/>
      <point x="309" y="-158" type="curve" smooth="yes"/>
      <point x="309" y="-185"/>
      <point x="282" y="-211"/>
      <point x="243" y="-218" type="curve"/>
      <point x="247" y="-244" type="line"/>
      <point x="314" y="-236"/>
      <point x="361" y="-177"/>
      <point x="361" y="-110" type="curve" smooth="yes"/>
      <point x="361" y="-66"/>
      <point x="331" y="-35"/>
    </contour>
  </outline>
</glyph>
<glyph name="kgreenlandic" format="2">
  <advance width="536"/>
  <unicode hex="0138"/>
  <outline>
    <contour>
      <point x="22" y="0" type="line"/>
      <point x="238" y="0" type="line"/>
      <point x="238" y="35" type="line"/>
      <point x="228" y="35" type="line" smooth="yes"/>
      <point x="183" y="35"/>
      <point x="182" y="40"/>
      <point x="182" y="85" type="curve" smooth="yes"/>
      <point x="182" y="140" type="line"/>
      <point x="260" y="230" type="line"/>
      <point x="346" y="85" type="line" smooth="yes"/>
      <point x="370" y="45"/>
      <point x="352" y="35"/>
      <point x="322" y="35" type="curve" smooth="yes"/>
      <point x="298" y="35" type="line"/>
      <point x="298" y="0" type="line"/>
      <point x="384" y="0" type="line"/>
      <point x="494" y="0" type="line"/>
      <point x="526" y="0" type="line"/>
      <point x="526" y="35" type="line"/>
      <point x="510" y="35" type="line" smooth="yes"/>
      <point x="474" y="35"/>
      <point x="472" y="40"/>
      <point x="450" y="77" type="curve" smooth="yes"/>
      <point x="320" y="297" type="line"/>
      <point x="386" y="372" type="line" smooth="yes"/>
      <point x="418" y="408"/>
      <point x="431" y="415"/>
      <point x="472" y="415" type="curve" smooth="yes"/>
      <point x="498" y="415" type="line"/>
      <point x="498" y="450" type="line"/>
      <point x="286" y="450" type="line"/>
      <point x="286" y="415" type="line"/>
      <point x="314" y="415" type="line" smooth="yes"/>
      <point x="361" y="415"/>
      <point x="365" y="402"/>
      <point x="332" y="365" type="curve" smooth="yes"/>
      <point x="182" y="198" type="line"/>
      <point x="182" y="364" type="line"/>
      <point x="182" y="387" type="line" smooth="yes"/>
      <point x="182" y="415"/>
      <point x="202" y="415"/>
      <point x="212" y="415" type="curve"/>
      <point x="212" y="450" type="line"/>
      <point x="12" y="450" type="line"/>
      <point x="12" y="415" type="line"/>
      <point x="42" y="415" type="line" smooth="yes"/>
      <point x="87" y="415"/>
      <point x="92" y="410"/>
      <point x="92" y="365" type="curve" smooth="yes"/>
      <point x="92" y="85" type="line" smooth="yes"/>
      <point x="92" y="40"/>
      <point x="87" y="35"/>
      <point x="42" y="35" type="curve" smooth="yes"/>
      <point x="22" y="35" type="line"/>
    </contour>
  </outline>
</glyph>
<glyph name="Lacute" format="2">
  <advance width="593"/>
  <unicode hex="0139"/>
  <outline>
    <contour>
      <point x="47" y="35" type="line"/>
      <point x="47" y="0" type="line"/>
      <point x="551" y="0" type="line"/>
      <point x="556" y="270" type="line"/>
      <point x="526" y="270" type="line"/>
      <point x="504" y="149"/>
      <point x="486" y="36"/>
      <point x="320" y="36" type="curve" smooth="yes"/>
      <point x="291" y="36" type="line" smooth="yes"/>
      <point x="263" y="36"/>
      <point x="232" y="53"/>
      <point x="232" y="84" type="curve" smooth="yes"/>
      <point x="232" y="595" type="line" smooth="yes"/>
      <point x="232" y="640"/>
      <point x="237" y="645"/>
      <point x="282" y="645" type="curve" smooth="yes"/>
      <point x="322" y="645" type="line"/>
      <point x="322" y="680" type="line"/>
      <point x="47" y="680" type="line"/>
      <point x="47" y="645" type="line"/>
      <point x="87" y="645" type="line" smooth="yes"/>
      <point x="132" y="645"/>
      <point x="137" y="640"/>
      <point x="137" y="595" type="curve" smooth="yes"/>
      <point x="137" y="85" type="line" smooth="yes"/>
      <point x="137" y="40"/>
      <point x="132" y="35"/>
      <point x="87" y="35" type="curve" smooth="yes"/>
    </contour>
    <contour>
      <point x="199" y="762" type="line"/>
      <point x="255" y="794"/>
      <point x="361" y="876"/>
      <point x="403" y="916" type="curve"/>
      <point x="396" y="936" type="line"/>
      <point x="285" y="936" type="line"/>
      <point x="267" y="892"/>
      <point x="225" y="824"/>
      <point x="191" y="784" type="curve"/>
    </contour>
  </outline>
</glyph>
<glyph name="lacute" format="2">
  <advance width="475"/>
  <unicode hex="013A"/>
  <outline>
    <contour>
      <point x="25" y="32" type="line"/>
      <point x="25" y="0" type="line"/>
      <point x="446" y="0" type="line"/>
      <point x="451" y="209" type="line"/>
      <point x="422" y="209" type="line"/>
      <point x="404" y="121"/>
      <point x="389" y="33"/>
      <point x="256" y="33" type="curve" smooth="yes"/>
      <point x="235" y="33" type="line" smooth="yes"/>
      <point x="212" y="33"/>
      <point x="189" y="44"/>
      <point x="189" y="63" type="curve" smooth="yes"/>
      <point x="189" y="434" type="line" smooth="yes"/>
      <point x="189" y="464"/>
      <point x="192" y="467"/>
      <point x="227" y="467" type="curve" smooth="yes"/>
      <point x="262" y="467" type="line"/>
      <point x="262" y="498" type="line"/>
      <point x="25" y="498" type="line"/>
      <point x="25" y="467" type="line"/>
      <point x="59" y="467" type="line" smooth="yes"/>
      <point x="93" y="467"/>
      <point x="98" y="464"/>
      <point x="98" y="434" type="curve" smooth="yes"/>
      <point x="98" y="64" type="line" smooth="yes"/>
      <point x="98" y="36"/>
      <point x="93" y="32"/>
      <point x="59" y="32" type="curve" smooth="yes"/>
    </contour>
    <contour>
      <point x="140" y="532" type="line"/>
      <point x="196" y="564"/>
      <point x="302" y="646"/>
      <point x="344" y="686" type="curve"/>
      <point x="337" y="706" type="line"/>
      <point x="226" y="706" type="line"/>
      <point x="208" y="662"/>
      <point x="166" y="594"/>
      <point x="132" y="554" type="curve"/>
    </contour>
  </outline>
</glyph>
<glyph name="uni013B" format="2">
  <advance width="593"/>
  <unicode hex="013B"/>
  <outline>
    <contour>
      <point x="47" y="35" type="line"/>
      <point x="47" y="0" type="line"/>
      <point x="551" y="0" type="line"/>
      <point x="556" y="270" type="line"/>
      <point x="526" y="270" type="line"/>
      <point x="504" y="149"/>
      <point x="486" y="36"/>
      <point x="320" y="36" type="curve" smooth="yes"/>
      <point x="291" y="36" type="line" smooth="yes"/>
      <point x="263" y="36"/>
      <point x="232" y="53"/>
      <point x="232" y="84" type="curve" smooth="yes"/>
      <point x="232" y="595" type="line" smooth="yes"/>
      <point x="232" y="640"/>
      <point x="237" y="645"/>
      <point x="282" y="645" type="curve" smooth="yes"/>
      <point x="322" y="645" type="line"/>
      <point x="322" y="680" type="line"/>
      <point x="47" y="680" type="line"/>
      <point x="47" y="645" type="line"/>
      <point x="87" y="645" type="line" smooth="yes"/>
      <point x="132" y="645"/>
      <point x="137" y="640"/>
      <point x="137" y="595" type="curve" smooth="yes"/>
      <point x="137" y="85" type="line" smooth="yes"/>
      <point x="137" y="40"/>
      <point x="132" y="35"/>
      <point x="87" y="35" type="curve" smooth="yes"/>
    </contour>
    <contour>
      <point x="288" y="-35" type="curve" smooth="yes"/>
      <point x="260" y="-35"/>
      <point x="235" y="-61"/>
      <point x="235" y="-89" type="curve" smooth="yes"/>
      <point x="235" y="-120"/>
      <point x="260" y="-143"/>
      <point x="298" y="-143" type="curve" smooth="yes"/>
      <point x="304" y="-143"/>
      <point x="307" y="-148"/>
      <point x="307" y="-158" type="curve" smooth="yes"/>
      <point x="307" y="-185"/>
      <point x="280" y="-211"/>
      <point x="241" y="-218" type="curve"/>
      <point x="245" y="-244" type="line"/>
      <point x="312" y="-236"/>
      <point x="359" y="-177"/>
      <point x="359" y="-110" type="curve" smooth="yes"/>
      <point x="359" y="-66"/>
      <point x="329" y="-35"/>
    </contour>
  </outline>
</glyph>
<glyph name="uni013C" format="2">
  <advance width="475"/>
  <unicode hex="013C"/>
  <outline>
    <contour>
      <point x="25" y="32" type="line"/>
      <point x="25" y="0" type="line"/>
      <point x="446" y="0" type="line"/>
      <point x="451" y="209" type="line"/>
      <point x="422" y="209" type="line"/>
      <point x="404" y="121"/>
      <point x="389" y="33"/>
      <point x="256" y="33" type="curve" smooth="yes"/>
      <point x="235" y="33" type="line" smooth="yes"/>
      <point x="212" y="33"/>
      <point x="189" y="44"/>
      <point x="189" y="63" type="curve" smooth="yes"/>
      <point x="189" y="434" type="line" smooth="yes"/>
      <point x="189" y="464"/>
      <point x="192" y="467"/>
      <point x="227" y="467" type="curve" smooth="yes"/>
      <point x="262" y="467" type="line"/>
      <point x="262" y="498" type="line"/>
      <point x="25" y="498" type="line"/>
      <point x="25" y="467" type="line"/>
      <point x="59" y="467" type="line" smooth="yes"/>
      <point x="93" y="467"/>
      <point x="98" y="464"/>
      <point x="98" y="434" type="curve" smooth="yes"/>
      <point x="98" y="64" type="line" smooth="yes"/>
      <point x="98" y="36"/>
      <point x="93" y="32"/>
      <point x="59" y="32" type="curve" smooth="yes"/>
    </contour>
    <contour>
      <point x="229" y="-35" type="curve" smooth="yes"/>
      <point x="201" y="-35"/>
      <point x="176" y="-61"/>
      <point x="176" y="-89" type="curve" smooth="yes"/>
      <point x="176" y="-120"/>
      <point x="201" y="-143"/>
      <point x="239" y="-143" type="curve" smooth="yes"/>
      <point x="245" y="-143"/>
      <point x="248" y="-148"/>
      <point x="248" y="-158" type="curve" smooth="yes"/>
      <point x="248" y="-185"/>
      <point x="221" y="-211"/>
      <point x="182" y="-218" type="curve"/>
      <point x="186" y="-244" type="line"/>
      <point x="253" y="-236"/>
      <point x="300" y="-177"/>
      <point x="300" y="-110" type="curve" smooth="yes"/>
      <point x="300" y="-66"/>
      <point x="270" y="-35"/>
    </contour>
  </outline>
</glyph>
<glyph name="lcaron" format="2">
  <advance width="475"/>
  <unicode hex="013E"/>
  <outline>
    <contour>
      <point x="25" y="32" type="line"/>
      <point x="25" y="0" type="line"/>
      <point x="446" y="0" type="line"/>
      <point x="451" y="209" type="line"/>
      <point x="422" y="209" type="line"/>
      <point x="404" y="121"/>
      <point x="389" y="33"/>
      <point x="256" y="33" type="curve" smooth="yes"/>
      <point x="235" y="33" type="line" smooth="yes"/>
      <point x="212" y="33"/>
      <point x="189" y="44"/>
      <point x="189" y="63" type="curve" smooth="yes"/>
      <point x="189" y="434" type="line" smooth="yes"/>
      <point x="189" y="464"/>
      <point x="192" y="467"/>
      <point x="227" y="467" type="curve" smooth="yes"/>
      <point x="262" y="467" type="line"/>
      <point x="262" y="498" type="line"/>
      <point x="25" y="498" type="line"/>
      <point x="25" y="467" type="line"/>
      <point x="59" y="467" type="line" smooth="yes"/>
      <point x="93" y="467"/>
      <point x="98" y="464"/>
      <point x="98" y="434" type="curve" smooth="yes"/>
      <point x="98" y="64" type="line" smooth="yes"/>
      <point x="98" y="36"/>
      <point x="93" y="32"/>
      <point x="59" y="32" type="curve" smooth="yes"/>
    </contour>
    <contour>
      <point x="357" y="653" type="curve" smooth="yes"/>
      <point x="326" y="653"/>
      <point x="295" y="623"/>
      <point x="295" y="589" type="curve" smooth="yes"/>
      <point x="295" y="552"/>
      <point x="327" y="526"/>
      <point x="369" y="526" type="curve" smooth="yes"/>
      <point x="376" y="526"/>
      <point x="380" y="521"/>
      <point x="380" y="508" type="curve" smooth="yes"/>
      <point x="380" y="475"/>
      <point x="347" y="445"/>
      <point x="302" y="437" type="curve"/>
      <point x="307" y="407" type="line"/>
      <point x="387" y="417"/>
      <point x="441" y="484"/>
      <point x="441" y="565" type="curve" smooth="yes"/>
      <point x="441" y="615"/>
      <point x="405" y="653"/>
    </contour>
  </outline>
</glyph>
<glyph name="Ldot" format="2">
  <advance width="593"/>
  <unicode hex="013F"/>
  <outline>
    <contour>
      <point x="47" y="35" type="line"/>
      <point x="47" y="0" type="line"/>
      <point x="551" y="0" type="line"/>
      <point x="556" y="270" type="line"/>
      <point x="526" y="270" type="line"/>
      <point x="504" y="149"/>
      <point x="486" y="36"/>
      <point x="320" y="36" type="curve" smooth="yes"/>
      <point x="291" y="36" type="line" smooth="yes"/>
      <point x="263" y="36"/>
      <point x="232" y="53"/>
      <point x="232" y="84" type="curve" smooth="yes"/>
      <point x="232" y="595" type="line" smooth="yes"/>
      <point x="232" y="640"/>
      <point x="237" y="645"/>
      <point x="282" y="645" type="curve" smooth="yes"/>
      <point x="322" y="645" type="line"/>
      <point x="322" y="680" type="line"/>
      <point x="47" y="680" type="line"/>
      <point x="47" y="645" type="line"/>
      <point x="87" y="645" type="line" smooth="yes"/>
      <point x="132" y="645"/>
      <point x="137" y="640"/>
      <point x="137" y="595" type="curve" smooth="yes"/>
      <point x="137" y="85" type="line" smooth="yes"/>
      <point x="137" y="40"/>
      <point x="132" y="35"/>
      <point x="87" y="35" type="curve" smooth="yes"/>
    </contour>
    <contour>
      <point x="380" y="359" type="curve" smooth="yes"/>
      <point x="424" y="359"/>
      <point x="461" y="396"/>
      <point x="461" y="440" type="curve" smooth="yes"/>
      <point x="461" y="484"/>
      <point x="424" y="521"/>
      <point x="380" y="521" type="curve" smooth="yes"/>
      <point x="336" y="521"/>
      <point x="299" y="484"/>
      <point x="299" y="440" type="curve" smooth="yes"/>
      <point x="299" y="396"/>
      <point x="336" y="359"/>
    </contour>
  </outline>
</glyph>
<glyph name="ldot" format="2">
  <advance width="475"/>
  <unicode hex="0140"/>
  <outline>
    <contour>
      <point x="25" y="32" type="line"/>
      <point x="25" y="0" type="line"/>
      <point x="446" y="0" type="line"/>
      <point x="451" y="209" type="line"/>
      <point x="422" y="209" type="line"/>
      <point x="404" y="121"/>
      <point x="389" y="33"/>
      <point x="256" y="33" type="curve" smooth="yes"/>
      <point x="235" y="33" type="line" smooth="yes"/>
      <point x="212" y="33"/>
      <point x="189" y="44"/>
      <point x="189" y="63" type="curve" smooth="yes"/>
      <point x="189" y="434" type="line" smooth="yes"/>
      <point x="189" y="464"/>
      <point x="192" y="467"/>
      <point x="227" y="467" type="curve" smooth="yes"/>
      <point x="262" y="467" type="line"/>
      <point x="262" y="498" type="line"/>
      <point x="25" y="498" type="line"/>
      <point x="25" y="467" type="line"/>
      <point x="59" y="467" type="line" smooth="yes"/>
      <point x="93" y="467"/>
      <point x="98" y="464"/>
      <point x="98" y="434" type="curve" smooth="yes"/>
      <point x="98" y="64" type="line" smooth="yes"/>
      <point x="98" y="36"/>
      <point x="93" y="32"/>
      <point x="59" y="32" type="curve" smooth="yes"/>
    </contour>
    <contour>
      <point x="310" y="239" type="curve" smooth="yes"/>
      <point x="342" y="239"/>
      <point x="369" y="266"/>
      <point x="369" y="297" type="curve" smooth="yes"/>
      <point x="369" y="329"/>
      <point x="342" y="356"/>
      <point x="310" y="356" type="curve" smooth="yes"/>
      <point x="279" y="356"/>
      <point x="252" y="329"/>
      <point x="252" y="297" type="curve" smooth="yes"/>
      <point x="252" y="266"/>
      <point x="279" y="239"/>
    </contour>
  </outline>
</glyph>
<glyph name="Lslash" format="2">
  <advance width="623"/>
  <unicode hex="0141"/>
  <outline>
    <contour>
      <point x="30" y="165" type="line"/>
      <point x="421" y="402" type="line" name=".hr01"/>
      <point x="421" y="467" type="line"/>
      <point x="30" y="230" type="line" name=".hr02"/>
    </contour>
    <contour>
      <point x="77" y="35" type="line"/>
      <point x="77" y="0" type="line"/>
      <point x="581" y="0" type="line"/>
      <point x="586" y="270" type="line"/>
      <point x="556" y="270" type="line"/>
      <point x="534" y="149"/>
      <point x="516" y="36"/>
      <point x="350" y="36" type="curve" smooth="yes"/>
      <point x="321" y="36" type="line" smooth="yes"/>
      <point x="293" y="36"/>
      <point x="262" y="53"/>
      <point x="262" y="84" type="curve" smooth="yes"/>
      <point x="262" y="595" type="line" smooth="yes"/>
      <point x="262" y="640"/>
      <point x="267" y="645"/>
      <point x="312" y="645" type="curve" smooth="yes"/>
      <point x="352" y="645" type="line"/>
      <point x="352" y="680" type="line"/>
      <point x="77" y="680" type="line"/>
      <point x="77" y="645" type="line"/>
      <point x="117" y="645" type="line" smooth="yes"/>
      <point x="162" y="645"/>
      <point x="167" y="640" name=".hr03"/>
      <point x="167" y="595" type="curve" smooth="yes"/>
      <point x="167" y="85" type="line" smooth="yes"/>
      <point x="167" y="40"/>
      <point x="162" y="35"/>
      <point x="117" y="35" type="curve" smooth="yes"/>
    </contour>
  </outline>
</glyph>
<glyph name="lslash" format="2">
  <advance width="475"/>
  <unicode hex="0142"/>
  <outline>
    <contour>
      <point x="25" y="32" type="line"/>
      <point x="25" y="0" type="line"/>
      <point x="446" y="0" type="line"/>
      <point x="451" y="209" type="line"/>
      <point x="422" y="209" type="line"/>
      <point x="404" y="121"/>
      <point x="389" y="33"/>
      <point x="256" y="33" type="curve" smooth="yes"/>
      <point x="235" y="33" type="line" smooth="yes"/>
      <point x="212" y="33"/>
      <point x="189" y="44"/>
      <point x="189" y="63" type="curve" smooth="yes"/>
      <point x="189" y="261" type="line"/>
      <point x="291" y="323" type="line"/>
      <point x="291" y="388" type="line"/>
      <point x="189" y="326" type="line"/>
      <point x="189" y="434" type="line" smooth="yes"/>
      <point x="189" y="464"/>
      <point x="192" y="467"/>
      <point x="227" y="467" type="curve" smooth="yes"/>
      <point x="262" y="467" type="line"/>
      <point x="262" y="498" type="line"/>
      <point x="25" y="498" type="line"/>
      <point x="25" y="467" type="line"/>
      <point x="59" y="467" type="line" smooth="yes"/>
      <point x="93" y="467"/>
      <point x="98" y="464"/>
      <point x="98" y="434" type="curve" smooth="yes"/>
      <point x="98" y="271" type="line"/>
      <point x="30" y="230" type="line"/>
      <point x="30" y="165" type="line"/>
      <point x="98" y="206" type="line"/>
      <point x="98" y="64" type="line" smooth="yes"/>
      <point x="98" y="36"/>
      <point x="93" y="32"/>
      <point x="59" y="32" type="curve" smooth="yes"/>
    </contour>
  </outline>
</glyph>
<glyph name="uni0145" format="2">
  <advance width="734"/>
  <unicode hex="0145"/>
  <outline>
    <contour>
      <point x="45" y="0" type="line"/>
      <point x="285" y="0" type="line"/>
      <point x="285" y="35" type="line"/>
      <point x="235" y="35" type="line" smooth="yes"/>
      <point x="190" y="35"/>
      <point x="185" y="40"/>
      <point x="185" y="85" type="curve" smooth="yes"/>
      <point x="185" y="498" type="line" smooth="yes"/>
      <point x="185" y="535"/>
      <point x="198" y="555"/>
      <point x="227" y="511" type="curve" smooth="yes"/>
      <point x="580" y="-12" type="line"/>
      <point x="606" y="-12" type="line"/>
      <point x="607" y="595" type="line" smooth="yes"/>
      <point x="607" y="640"/>
      <point x="612" y="645"/>
      <point x="657" y="645" type="curve" smooth="yes"/>
      <point x="707" y="645" type="line"/>
      <point x="707" y="680" type="line"/>
      <point x="465" y="680" type="line"/>
      <point x="465" y="645" type="line"/>
      <point x="515" y="645" type="line" smooth="yes"/>
      <point x="560" y="645"/>
      <point x="567" y="640"/>
      <point x="567" y="595" type="curve" smooth="yes"/>
      <point x="567" y="178" type="line"/>
      <point x="228" y="680" type="line"/>
      <point x="45" y="680" type="line"/>
      <point x="45" y="645" type="line"/>
      <point x="70" y="645" type="line" smooth="yes"/>
      <point x="118" y="645"/>
      <point x="145" y="629"/>
      <point x="145" y="568" type="curve" smooth="yes"/>
      <point x="145" y="85" type="line" smooth="yes"/>
      <point x="145" y="40"/>
      <point x="140" y="35"/>
      <point x="95" y="35" type="curve" smooth="yes"/>
      <point x="45" y="35" type="line"/>
    </contour>
    <contour>
      <point x="358" y="-35" type="curve" smooth="yes"/>
      <point x="330" y="-35"/>
      <point x="305" y="-61"/>
      <point x="305" y="-89" type="curve" smooth="yes"/>
      <point x="305" y="-120"/>
      <point x="330" y="-143"/>
      <point x="368" y="-143" type="curve" smooth="yes"/>
      <point x="374" y="-143"/>
      <point x="377" y="-148"/>
      <point x="377" y="-158" type="curve" smooth="yes"/>
      <point x="377" y="-185"/>
      <point x="350" y="-211"/>
      <point x="311" y="-218" type="curve"/>
      <point x="315" y="-244" type="line"/>
      <point x="382" y="-236"/>
      <point x="429" y="-177"/>
      <point x="429" y="-110" type="curve" smooth="yes"/>
      <point x="429" y="-66"/>
      <point x="399" y="-35"/>
    </contour>
  </outline>
</glyph>
<glyph name="uni0146" format="2">
  <advance width="589"/>
  <unicode hex="0146"/>
  <anchor x="299" y="537" name="t.asciicircum_1"/>
  <outline>
    <contour>
      <point x="30" y="1" type="line"/>
      <point x="232" y="1" type="line"/>
      <point x="232" y="32" type="line"/>
      <point x="188" y="32" type="line" smooth="yes"/>
      <point x="155" y="32"/>
      <point x="150" y="36"/>
      <point x="150" y="65" type="curve" smooth="yes"/>
      <point x="150" y="364" type="line" smooth="yes"/>
      <point x="150" y="379"/>
      <point x="153" y="389"/>
      <point x="159" y="389" type="curve" smooth="yes"/>
      <point x="163" y="389"/>
      <point x="169" y="384"/>
      <point x="179" y="372" type="curve"/>
      <point x="465" y="-8" type="line"/>
      <point x="490" y="-8" type="line"/>
      <point x="490" y="434" type="line" smooth="yes"/>
      <point x="490" y="465"/>
      <point x="495" y="468"/>
      <point x="528" y="468" type="curve" smooth="yes"/>
      <point x="572" y="468" type="line"/>
      <point x="572" y="499" type="line"/>
      <point x="371" y="499" type="line"/>
      <point x="371" y="468" type="line"/>
      <point x="415" y="468" type="line" smooth="yes"/>
      <point x="448" y="468"/>
      <point x="452" y="465"/>
      <point x="452" y="434" type="curve" smooth="yes"/>
      <point x="452" y="161" type="line"/>
      <point x="191" y="499" type="line"/>
      <point x="30" y="499" type="line"/>
      <point x="30" y="468" type="line"/>
      <point x="54" y="468" type="line" smooth="yes"/>
      <point x="91" y="468"/>
      <point x="111" y="456"/>
      <point x="112" y="416" type="curve"/>
      <point x="111" y="65" type="line" smooth="yes"/>
      <point x="111" y="36"/>
      <point x="107" y="32"/>
      <point x="75" y="32" type="curve" smooth="yes"/>
      <point x="30" y="32" type="line"/>
    </contour>
    <contour>
      <point x="286" y="-35" type="curve" smooth="yes"/>
      <point x="258" y="-35"/>
      <point x="233" y="-61"/>
      <point x="233" y="-89" type="curve" smooth="yes"/>
      <point x="233" y="-120"/>
      <point x="258" y="-143"/>
      <point x="296" y="-143" type="curve" smooth="yes"/>
      <point x="302" y="-143"/>
      <point x="305" y="-148"/>
      <point x="305" y="-158" type="curve" smooth="yes"/>
      <point x="305" y="-185"/>
      <point x="278" y="-211"/>
      <point x="239" y="-218" type="curve"/>
      <point x="243" y="-244" type="line"/>
      <point x="310" y="-236"/>
      <point x="357" y="-177"/>
      <point x="357" y="-110" type="curve" smooth="yes"/>
      <point x="357" y="-66"/>
      <point x="327" y="-35"/>
    </contour>
  </outline>
</glyph>
<glyph name="napostrophe" format="2">
  <advance width="693"/>
  <unicode hex="0149"/>
  <anchor x="403" y="537" name="t.asciicircum_1"/>
  <outline>
    <contour>
      <point x="134" y="1" type="line"/>
      <point x="336" y="1" type="line"/>
      <point x="336" y="32" type="line"/>
      <point x="292" y="32" type="line" smooth="yes"/>
      <point x="259" y="32"/>
      <point x="254" y="36"/>
      <point x="254" y="65" type="curve" smooth="yes"/>
      <point x="254" y="364" type="line" smooth="yes"/>
      <point x="254" y="379"/>
      <point x="257" y="389"/>
      <point x="263" y="389" type="curve" smooth="yes"/>
      <point x="267" y="389"/>
      <point x="273" y="384"/>
      <point x="283" y="372" type="curve"/>
      <point x="569" y="-8" type="line"/>
      <point x="594" y="-8" type="line"/>
      <point x="594" y="434" type="line" smooth="yes"/>
      <point x="594" y="465"/>
      <point x="599" y="468" name=".hr01"/>
      <point x="632" y="468" type="curve" smooth="yes"/>
      <point x="676" y="468" type="line"/>
      <point x="676" y="499" type="line"/>
      <point x="475" y="499" type="line"/>
      <point x="475" y="468" type="line"/>
      <point x="519" y="468" type="line" smooth="yes"/>
      <point x="552" y="468"/>
      <point x="556" y="465"/>
      <point x="556" y="434" type="curve" smooth="yes"/>
      <point x="556" y="161" type="line"/>
      <point x="295" y="499" type="line"/>
      <point x="134" y="499" type="line"/>
      <point x="134" y="468" type="line"/>
      <point x="158" y="468" type="line" smooth="yes"/>
      <point x="195" y="468"/>
      <point x="215" y="456"/>
      <point x="216" y="416" type="curve"/>
      <point x="215" y="65" type="line" smooth="yes"/>
      <point x="215" y="36"/>
      <point x="211" y="32"/>
      <point x="179" y="32" type="curve" smooth="yes"/>
      <point x="134" y="32" type="line"/>
    </contour>
    <contour>
      <point x="62.85" y="668.05" type="curve" smooth="yes"/>
      <point x="36.5" y="668.05" name=".hr02"/>
      <point x="10.15" y="642.55"/>
      <point x="10.15" y="613.65" type="curve" smooth="yes"/>
      <point x="10.15" y="582.2"/>
      <point x="37.35" y="560.1"/>
      <point x="73.05" y="560.1" type="curve" smooth="yes"/>
      <point x="79" y="560.1"/>
      <point x="82.4" y="555.85"/>
      <point x="82.4" y="544.8" type="curve" smooth="yes"/>
      <point x="82.4" y="516.75"/>
      <point x="54.35" y="491.25"/>
      <point x="16.1" y="484.45" type="curve"/>
      <point x="20.35" y="458.95" type="line"/>
      <point x="88.35" y="467.45"/>
      <point x="134.25" y="524.4"/>
      <point x="134.25" y="593.25" type="curve" smooth="yes"/>
      <point x="134.25" y="635.75"/>
      <point x="103.65" y="668.05"/>
    </contour>
  </outline>
</glyph>
<glyph name="OE" format="2">
  <advance width="950"/>
  <unicode hex="0152"/>
  <outline>
    <contour>
      <point x="463" y="274" type="line" smooth="yes"/>
      <point x="463" y="103"/>
      <point x="414" y="35"/>
      <point x="343" y="35" type="curve" smooth="yes"/>
      <point x="253" y="35"/>
      <point x="172" y="90"/>
      <point x="172" y="340" type="curve" smooth="yes"/>
      <point x="172" y="590"/>
      <point x="253" y="645"/>
      <point x="343" y="645" type="curve" smooth="yes"/>
      <point x="418" y="645"/>
      <point x="463" y="604"/>
      <point x="463" y="450" type="curve" smooth="yes"/>
    </contour>
    <contour>
      <point x="343" y="680" type="line" smooth="yes"/>
      <point x="163" y="680"/>
      <point x="40" y="535"/>
      <point x="40" y="340" type="curve" smooth="yes"/>
      <point x="40" y="146"/>
      <point x="163" y="0"/>
      <point x="343" y="0" type="curve" smooth="yes"/>
      <point x="895" y="0" type="line"/>
      <point x="900" y="280" type="line"/>
      <point x="870" y="280" type="line"/>
      <point x="848" y="159"/>
      <point x="830" y="36"/>
      <point x="664" y="36" type="curve" smooth="yes"/>
      <point x="610" y="36" type="line" smooth="yes"/>
      <point x="584" y="36"/>
      <point x="559" y="55"/>
      <point x="559" y="79" type="curve" smooth="yes"/>
      <point x="559" y="327" type="line"/>
      <point x="602" y="327" type="line" smooth="yes"/>
      <point x="658" y="327"/>
      <point x="693" y="265"/>
      <point x="701" y="175" type="curve"/>
      <point x="736" y="175" type="line"/>
      <point x="736" y="512" type="line"/>
      <point x="701" y="512" type="line"/>
      <point x="693" y="422"/>
      <point x="662" y="362"/>
      <point x="602" y="362" type="curve" smooth="yes"/>
      <point x="559" y="362" type="line"/>
      <point x="559" y="604" type="line" smooth="yes"/>
      <point x="559" y="628"/>
      <point x="594" y="644"/>
      <point x="624" y="644" type="curve" smooth="yes"/>
      <point x="667" y="644" type="line" smooth="yes"/>
      <point x="772" y="644"/>
      <point x="826" y="571"/>
      <point x="853" y="445" type="curve"/>
      <point x="883" y="445" type="line"/>
      <point x="878" y="680" type="line"/>
    </contour>
  </outline>
</glyph>
<glyph name="oe" format="2">
  <advance width="776"/>
  <unicode hex="0153"/>
  <outline>
    <contour>
      <point x="378" y="198" type="line" smooth="yes"/>
      <point x="378" y="74"/>
      <point x="338" y="25"/>
      <point x="280" y="25" type="curve" smooth="yes"/>
      <point x="207" y="25"/>
      <point x="141" y="65"/>
      <point x="141" y="245" type="curve" smooth="yes"/>
      <point x="141" y="426"/>
      <point x="207" y="464"/>
      <point x="280" y="464" type="curve" smooth="yes"/>
      <point x="341" y="464"/>
      <point x="378" y="435"/>
      <point x="378" y="325" type="curve" smooth="yes"/>
    </contour>
    <contour>
      <point x="280" y="490" type="line" smooth="yes"/>
      <point x="134" y="490"/>
      <point x="33" y="385"/>
      <point x="33" y="245" type="curve" smooth="yes"/>
      <point x="33" y="106"/>
      <point x="134" y="0"/>
      <point x="280" y="0" type="curve" smooth="yes"/>
      <point x="731" y="0" type="line"/>
      <point x="735" y="202" type="line"/>
      <point x="711" y="202" type="line"/>
      <point x="692" y="114"/>
      <point x="678" y="26"/>
      <point x="542" y="26" type="curve" smooth="yes"/>
      <point x="498" y="26" type="line" smooth="yes"/>
      <point x="476" y="26"/>
      <point x="456" y="40"/>
      <point x="456" y="56" type="curve" smooth="yes"/>
      <point x="456" y="236" type="line"/>
      <point x="492" y="236" type="line" smooth="yes"/>
      <point x="537" y="236"/>
      <point x="565" y="191"/>
      <point x="572" y="126" type="curve"/>
      <point x="601" y="126" type="line"/>
      <point x="601" y="368" type="line"/>
      <point x="572" y="368" type="line"/>
      <point x="565" y="304"/>
      <point x="541" y="261"/>
      <point x="492" y="261" type="curve" smooth="yes"/>
      <point x="456" y="261" type="line"/>
      <point x="456" y="435" type="line" smooth="yes"/>
      <point x="456" y="452"/>
      <point x="485" y="464"/>
      <point x="509" y="464" type="curve" smooth="yes"/>
      <point x="545" y="464" type="line" smooth="yes"/>
      <point x="630" y="464"/>
      <point x="674" y="411"/>
      <point x="696" y="321" type="curve"/>
      <point x="721" y="321" type="line"/>
      <point x="717" y="490" type="line"/>
    </contour>
  </outline>
</glyph>
<glyph name="Tbar" format="2">
  <advance width="640"/>
  <unicode hex="0166"/>
  <outline>
    <contour>
      <point x="147" y="281" type="line"/>
      <point x="494" y="281" type="line"/>
      <point x="494" y="319" type="line"/>
      <point x="147" y="319" type="line"/>
    </contour>
    <contour>
      <point x="188" y="0" type="line"/>
      <point x="463" y="0" type="line"/>
      <point x="463" y="35" type="line"/>
      <point x="423" y="35" type="line" smooth="yes"/>
      <point x="388" y="35"/>
      <point x="373" y="50"/>
      <point x="373" y="85" type="curve" smooth="yes"/>
      <point x="373" y="594" type="line" smooth="yes"/>
      <point x="373" y="629"/>
      <point x="388" y="644"/>
      <point x="423" y="644" type="curve" smooth="yes"/>
      <point x="436" y="644" type="line" smooth="yes"/>
      <point x="512" y="644"/>
      <point x="543" y="558"/>
      <point x="572" y="430" type="curve"/>
      <point x="602" y="430" type="line"/>
      <point x="596" y="680" type="line"/>
      <point x="54" y="680" type="line"/>
      <point x="48" y="430" type="line"/>
      <point x="78" y="430" type="line"/>
      <point x="107" y="558"/>
      <point x="138" y="644"/>
      <point x="214" y="644" type="curve" smooth="yes"/>
      <point x="227" y="644" type="line" smooth="yes"/>
      <point x="262" y="644"/>
      <point x="277" y="629"/>
      <point x="277" y="594" type="curve" smooth="yes"/>
      <point x="278" y="85" type="line" smooth="yes"/>
      <point x="278" y="50"/>
      <point x="263" y="35"/>
      <point x="228" y="35" type="curve" smooth="yes"/>
      <point x="188" y="35" type="line"/>
    </contour>
  </outline>
</glyph>
<glyph name="tbar" format="2">
  <advance width="523"/>
  <unicode hex="0167"/>
  <outline>
    <contour>
      <point x="142" y="0" type="line"/>
      <point x="383" y="0" type="line"/>
      <point x="383" y="32" type="line"/>
      <point x="347" y="32" type="line" smooth="yes"/>
      <point x="322" y="32"/>
      <point x="309" y="42"/>
      <point x="309" y="64" type="curve" smooth="yes"/>
      <point x="309" y="441" type="line" smooth="yes"/>
      <point x="309" y="462"/>
      <point x="326" y="466"/>
      <point x="349" y="466" type="curve" smooth="yes"/>
      <point x="410" y="466"/>
      <point x="439" y="405"/>
      <point x="462" y="312" type="curve"/>
      <point x="491" y="312" type="line"/>
      <point x="486" y="498" type="line"/>
      <point x="38" y="498" type="line"/>
      <point x="32" y="312" type="line"/>
      <point x="60" y="312" type="line"/>
      <point x="84" y="405"/>
      <point x="114" y="466"/>
      <point x="174" y="466" type="curve" smooth="yes"/>
      <point x="201" y="466"/>
      <point x="212.944" y="462"/>
      <point x="213" y="441" type="curve" smooth="yes"/>
      <point x="214" y="64" type="line" smooth="yes"/>
      <point x="214.056" y="43"/>
      <point x="202" y="32"/>
      <point x="177" y="32" type="curve" smooth="yes"/>
      <point x="142" y="32" type="line"/>
    </contour>
    <contour>
      <point x="108" y="212" type="line"/>
      <point x="415" y="212" type="line"/>
      <point x="415" y="250" type="line"/>
      <point x="108" y="250" type="line"/>
    </contour>
  </outline>
</glyph>
